<svg width="104" height="71" viewBox="0 0 104 71" fill="none" xmlns="http://www.w3.org/2000/svg">
<path d="M103.011 42.5341L98.4206 27.6652C97.7545 25.4992 94.6894 25.2309 93.6593 27.2576L91.0628 32.2566C84.786 28.7293 78.2827 25.5442 71.4008 23.642C70.0601 23.23 68.7315 22.8637 67.424 22.5529C62.3836 21.2408 57.3271 20.2574 52.2012 19.7455C51.6686 19.6311 51.0558 19.6056 50.505 19.6062C49.8198 19.5389 49.1932 19.4619 48.5079 19.3946C48.4427 19.3569 48.3414 19.3902 48.2763 19.3526C43.6632 19.0645 38.9903 18.9638 34.3823 19.06L34.281 19.0932C31.1752 19.2215 28.0709 19.3554 25.0258 19.6878C22.9382 19.8921 20.7934 20.1118 18.7014 20.4826C13.6157 21.172 8.58493 22.2261 3.61631 23.6493C3.18215 23.6738 2.72985 23.8134 2.32323 23.9407C1.24647 24.2169 0.704296 25.3233 1.0029 26.2777C1.214 27.3169 2.28268 27.9242 3.20677 27.695L3.37321 27.6993C3.85877 27.6611 4.31108 27.5215 4.78286 27.4318C9.76223 26.3914 15.0338 25.7563 20.2411 25.4751C21.9655 25.3313 23.7535 25.2195 25.4541 25.1923C29.0577 25.0715 32.6642 25.1212 36.2271 25.3969C40.0123 25.4967 43.757 25.8339 47.485 26.451C48.6319 26.5966 49.7317 26.7488 50.8467 26.9581C51.532 27.0255 52.2433 27.1899 52.8909 27.3224C58.3062 28.4117 63.542 29.9959 68.5389 31.8768C69.2198 32.1106 69.8493 32.3581 70.5562 32.689C76.1645 34.9325 81.3682 38.0189 86.3635 41.3326L83.6294 46.5949C82.5494 48.641 84.4832 50.9692 86.699 50.2837L101.314 45.7739C102.664 45.351 103.431 43.8967 103.011 42.5341Z" fill="#FDDADD"/>
<path d="M103.01 42.5341L98.4199 27.6652C97.7539 25.4992 94.6887 25.2309 93.6586 27.2576L91.0621 32.2566C84.7854 28.7292 78.2821 25.5442 71.4002 23.642C70.0594 23.23 68.7309 22.8637 67.4234 22.5529C62.3829 21.2408 57.3265 20.2573 52.2006 19.7455C51.668 19.6311 51.0551 19.6056 50.5044 19.6062C49.8191 19.5389 49.1925 19.4619 48.5073 19.3946L50.8388 26.9539C51.5241 27.0213 52.2354 27.1857 52.883 27.3182C58.2983 28.4075 63.5341 29.9917 68.5311 31.8726C69.212 32.1064 69.8414 32.354 70.5484 32.6848C76.1567 34.9283 81.3603 38.0147 86.3556 41.3284L83.6215 46.5907C82.5415 48.6368 84.4753 50.9651 86.6912 50.2795L101.306 45.7697C102.663 45.351 103.43 43.8967 103.01 42.5341Z" fill="#FDDADD"/>
</svg>
