<svg width="353" height="199" viewBox="0 0 353 199" fill="none" xmlns="http://www.w3.org/2000/svg">
<rect width="353" height="198.562" fill="white"/>
<g clip-path="url(#clip0_113:2)">
<path d="M175.476 175.607C100.82 175.607 40.3001 173.224 40.3001 170.284C40.3001 167.344 100.82 164.96 175.476 164.96C250.132 164.96 310.652 167.344 310.652 170.284C310.652 173.224 250.132 175.607 175.476 175.607Z" fill="#EBEBED"/>
<path d="M105.598 68.885C112.267 68.885 117.682 63.4783 117.682 56.8014C117.682 50.1245 112.275 44.7178 105.598 44.7178V68.885Z" fill="#333846"/>
<path d="M103.576 68.885H105.598V44.7262H103.576C102.456 44.7262 101.554 45.6287 101.554 46.7485V66.8627C101.554 67.9825 102.456 68.885 103.576 68.885Z" fill="#CCCDD1"/>
<path d="M82.3002 99.7625C66.4394 99.7625 53.5369 112.665 53.5369 128.526C53.5369 144.387 66.4394 157.289 82.3002 157.289C98.161 157.289 111.063 144.387 111.063 128.526C111.063 112.665 98.161 99.7625 82.3002 99.7625ZM82.3002 86.5257C105.498 86.5257 124.3 105.328 124.3 128.526C124.3 151.724 105.498 170.526 82.3002 170.526C59.1023 170.526 40.3001 151.724 40.3001 128.526C40.3001 105.328 59.1023 86.5257 82.3002 86.5257Z" fill="#333846"/>
<path d="M82.3002 103.214C68.3447 103.214 56.9881 114.57 56.9881 128.526C56.9881 142.481 68.3447 153.838 82.3002 153.838C96.2556 153.838 107.612 142.481 107.612 128.526C107.612 114.57 96.2556 103.214 82.3002 103.214ZM82.3002 99.7625C98.1609 99.7625 111.063 112.665 111.063 128.526C111.063 144.387 98.1609 157.289 82.3002 157.289C66.4394 157.289 53.5369 144.387 53.5369 128.526C53.5369 112.665 66.4394 99.7625 82.3002 99.7625Z" fill="#333846"/>
<path d="M82.9217 103.501L83.4209 103.789L72.7765 122.201L72.2774 121.912L82.9217 103.501Z" fill="#1A1A1A"/>
<path d="M78.1048 103.504L88.7449 121.917L88.2456 122.206L77.6055 103.792L78.1048 103.504Z" fill="#1A1A1A"/>
<path d="M98.8448 109.747L99.0417 110.289L79.0525 117.552L78.8555 117.01L98.8448 109.747Z" fill="#1A1A1A"/>
<path d="M94.5906 106.545L95.1584 106.645L91.477 127.591L90.9092 127.491L94.5906 106.545Z" fill="#1A1A1A"/>
<path d="M87.076 117.5L107.061 124.771L106.864 125.313L86.8789 118.042L87.076 117.5Z" fill="#1A1A1A"/>
<path d="M105.826 119.581L106.197 120.023L89.9125 133.704L89.5416 133.263L105.826 119.581Z" fill="#1A1A1A"/>
<path d="M93.0405 123.143L103.664 141.567L103.164 141.855L92.541 123.431L93.0405 123.143Z" fill="#1A1A1A"/>
<path d="M84.8072 136.824H106.075V137.401H84.8072V136.824Z" fill="#1A1A1A"/>
<path d="M93.42 131.206L93.9878 131.306L90.283 152.248L89.7152 152.148L93.42 131.206Z" fill="#1A1A1A"/>
<path d="M78.8805 136.49L95.1714 150.162L94.8007 150.604L78.5098 136.931L78.8805 136.49Z" fill="#1A1A1A"/>
<path d="M89.1055 137.721L89.4758 138.163L73.1764 151.823L72.8061 151.381L89.1055 137.721Z" fill="#1A1A1A"/>
<path d="M74.5555 132.426L78.2539 153.371L77.6861 153.471L73.9877 132.527L74.5555 132.426Z" fill="#1A1A1A"/>
<path d="M60.3224 139.933H81.5898V140.509H60.3224V139.933Z" fill="#1A1A1A"/>
<path d="M73.3626 126.254L73.8621 126.542L63.239 144.966L62.7395 144.678L73.3626 126.254Z" fill="#1A1A1A"/>
<path d="M58.1234 123.131L74.4143 136.803L74.0436 137.245L57.7527 123.572L58.1234 123.131Z" fill="#1A1A1A"/>
<path d="M76.8964 121.037L77.094 121.579L57.1132 128.865L56.9157 128.323L76.8964 121.037Z" fill="#1A1A1A"/>
<path d="M67.2344 108.853L70.9329 129.797L70.365 129.897L66.6666 108.953L67.2344 108.853Z" fill="#1A1A1A"/>
<path d="M63.0018 112.051L82.9868 119.323L82.7897 119.865L62.8046 112.593L63.0018 112.051Z" fill="#1A1A1A"/>
<path d="M86.0928 103.819L86.551 104.169L73.6395 121.07L73.1813 120.72L86.0928 103.819Z" fill="#1A1A1A"/>
<path d="M81.3196 103.203L89.5288 122.822L88.9969 123.045L80.7876 103.425L81.3196 103.203Z" fill="#1A1A1A"/>
<path d="M101.111 112.065L101.237 112.628L80.4845 117.277L80.3585 116.714L101.111 112.065Z" fill="#1A1A1A"/>
<path d="M97.3074 108.35L97.8579 108.522L91.5308 128.826L90.9804 128.654L97.3074 108.35Z" fill="#1A1A1A"/>
<path d="M107.061 128.526L107.32 128.016L88.4423 118.239L88.1749 118.749L107.061 128.526Z" fill="#1A1A1A"/>
<path d="M106.793 122.715L107.104 123.2L89.2053 134.687L88.8939 134.201L106.793 122.715Z" fill="#1A1A1A"/>
<path d="M93.6354 124.611L101.813 144.243L101.28 144.465L93.1031 124.833L93.6354 124.611Z" fill="#1A1A1A"/>
<path d="M83.731 137.125L104.826 139.824L104.753 140.396L83.6578 137.697L83.731 137.125Z" fill="#1A1A1A"/>
<path d="M92.9824 132.659L93.5327 132.831L87.1822 153.129L86.6319 152.957L92.9824 132.659Z" fill="#1A1A1A"/>
<path d="M77.8828 136.03L92.3064 151.66L91.8826 152.051L77.4591 136.421L77.8828 136.03Z" fill="#1A1A1A"/>
<path d="M87.8696 138.566L88.1804 139.051L70.269 150.517L69.9581 150.031L87.8696 138.566Z" fill="#1A1A1A"/>
<path d="M74.1199 131.453L75.1177 152.697L74.5417 152.724L73.544 131.48L74.1199 131.453Z" fill="#1A1A1A"/>
<path d="M59.0402 137.076L80.1311 139.815L80.0568 140.387L58.9659 137.647L59.0402 137.076Z" fill="#1A1A1A"/>
<path d="M73.7181 125.176L74.1768 125.525L61.2865 142.441L60.8279 142.092L73.7181 125.176Z" fill="#1A1A1A"/>
<path d="M59.0244 120.121L73.4268 135.769L73.0025 136.16L58.6002 120.511L59.0244 120.121Z" fill="#1A1A1A"/>
<path d="M77.8958 120.447L78.0225 121.01L57.2739 125.682L57.1472 125.12L77.8958 120.447Z" fill="#1A1A1A"/>
<path d="M69.8965 107.135L70.8525 128.381L70.2765 128.407L69.3204 107.161L69.8965 107.135Z" fill="#1A1A1A"/>
<path d="M65.2491 109.763L84.1453 119.522L83.8807 120.035L64.9845 110.275L65.2491 109.763Z" fill="#1A1A1A"/>
<path d="M82.3002 112.866C73.6261 112.866 66.5732 119.919 66.5732 128.593C66.5732 137.267 73.6261 144.32 82.3002 144.32C90.9743 144.32 98.0273 137.267 98.0273 128.593C98.0273 119.919 90.9743 112.866 82.3002 112.866ZM82.3002 107.116C94.1415 107.116 103.777 116.751 103.777 128.593C103.777 140.434 94.1415 150.069 82.3002 150.069C70.459 150.069 60.8238 140.434 60.8238 128.593C60.8238 116.751 70.459 107.116 82.3002 107.116Z" fill="#CCCDD1"/>
<path d="M75.2488 135.65C71.3522 131.753 71.3522 125.436 75.2488 121.539C79.1453 117.642 85.4628 117.642 89.3593 121.539C93.2558 125.436 93.2558 131.753 89.3593 135.65C85.4628 139.546 79.1453 139.546 75.2488 135.65Z" fill="#333846"/>
<path fill-rule="evenodd" clip-rule="evenodd" d="M150.927 136.755L152.947 142.256L208.977 144.529L211.773 138.211H213.122L239.805 81.3614C240.206 80.509 239.838 79.4811 238.986 79.08C238.125 78.6789 237.106 79.0466 236.705 79.899L236.499 80.337L193.25 75.7875L141.749 73.1134C140.968 74.1713 140.288 75.0925 139.67 75.9293C137.061 79.462 135.563 81.4917 132.272 85.9575L132.805 87.407L126.974 72.0271C126.64 71.1413 125.646 70.6984 124.76 71.0326C123.874 71.3669 123.431 72.3613 123.766 73.2471L145.484 130.54C146.512 133.24 148.481 135.419 150.927 136.755Z" fill="#333846"/>
<path d="M117.222 98.9937C117.222 98.9937 112.701 92.8516 103.776 88.2472C94.86 83.6511 86.9714 83.2416 86.9714 83.2416C86.9714 83.2416 87.3224 85.1135 88.9603 86.5174C90.5898 87.9296 93.899 88.1887 100.091 91.1135C106.283 94.0383 111.64 98.4756 111.64 98.4756C111.64 98.4756 111.013 98.4171 113.579 98.9937C116.144 99.5703 117.222 98.9937 117.222 98.9937Z" fill="#007FFF"/>
<path d="M122.319 42.5622L126.403 44.6146L83.6404 129.711L79.5562 127.659L122.319 42.5622Z" fill="#CCCDD1"/>
<path d="M83.7376 133.306C83.7376 133.306 89.161 122.451 94.5928 111.587C97.3087 106.155 100.016 100.732 102.055 96.6539C102.147 96.5369 102.105 96.3614 102.164 96.2361C102.247 96.1191 102.356 96.0188 102.448 95.9185C102.657 95.718 102.883 95.5341 103.1 95.3503C103.543 94.9909 103.869 94.6065 104.103 94.2054C104.621 93.4283 105.022 92.7347 105.339 92.1497C105.974 90.9798 106.217 90.2528 106.217 90.2528L97.8519 86.0327C97.8519 86.0327 97.409 86.6594 96.8491 87.8628C96.565 88.4644 96.2474 89.2082 95.9299 90.0856C95.746 90.5118 95.629 91.0048 95.604 91.5731C95.5872 91.8572 95.5789 92.1497 95.5371 92.4338C95.512 92.5759 95.4953 92.7179 95.4535 92.8516C95.3867 92.9686 95.2195 93.0438 95.1778 93.1859C93.1137 97.2388 90.3644 102.654 87.6067 108.061C82.0997 118.882 76.6011 129.696 76.6011 129.696L83.7376 133.306Z" fill="#CCCDD1"/>
<path d="M270.289 114.88C262.727 114.88 256.576 121.03 256.576 128.593C256.576 136.155 262.727 142.306 270.289 142.306C277.852 142.306 284.003 136.155 284.003 128.593C284.003 121.03 277.852 114.88 270.289 114.88ZM270.289 109.857C280.618 109.857 289.025 118.264 289.025 128.593C289.025 138.921 280.618 147.328 270.289 147.328C259.961 147.328 251.554 138.921 251.554 128.593C251.554 118.264 259.961 109.857 270.289 109.857Z" fill="#C3C4C0"/>
<path fill-rule="evenodd" clip-rule="evenodd" d="M299.763 128.526C299.772 112.665 286.861 99.7625 271 99.7625C286.861 99.7625 299.763 112.665 299.763 128.526ZM313 128.526C313 105.328 294.198 86.5257 271 86.5257C247.81 86.5257 229 105.328 229 128.526C229 151.724 247.802 170.526 271 170.526C294.198 170.526 313 151.724 313 128.526ZM245.688 128.526C245.688 114.57 257.044 103.214 271 103.214C284.964 103.214 296.312 114.57 296.312 128.526C296.312 142.481 284.955 153.838 271 153.838C257.044 153.838 245.688 142.481 245.688 128.526Z" fill="#333846"/>
<path d="M271.615 103.499L272.115 103.788L261.47 122.199L260.971 121.91L271.615 103.499Z" fill="#1A1A1A"/>
<path d="M266.797 103.497L277.437 121.911L276.938 122.199L266.297 103.786L266.797 103.497Z" fill="#1A1A1A"/>
<path d="M287.553 109.755L287.75 110.297L267.761 117.56L267.564 117.018L287.553 109.755Z" fill="#1A1A1A"/>
<path d="M283.289 106.548L283.857 106.648L280.176 127.594L279.608 127.494L283.289 106.548Z" fill="#1A1A1A"/>
<path d="M275.769 117.499L295.754 124.771L295.557 125.313L275.572 118.041L275.769 117.499Z" fill="#1A1A1A"/>
<path d="M294.541 119.594L294.912 120.036L278.628 133.717L278.257 133.276L294.541 119.594Z" fill="#1A1A1A"/>
<path d="M281.746 123.145L292.369 141.569L291.869 141.857L281.246 123.433L281.746 123.145Z" fill="#1A1A1A"/>
<path d="M273.507 136.824H294.774V137.401H273.507V136.824Z" fill="#1A1A1A"/>
<path d="M282.127 131.204L282.694 131.304L278.99 152.246L278.422 152.146L282.127 131.204Z" fill="#1A1A1A"/>
<path d="M267.587 136.492L283.878 150.165L283.507 150.606L267.217 136.933L267.587 136.492Z" fill="#1A1A1A"/>
<path d="M277.803 137.722L278.173 138.164L261.874 151.824L261.504 151.382L277.803 137.722Z" fill="#1A1A1A"/>
<path d="M263.256 132.431L266.955 153.375L266.387 153.476L262.688 132.531L263.256 132.431Z" fill="#1A1A1A"/>
<path d="M249.022 139.933H270.29V140.509H249.022V139.933Z" fill="#1A1A1A"/>
<path d="M262.058 126.256L262.557 126.544L251.934 144.968L251.435 144.68L262.058 126.256Z" fill="#1A1A1A"/>
<path d="M246.828 123.136L263.118 136.809L262.748 137.25L246.457 123.577L246.828 123.136Z" fill="#1A1A1A"/>
<path d="M265.606 121.044L265.804 121.586L245.823 128.872L245.625 128.33L265.606 121.044Z" fill="#1A1A1A"/>
<path d="M255.938 108.857L259.636 129.801L259.068 129.902L255.37 108.957L255.938 108.857Z" fill="#1A1A1A"/>
<path d="M251.695 112.051L271.68 119.322L271.483 119.864L251.498 112.593L251.695 112.051Z" fill="#1A1A1A"/>
<path d="M274.8 103.826L275.259 104.176L262.347 121.078L261.889 120.727L274.8 103.826Z" fill="#1A1A1A"/>
<path d="M270.023 103.209L278.232 122.828L277.7 123.051L269.491 103.432L270.023 103.209Z" fill="#1A1A1A"/>
<path d="M289.818 112.059L289.944 112.621L269.191 117.271L269.065 116.708L289.818 112.059Z" fill="#1A1A1A"/>
<path d="M286.006 108.34L286.557 108.512L280.23 128.816L279.679 128.645L286.006 108.34Z" fill="#1A1A1A"/>
<path d="M295.76 128.526L296.028 128.016L277.142 118.239L276.875 118.749L295.76 128.526Z" fill="#1A1A1A"/>
<path d="M295.494 122.712L295.805 123.198L277.906 134.684L277.595 134.199L295.494 122.712Z" fill="#1A1A1A"/>
<path d="M282.343 124.602L290.52 144.234L289.988 144.456L281.81 124.824L282.343 124.602Z" fill="#1A1A1A"/>
<path d="M272.428 137.122L293.523 139.821L293.45 140.393L272.355 137.694L272.428 137.122Z" fill="#1A1A1A"/>
<path d="M281.689 132.649L282.24 132.821L275.889 153.119L275.339 152.947L281.689 132.649Z" fill="#1A1A1A"/>
<path d="M266.589 136.037L281.013 151.666L280.589 152.057L266.166 136.428L266.589 136.037Z" fill="#1A1A1A"/>
<path d="M276.568 138.557L276.879 139.043L258.968 150.508L258.657 150.023L276.568 138.557Z" fill="#1A1A1A"/>
<path d="M262.822 131.451L263.82 152.695L263.244 152.722L262.246 131.478L262.822 131.451Z" fill="#1A1A1A"/>
<path d="M247.747 137.067L268.838 139.806L268.763 140.378L247.672 137.639L247.747 137.067Z" fill="#1A1A1A"/>
<path d="M262.422 125.173L262.88 125.522L249.99 142.438L249.532 142.089L262.422 125.173Z" fill="#1A1A1A"/>
<path d="M247.722 120.122L262.124 135.771L261.7 136.161L247.297 120.513L247.722 120.122Z" fill="#1A1A1A"/>
<path d="M266.6 120.451L266.727 121.013L245.978 125.686L245.852 125.123L266.6 120.451Z" fill="#1A1A1A"/>
<path d="M258.598 107.135L259.554 128.381L258.978 128.407L258.022 107.161L258.598 107.135Z" fill="#1A1A1A"/>
<path d="M253.951 109.763L272.847 119.523L272.582 120.035L253.686 110.275L253.951 109.763Z" fill="#1A1A1A"/>
<path d="M271 125.651C269.412 125.651 268.125 126.938 268.125 128.526C268.125 130.114 269.412 131.401 271 131.401C272.588 131.401 273.875 130.114 273.875 128.526C273.883 126.938 272.588 125.651 271 125.651ZM271 113.568C279.248 113.568 285.958 120.278 285.958 128.526C285.958 136.774 279.248 143.484 271 143.484C262.752 143.484 256.042 136.774 256.042 128.526C256.042 120.278 262.752 113.568 271 113.568Z" fill="#CCCCCC"/>
<path d="M219.006 118.651L277.14 124.44L276.285 133.03L218.15 127.242L219.006 118.651Z" fill="#333846"/>
<path d="M269.696 144.437C274.251 144.437 284.964 143.108 286.652 130.866C287.228 126.696 286.393 123.119 284.161 120.244C279.941 114.796 272.287 113.843 271.961 113.81L271.902 113.802H271.844L221.88 115.097L221.922 116.818L271.819 115.523C272.496 115.615 279.214 116.651 282.799 121.297C284.721 123.788 285.44 126.93 284.93 130.615C283.058 144.186 269.103 142.765 267.925 142.623L215.88 127.816L215.412 129.478L267.582 144.328L267.64 144.336C267.682 144.345 268.468 144.437 269.696 144.437Z" fill="#333846"/>
<path d="M282.072 72.002C282.072 72.002 283.109 70.7987 283.109 69.2443C283.109 67.69 282.072 66.3446 282.072 66.3446V72.002Z" fill="#DE443A"/>
<path fill-rule="evenodd" clip-rule="evenodd" d="M282.072 72.8126H280.576V65.6761H282.072V66.3446V72.8126ZM278.788 72.3335C279.314 72.6382 279.925 72.8126 280.576 72.8126V65.6761C278.604 65.6761 277.008 67.2722 277.008 69.2443H277.008V74.9268H278.788V72.3335Z" fill="#333846"/>
<path d="M150.381 92.25H177.799V85.5229C177.799 81.3112 174.39 77.9017 170.178 77.9017H158.002C153.791 77.9017 150.381 81.3112 150.381 85.5229V92.25Z" fill="#CCCDD1"/>
<path d="M271 73.7318C271 73.7318 274.2 73.8237 278.78 74.9268C283.368 76.0299 285.657 77.1831 285.657 77.1831C285.657 77.1831 284.37 79.055 282.072 79.055C279.774 79.055 271.952 78.3363 267.666 79.055C263.379 79.7736 258.699 80.509 254.713 81.8711C250.727 83.2332 249.03 80.2583 249.03 80.2583L247.718 77.1914C247.718 77.1914 258.657 74.0912 261.691 73.7402C264.716 73.3808 271 73.7318 271 73.7318Z" fill="#CCCCCC"/>
<path d="M254.713 79.3224L255.674 82.2221C255.674 82.2221 250.15 82.782 243.966 86.5257C237.782 90.2695 229.008 101.776 229.008 101.776L239.638 80.3084L254.713 79.3224Z" fill="#333846"/>
<path d="M134.219 54.6705L130.643 53.0994L131.896 50.5173L119.855 44.2248L118.4 46.9741L125.42 50.6426L115.091 72.7207L108.022 69.3948L106.827 72.1441L119.219 77.9017L122.144 72.1441L139.927 77.9017L135.707 57.754L134.219 54.6705Z" fill="#333846"/>
<path d="M132.816 72.9045C134.93 76.5647 139.935 77.9185 139.935 77.9185H196.476C196.476 77.9185 197.454 74.0744 196.476 69.6622C195.908 67.0466 194.896 64.6482 192.13 61.9073C191.437 61.2137 190.676 60.5201 189.766 59.7931C188.094 58.4727 186.047 57.0521 183.465 55.4727C173.662 49.5145 159.857 47.4086 149.144 47.5925C145.392 47.6593 142.309 48.729 139.843 50.1496C139.058 50.5591 138.331 51.0354 137.671 51.5368C134.453 53.8683 132.816 56.4254 132.816 56.4254C132.816 56.4254 130.735 69.2778 132.816 72.9045Z" fill="#007FFF"/>
<path d="M196.919 127.715C189.295 127.715 183.114 123.985 183.114 119.384C183.114 114.782 189.295 111.052 196.919 111.052C204.543 111.052 210.724 114.782 210.724 119.384C210.724 123.985 204.543 127.715 196.919 127.715Z" fill="#CCCDD1"/>
<path d="M177.716 112.991L177.139 112.74C176.011 112.247 174.782 111.997 173.554 111.997H159.456C157.025 111.997 154.702 112.983 153.005 114.721L152.938 114.788C150.699 117.086 149.855 120.395 150.715 123.487L151.601 126.679C152.17 128.735 153.456 130.515 155.22 131.71L162.105 136.389C163.601 137.401 165.365 137.944 167.17 137.944H168.406C170.395 137.944 172.334 137.284 173.905 136.072L178.919 132.203C179.554 131.71 180.122 131.141 180.607 130.498L181.743 128.985C183.264 126.972 183.874 124.406 183.415 121.924L182.989 119.609C182.445 116.676 180.465 114.186 177.716 112.991Z" fill="#CCCDD1"/>
<path d="M177.799 92.25H151.961L156.799 111.997H175.417L177.799 92.25Z" fill="#858890"/>
<path fill-rule="evenodd" clip-rule="evenodd" d="M193.233 87.2317L192.628 83.256L184.524 84.4881L185.11 88.3443L177.422 89.3973L178.204 95.1014L185.976 94.0369L186.383 96.7149L194.487 95.4827L194.098 92.9243L197.7 92.4309L196.919 86.7268L193.233 87.2317Z" fill="#CCCDD1"/>
<path d="M246.502 81.8509L264.739 120.528L263.182 121.262L244.945 82.5851L246.502 81.8509Z" fill="#5C606B"/>
<path d="M257.297 101.079L264.867 118.034L260.694 119.897L253.123 102.943L257.297 101.079Z" fill="#333846"/>
<path d="M244.09 84.6695C243.079 83.6579 243.079 82.0176 244.09 81.006C245.102 79.9943 246.742 79.9943 247.754 81.006C248.766 82.0176 248.766 83.6579 247.754 84.6695C246.742 85.6812 245.102 85.6812 244.09 84.6695Z" fill="#B0B1AC"/>
<path d="M262.127 122.727C261.115 121.716 261.115 120.075 262.127 119.064C263.138 118.052 264.779 118.052 265.79 119.064C266.802 120.075 266.802 121.716 265.79 122.727C264.779 123.739 263.138 123.739 262.127 122.727Z" fill="#B0B1AC"/>
<path d="M251.865 82.9079L253.74 86.8833L244.376 91.3012L242.501 87.3259L251.865 82.9079Z" fill="#333846"/>
<path d="M264.966 110.927L266.842 114.902L257.478 119.32L255.602 115.345L264.966 110.927Z" fill="#333846"/>
<path d="M256.393 114.512C256.434 114.512 256.476 114.504 256.526 114.495L264.097 112.732C264.406 112.657 264.599 112.348 264.523 112.038C264.448 111.729 264.139 111.537 263.83 111.612L256.259 113.375C255.95 113.451 255.757 113.76 255.833 114.069C255.891 114.336 256.133 114.512 256.393 114.512Z" fill="#333846"/>
<path d="M255.206 111.946C255.248 111.946 255.29 111.938 255.34 111.93L262.911 110.166C263.22 110.091 263.412 109.782 263.337 109.473C263.262 109.164 262.953 108.971 262.643 109.047L255.072 110.81C254.763 110.885 254.571 111.194 254.646 111.504C254.705 111.771 254.947 111.946 255.206 111.946Z" fill="#333846"/>
<path d="M254.019 109.381C254.061 109.381 254.103 109.373 254.153 109.364L261.724 107.601C262.033 107.526 262.225 107.217 262.15 106.907C262.075 106.598 261.774 106.398 261.457 106.481L253.886 108.244C253.576 108.32 253.384 108.629 253.459 108.938C253.526 109.197 253.76 109.381 254.019 109.381Z" fill="#333846"/>
<path d="M252.833 106.815C252.875 106.815 252.916 106.807 252.966 106.799L260.537 105.036C260.847 104.96 261.039 104.651 260.964 104.342C260.888 104.033 260.579 103.841 260.27 103.916L252.699 105.679C252.39 105.754 252.198 106.063 252.273 106.373C252.34 106.632 252.574 106.815 252.833 106.815Z" fill="#333846"/>
<path d="M251.646 104.25C251.688 104.25 251.73 104.242 251.78 104.233L259.351 102.478C259.66 102.403 259.852 102.094 259.777 101.785C259.71 101.476 259.393 101.275 259.083 101.359L251.512 103.122C251.203 103.197 251.011 103.506 251.086 103.815C251.153 104.066 251.387 104.25 251.646 104.25Z" fill="#333846"/>
<path d="M250.468 101.685C250.51 101.685 250.551 101.676 250.601 101.668L258.172 99.9046C258.482 99.8294 258.674 99.5202 258.599 99.211C258.523 98.9018 258.214 98.7096 257.905 98.7848L250.334 100.548C250.025 100.623 249.833 100.932 249.908 101.242C249.966 101.501 250.2 101.685 250.468 101.685Z" fill="#333846"/>
<path d="M249.281 99.1191C249.323 99.1191 249.365 99.1107 249.415 99.1024L256.986 97.3391C257.295 97.2639 257.487 96.9547 257.412 96.6455C257.337 96.3363 257.036 96.1358 256.719 96.2194L249.148 97.9826C248.838 98.0578 248.646 98.367 248.721 98.6762C248.78 98.9352 249.022 99.1191 249.281 99.1191Z" fill="#333846"/>
<path d="M248.094 96.5536C248.136 96.5536 248.178 96.5452 248.228 96.5369L255.799 94.7737C256.108 94.6984 256.301 94.3893 256.225 94.0801C256.15 93.7709 255.841 93.5703 255.532 93.6539L247.961 95.4171C247.652 95.4923 247.459 95.8015 247.535 96.1107C247.593 96.3698 247.835 96.5536 248.094 96.5536Z" fill="#333846"/>
<path d="M246.908 93.9881C246.95 93.9881 246.991 93.9798 247.042 93.9714L254.613 92.2082C254.922 92.133 255.114 91.8238 255.039 91.5146C254.964 91.2054 254.654 91.0132 254.345 91.0884L246.774 92.8516C246.465 92.9269 246.273 93.236 246.348 93.5452C246.415 93.8043 246.649 93.9881 246.908 93.9881Z" fill="#333846"/>
<path d="M245.721 91.4227C245.763 91.4227 245.805 91.4143 245.855 91.406L253.426 89.6427C253.735 89.5675 253.927 89.2583 253.852 88.9491C253.777 88.6399 253.468 88.4394 253.159 88.523L245.587 90.2862C245.278 90.3614 245.086 90.6706 245.161 90.9798C245.228 91.2388 245.462 91.4227 245.721 91.4227Z" fill="#333846"/>
<path d="M127.075 38.7763L133.793 42.2276L131.897 44.7262L127.844 47.5925L125.42 46.4142V41.6593L127.075 38.7763Z" fill="#CCCDD1"/>
<path d="M128.228 45.1941C129.147 45.1941 129.983 44.559 130.192 43.6147C131.094 39.5869 132.866 35.3752 133.877 34.8403C134.972 34.8487 135.59 34.949 135.899 35.0242L135.949 35.1245L149.545 41.3752C150.557 41.8431 151.752 41.3919 152.211 40.3891C152.679 39.378 152.228 38.183 151.225 37.7234L138.598 31.9155C137.245 30.8208 134.729 30.8208 133.793 30.8208C129.548 30.8208 127.258 38.2916 126.264 42.7457C126.022 43.832 126.707 44.91 127.793 45.144C127.935 45.1858 128.086 45.1941 128.228 45.1941Z" fill="#333846"/>
<path d="M144.164 47.8599C144.381 47.8599 144.607 47.7763 144.774 47.6092L145.743 46.6398L145.492 46.0966C145.417 45.9379 143.671 42.1523 141.247 40.1384C139.016 38.2749 134.37 37.3724 133.392 37.1969L131.646 36.0855L134.186 31.6732C134.42 31.2637 134.278 30.7289 133.868 30.4949C133.459 30.2609 132.924 30.403 132.69 30.8125L129.331 36.6537L132.765 38.8431L132.941 38.8682C132.991 38.8766 138.055 39.7206 140.153 41.4671C141.782 42.8209 143.128 45.2276 143.671 46.2888L143.562 46.3975C143.228 46.7317 143.228 47.2833 143.562 47.6175C143.721 47.7763 143.946 47.8599 144.164 47.8599Z" fill="#D6D7DA"/>
<path d="M137.245 37.1635C135.278 37.1635 133.685 35.5696 133.685 33.6036C133.685 31.6375 135.278 30.0437 137.245 30.0437C139.211 30.0437 140.804 31.6375 140.804 33.6036C140.804 35.5696 139.211 37.1635 137.245 37.1635Z" fill="#333846"/>
<path d="M151.986 42.7122C152.972 42.7122 153.916 42.144 154.351 41.183C154.936 39.8794 154.351 38.3501 153.047 37.7652L138.498 31.247C137.195 30.6621 135.665 31.247 135.08 32.5507C134.495 33.8543 135.08 35.3835 136.384 35.9685L150.933 42.4866C151.267 42.637 151.626 42.7122 151.986 42.7122Z" fill="#333846"/>
<path d="M152.403 42.144C151.287 42.144 150.381 41.2386 150.381 40.1217C150.381 39.0048 151.287 38.0994 152.403 38.0994C153.52 38.0994 154.426 39.0048 154.426 40.1217C154.426 41.2386 153.52 42.144 152.403 42.144Z" fill="#858890"/>
<path fill-rule="evenodd" clip-rule="evenodd" d="M137.637 23.8932H129.941V25.4726L130.342 25.4726V30.9128H137.245V25.4726L137.637 25.4726V23.8932Z" fill="#333846"/>
<path fill-rule="evenodd" clip-rule="evenodd" d="M123.007 41.016L115.473 36.3408L114.513 37.8887L114.898 38.1279L111.594 43.4519L118.354 47.6468L121.658 42.3228L122.046 42.5639L123.007 41.016Z" fill="#333846"/>
<path fill-rule="evenodd" clip-rule="evenodd" d="M197.796 69.9212V69.7457L199.092 68.8349C199.092 68.8349 219.223 69.6956 227.136 69.6956C236.844 69.6956 247.437 67.9292 252.785 67.0376L252.785 67.0376C253.537 66.9122 254.185 66.8041 254.713 66.7207C256.804 66.394 257.891 65.9974 258.907 65.6266C259.971 65.2386 260.957 64.8788 262.936 64.6566C266.805 64.222 266.688 64.6566 266.688 64.6566L268.5 66.7207L268.406 66.7506L270.971 69.964C272.31 68.8959 273.167 68.1214 273.189 68.0995C273.891 67.4644 274.978 67.5145 275.613 68.2165C276.248 68.9184 276.198 70.0048 275.496 70.6399C275.237 70.8822 268.969 76.5396 263.17 78.821C257.446 81.0689 249.532 81.9213 249.198 81.9547L194.186 83.9185H194.128C193.209 83.9185 192.448 83.1915 192.415 82.2722C192.381 81.3279 193.125 80.5341 194.069 80.5006L201.134 80.2487C200.26 80.2457 199.641 80.2285 199.234 80.1998C197.22 80.0577 197.796 78.47 197.796 78.47L197.796 69.9212Z" fill="#333846"/>
<path d="M197.303 82.9408C197.303 82.9408 197.646 98.0912 200.52 100.581C203.395 103.072 204.933 102.604 204.933 102.604H222.573C222.573 102.604 225.833 102.111 227.178 100.774C228.523 99.4283 230.629 93.8712 231.975 90.9965C233.32 88.1218 233.98 84.2862 233.98 84.2862C233.98 84.2862 234.273 83.4254 232.835 82.4644C231.398 81.5034 225.448 81.9881 225.448 81.9881C225.448 81.9881 215.287 82.4644 213.657 82.5647C212.027 82.665 199.944 83.041 198.983 82.6566C198.022 82.2722 197.303 82.3725 197.303 82.3725V82.9408Z" fill="#5C606B"/>
<path d="M280.284 110.342C280.284 110.342 280.017 110.2 279.557 110.041C279.089 109.874 278.412 109.682 277.601 109.598C276.791 109.515 275.822 109.515 274.777 109.732C273.724 109.924 272.621 110.451 271.376 110.985C268.877 112.055 265.861 113.375 262.409 114.938C260.688 115.732 258.858 116.568 256.927 117.453C255.005 118.373 252.991 119.334 250.886 120.336C246.682 122.367 242.153 124.623 237.373 127.038C232.593 129.445 227.546 131.969 222.306 134.551C219.682 135.821 217.016 137.116 214.309 138.42L213.799 138.662L213.674 138.721C213.891 138.646 213.699 138.713 213.732 138.704L213.665 138.729L213.406 138.838L212.362 139.272C211.793 139.423 211.3 139.665 210.632 139.749C210.005 139.907 209.353 139.916 208.71 139.958C207.991 139.974 207.197 139.966 206.445 139.966C200.337 139.966 194.136 139.974 187.935 139.974C181.735 139.974 175.526 139.974 169.426 139.974C166.376 139.974 163.342 139.974 160.35 139.974C158.855 139.974 157.367 139.974 155.888 139.974H155.612H155.545C155.888 139.991 155.604 139.974 155.662 139.974L155.529 139.966L154.977 139.924L154.426 139.882C154.259 139.866 154.2 139.824 154.083 139.799C153.866 139.724 153.682 139.74 153.423 139.623C153.172 139.523 152.921 139.431 152.671 139.339C151.71 138.871 150.874 138.186 150.222 137.359C150.072 137.141 149.913 136.933 149.763 136.715C149.646 136.481 149.529 136.247 149.412 136.013L149.32 135.838L149.219 135.595L149.011 135.111L148.601 134.141C147.515 131.559 146.453 129.036 145.417 126.587C143.353 121.673 141.389 117.027 139.635 112.724C139.192 111.646 138.757 110.593 138.331 109.565C138.122 109.047 137.913 108.545 137.704 108.036C137.604 107.802 137.286 106.941 137.295 106.774C137.261 106.623 137.219 106.465 137.211 106.264C137.186 106.072 137.161 105.888 137.169 105.696C137.153 105.32 137.194 104.944 137.245 104.584C137.362 103.857 137.621 103.18 137.98 102.587C138.69 101.392 139.743 100.556 140.855 100.147C140.997 100.097 141.139 100.055 141.272 100.005C141.398 99.9547 141.64 99.8962 141.807 99.8461C142.183 99.7375 142.551 99.6372 142.91 99.5285C143.629 99.3196 144.323 99.1274 144.974 98.9436C147.582 98.1915 149.646 97.6483 151.05 97.2556C152.453 96.8795 153.206 96.679 153.206 96.679L151.777 91.9408C151.777 91.9408 151.041 92.1831 149.662 92.6511C148.275 93.094 146.261 93.7792 143.671 94.5982C143.027 94.8071 142.342 95.016 141.632 95.25C141.272 95.367 140.905 95.4756 140.537 95.601C140.336 95.6678 140.194 95.7012 139.944 95.7932C139.701 95.8851 139.467 95.9686 139.217 96.0606C137.295 96.8544 135.44 98.3419 134.245 100.431C133.033 102.52 132.523 105.127 133.175 107.868L133.309 108.412L133.442 108.796L133.576 109.18L133.693 109.473L133.768 109.665C133.969 110.166 134.178 110.676 134.387 111.194C134.804 112.222 135.231 113.283 135.665 114.361C137.42 118.673 139.275 123.353 141.239 128.309C142.217 130.79 143.228 133.331 144.256 135.938L144.64 136.916L144.832 137.409L144.933 137.651L145.075 137.944L145.668 139.147C145.902 139.531 146.169 139.891 146.428 140.267C147.523 141.704 148.944 142.899 150.598 143.718L151.885 144.228C152.295 144.403 152.855 144.495 153.339 144.612C153.582 144.662 153.866 144.729 154.066 144.754L154.618 144.796L155.169 144.838L155.303 144.846C155.412 144.855 155.169 144.846 155.554 144.855H155.621H155.896C157.376 144.855 158.863 144.855 160.359 144.855C163.35 144.855 166.384 144.855 169.434 144.855C175.543 144.855 181.743 144.855 187.944 144.855C194.144 144.855 200.353 144.863 206.454 144.863C207.222 144.863 207.991 144.863 208.76 144.863C209.629 144.838 210.498 144.813 211.367 144.704C212.211 144.637 213.164 144.437 214.066 144.261L215.161 143.969L215.437 143.894L215.504 143.877C215.579 143.852 215.429 143.91 215.688 143.818L215.821 143.777L216.356 143.609C219.222 142.732 222.064 141.863 224.846 141.002C230.437 139.331 235.852 137.751 241 136.256C246.139 134.768 250.994 133.339 255.457 131.969C257.679 131.275 259.819 130.607 261.841 129.972C263.855 129.311 265.769 128.676 267.574 128.091C271.167 126.896 274.276 125.802 276.833 124.891C278.111 124.431 279.273 124.072 280.175 123.495C281.086 122.944 281.796 122.283 282.34 121.673C282.874 121.055 283.242 120.453 283.468 120.01C283.702 119.576 283.794 119.292 283.794 119.292L280.284 110.342Z" fill="#CCCDD1"/>
<path d="M79.5964 128.759C79.3376 127.663 80.0163 126.565 81.1122 126.306C82.2081 126.048 83.3064 126.726 83.5651 127.822C83.8239 128.918 83.1453 130.016 82.0493 130.275C80.9534 130.534 79.8552 129.855 79.5964 128.759Z" fill="#EAEBED"/>
</g>
<defs>
<clipPath id="clip0_113:2">
<rect width="272.7" height="151.714" fill="white" transform="matrix(-1 0 0 1 313 23.8932)"/>
</clipPath>
</defs>
</svg>
