<svg width="36" height="36" viewBox="0 0 36 36" fill="none" xmlns="http://www.w3.org/2000/svg">
<path d="M21.26 8.69H15.05C14.4944 8.68762 13.9615 8.46926 13.564 8.08109C13.1665 7.69292 12.9356 7.16537 12.92 6.61V6.11C12.9229 6.01908 12.9069 5.92854 12.8731 5.84409C12.8393 5.75963 12.7884 5.68307 12.7236 5.61922C12.6588 5.55537 12.5815 5.5056 12.4966 5.47303C12.4116 5.44047 12.3209 5.42582 12.23 5.43H4.53C4.34341 5.41976 4.16785 5.33835 4.03948 5.20255C3.91112 5.06674 3.83972 4.88687 3.84 4.7C3.83867 4.60855 3.85554 4.51775 3.88963 4.43288C3.92371 4.348 3.97432 4.27075 4.03853 4.20562C4.10273 4.14048 4.17925 4.08876 4.26362 4.05346C4.34799 4.01816 4.43854 3.99999 4.53 4H12.23C12.7856 4.00238 13.3185 4.22074 13.716 4.60891C14.1135 4.99708 14.3444 5.52463 14.36 6.08V6.58C14.3571 6.67092 14.3731 6.76146 14.4069 6.84591C14.4407 6.93037 14.4916 7.00693 14.5564 7.07078C14.6212 7.13464 14.6985 7.1844 14.7834 7.21697C14.8684 7.24953 14.9591 7.26418 15.05 7.26H21.26C21.3523 7.27128 21.446 7.26292 21.5348 7.23547C21.6237 7.20802 21.7057 7.16211 21.7756 7.10074C21.8454 7.03937 21.9016 6.96392 21.9402 6.87935C21.9789 6.79478 21.9993 6.70299 22 6.61V6.11C22.0075 5.55789 22.2282 5.03005 22.6158 4.63683C23.0034 4.24361 23.5281 4.01543 24.08 4H31.78C31.9596 3.99992 32.1321 4.06987 32.261 4.19497C32.3898 4.32008 32.4648 4.49049 32.47 4.67C32.458 4.84811 32.3812 5.01565 32.2541 5.14095C32.1269 5.26625 31.9583 5.34062 31.78 5.35H24.14C23.9467 5.35705 23.763 5.43564 23.6244 5.57054C23.4858 5.70543 23.4023 5.88699 23.39 6.08V6.58C23.3914 6.85916 23.337 7.13579 23.2302 7.39371C23.1234 7.65163 22.9663 7.88566 22.7679 8.08213C22.5696 8.27859 22.3341 8.43354 22.0752 8.53791C21.8163 8.64229 21.5391 8.69399 21.26 8.69Z" fill="#333846"/>
<path d="M20.76 17H15.91C14.8491 17 13.8317 16.5786 13.0816 15.8284C12.3314 15.0783 11.91 14.0609 11.91 13C11.91 11.9391 12.3314 10.9217 13.0816 10.1716C13.8317 9.42143 14.8491 9 15.91 9H20.76C21.8209 9 22.8383 9.42143 23.5884 10.1716C24.3386 10.9217 24.76 11.9391 24.76 13C24.76 14.0609 24.3386 15.0783 23.5884 15.8284C22.8383 16.5786 21.8209 17 20.76 17Z" fill="#007FFF"/>
<path d="M21.38 30.0999H14.47C13.3993 30.1079 12.369 29.6916 11.6044 28.942C10.8398 28.1924 10.4032 27.1706 10.39 26.0999V22.0599C10.4032 20.9893 10.8398 19.9674 11.6044 19.2178C12.369 18.4682 13.3993 18.0519 14.47 18.0599H21.38C22.4507 18.0519 23.481 18.4682 24.2456 19.2178C25.0102 19.9674 25.4468 20.9893 25.46 22.0599V26.1099C25.4442 27.1788 25.0064 28.1981 24.2421 28.9456C23.4778 29.693 22.449 30.108 21.38 30.0999ZM14.47 19.7599C13.8545 19.7572 13.2628 19.9971 12.8229 20.4276C12.3831 20.8581 12.1305 21.4445 12.12 22.0599V26.1099C12.1305 26.7253 12.3831 27.3118 12.8229 27.7423C13.2628 28.1728 13.8545 28.4126 14.47 28.4099H21.38C21.9955 28.4126 22.5872 28.1728 23.0271 27.7423C23.4669 27.3118 23.7195 26.7253 23.73 26.1099V22.0599C23.7195 21.4445 23.4669 20.8581 23.0271 20.4276C22.5872 19.9971 21.9955 19.7572 21.38 19.7599H14.47Z" fill="#004C98"/>
<path d="M19 33.9999H17.18C16.9712 34.0025 16.7639 33.964 16.57 33.8866C16.3761 33.8091 16.1993 33.6942 16.0498 33.5484C15.9003 33.4026 15.781 33.2288 15.6987 33.0369C15.6163 32.8449 15.5726 32.6387 15.57 32.4299V21.3299C15.5726 21.1211 15.6163 20.9148 15.6987 20.7229C15.781 20.531 15.9003 20.3572 16.0498 20.2114C16.1993 20.0656 16.3761 19.9507 16.57 19.8732C16.7639 19.7958 16.9712 19.7572 17.18 19.7599H19C19.2088 19.7572 19.4161 19.7958 19.61 19.8732C19.8039 19.9507 19.9807 20.0656 20.1302 20.2114C20.2797 20.3572 20.399 20.531 20.4813 20.7229C20.5637 20.9148 20.6074 21.1211 20.61 21.3299V32.4599C20.6074 32.6673 20.5635 32.8722 20.4809 33.0625C20.3982 33.2527 20.2783 33.4246 20.1284 33.568C19.9785 33.7114 19.8015 33.8235 19.6077 33.8976C19.414 33.9718 19.2074 34.0066 19 33.9999Z" fill="#333846"/>
<path d="M18.34 20C17 20 15.84 19.62 15.84 19.18V8.84003C15.84 8.41003 17 8.03003 18.34 8.03003C19.68 8.03003 20.84 8.41003 20.84 8.84003V19.21C20.84 19.65 19.84 20 18.34 20Z" fill="#0066CC"/>
<path d="M18.15 11.56C18.7916 11.5462 19.4149 11.3434 19.9417 10.9769C20.4685 10.6104 20.8754 10.0966 21.1115 9.49983C21.3475 8.90306 21.4022 8.2499 21.2686 7.6222C21.135 6.9945 20.8191 6.42019 20.3606 5.97125C19.902 5.52231 19.3211 5.2187 18.6907 5.09848C18.0603 4.97826 17.4084 5.04678 16.8168 5.29545C16.2252 5.54411 15.7201 5.96187 15.3649 6.49635C15.0097 7.03083 14.8201 7.65827 14.82 8.30002C14.8306 9.17351 15.187 10.0072 15.8112 10.6183C16.4354 11.2294 17.2765 11.568 18.15 11.56Z" fill="#FDCA40"/>
<path d="M21.84 21.2201H14.47C14.4739 20.8016 14.5604 20.3881 14.7245 20.0031C14.8885 19.6181 15.127 19.2693 15.4261 18.9767C15.7252 18.684 16.0792 18.4533 16.4677 18.2977C16.8562 18.1422 17.2716 18.0648 17.69 18.0701H18.56C19.4108 18.0593 20.2318 18.3836 20.8455 18.973C21.4592 19.5623 21.8164 20.3695 21.84 21.2201Z" fill="#007FFF"/>
</svg>
