<svg width="24" height="24" viewBox="0 0 24 24" fill="none" xmlns="http://www.w3.org/2000/svg">
<mask id="mask0_1014_4777" style="mask-type:luminance" maskUnits="userSpaceOnUse" x="2" y="2" width="20" height="20">
<path d="M22 2H2V22H22V2Z" fill="white"/>
</mask>
<g mask="url(#mask0_1014_4777)">
<path d="M20.7471 8.4502H3.20789V19.2274C3.20789 19.9638 3.80484 20.5607 4.54122 20.5607H19.4138C20.1502 20.5607 20.7471 19.9638 20.7471 19.2274V8.4502Z" fill="#007FFF"/>
<path d="M17.3333 12.6667H15.3333C14.5969 12.6667 14 13.2637 14 14.0001V20.6667H18.6667V14.0001C18.6667 13.2637 18.0697 12.6667 17.3333 12.6667Z" fill="#0055AC"/>
<path d="M20.5455 3.43921H3.38672V5.97097H20.5455V3.43921Z" fill="#333846"/>
<path d="M11.4796 12.6262H6.62923C5.89285 12.6262 5.2959 13.2232 5.2959 13.9596V16.3044C5.2959 17.0408 5.89285 17.6378 6.62923 17.6378H11.4796C12.216 17.6378 12.8129 17.0408 12.8129 16.3044V13.9596C12.8129 13.2232 12.216 12.6262 11.4796 12.6262Z" fill="#99CCFF"/>
<path d="M19.6135 11.3737C20.9312 11.3737 22 10.305 22 8.98719C22 8.86025 21.9896 8.73572 21.9706 8.61432L21.9572 8.53919C21.9548 8.52759 21.953 8.51599 21.9511 8.50439L20.5681 5.10962H17.1318L17.7043 10.4191L17.7848 10.5204C18.2231 11.0417 18.8792 11.3737 19.6135 11.3737Z" fill="#007FFF"/>
<path d="M13.6956 5.10962L13.886 10.4191C14.3218 10.9983 15.0151 11.3737 15.7952 11.3737C16.5764 11.3737 17.2686 10.9983 17.7044 10.4191L17.1319 5.10962H13.6956Z" fill="#E5F2FF"/>
<path d="M4.38585 11.3737C3.06812 11.3737 2 10.305 2 8.98719C2 8.86025 2.00973 8.73572 2.02926 8.61432L2.04266 8.53919C2.04449 8.52759 2.04633 8.51599 2.04875 8.50439L3.4318 5.10962H6.86747L6.29435 10.4191L6.21439 10.5204C5.77684 11.0417 5.1201 11.3737 4.38585 11.3737Z" fill="#007FFF"/>
<path d="M10.3038 5.10962L10.1127 10.4191C9.67749 10.9983 8.98476 11.3737 8.20349 11.3737C7.42342 11.3737 6.73009 10.9983 6.29431 10.4191L6.86742 5.10962H10.3038Z" fill="#E5F2FF"/>
<path d="M10.2592 5.10962L10.0687 10.4191C10.5033 10.9983 11.1967 11.3737 11.9773 11.3737C12.7579 11.3737 13.4513 10.9983 13.8859 10.4191L13.6955 5.10962H10.2592Z" fill="#007FFF"/>
<path d="M2.04633 8.51733C2.04512 8.52473 2.04391 8.532 2.04266 8.53933L2.02863 8.6144C2.0091 8.73587 2 8.86033 2 8.98727C2 10.305 3.06812 11.3738 4.38585 11.3738C5.1201 11.3738 5.77684 11.0417 6.21447 10.5205L6.29443 10.4192L6.50014 8.51733H2.04633Z" fill="#0055AC"/>
<path d="M6.50002 8.51733L6.29431 10.4192C6.73009 10.9984 7.42342 11.3738 8.20349 11.3738C8.98476 11.3738 9.67749 10.9984 10.1127 10.4192L10.181 8.51733H6.50002Z" fill="#F2F9FF"/>
<path d="M10.1371 8.51733L10.0687 10.4192C10.5033 10.9984 11.1967 11.3738 11.9773 11.3738C12.7579 11.3738 13.4513 10.9984 13.8859 10.4192L13.8175 8.51733H10.1371Z" fill="#0055AC"/>
<path d="M13.8176 8.51733L13.886 10.4192C14.3218 10.9984 15.0151 11.3738 15.7952 11.3738C16.5764 11.3738 17.2686 10.9984 17.7044 10.4192L17.4992 8.51733H13.8176Z" fill="#F2F9FF"/>
<path d="M21.9707 8.6144L21.9573 8.53927C21.9561 8.53193 21.9543 8.52467 21.9531 8.51733H17.4993L17.7043 10.4192L17.7849 10.5205C18.2231 11.0417 18.8793 11.3738 19.6135 11.3738C20.9313 11.3738 22 10.3051 22 8.98733C22 8.86033 21.9897 8.7358 21.9707 8.6144Z" fill="#0055AC"/>
</g>
<path fill-rule="evenodd" clip-rule="evenodd" d="M10.3869 9.21385C9.53633 7.00338 6.50771 6.88418 7.23913 3.67135C7.29333 3.43296 7.03867 3.24876 6.8328 3.37337C4.86608 4.5328 3.452 6.85712 4.63853 9.90198C4.73605 10.1512 4.44348 10.3842 4.23218 10.2216C3.25154 9.47938 3.1486 8.41205 3.23529 7.64812C3.26779 7.36638 2.89937 7.23092 2.74225 7.46392C2.37383 8.02738 2 8.93758 2 10.3083C2.20588 13.3423 4.76855 14.2742 5.6896 14.3934C7.00613 14.5614 8.43107 14.3176 9.45507 13.3802C10.582 12.3346 10.9937 10.6659 10.3869 9.21385Z" fill="#FFC247"/>
<path fill-rule="evenodd" clip-rule="evenodd" d="M5.35913 11.9392C6.13931 11.7495 6.54024 11.1861 6.64859 10.6877C6.8274 9.91286 6.12847 9.1544 6.59983 7.92993C6.7786 8.94307 8.37146 9.577 8.37146 10.6823C8.41486 12.053 6.93033 13.2287 5.35913 11.9392Z" fill="white"/>
</svg>
