<svg width="36" height="36" viewBox="0 0 36 36" fill="none" xmlns="http://www.w3.org/2000/svg">
<path d="M30.74 13.9999H5.93L8.2 8.36994C8.43733 7.7832 8.84332 7.28 9.36664 6.924C9.88996 6.568 10.5071 6.37519 11.14 6.36994H25.53C26.1651 6.36567 26.7865 6.5547 27.3116 6.91192C27.8367 7.26915 28.2407 7.77766 28.47 8.36994L30.74 13.9999Z" fill="#007FFF"/>
<path d="M6.68 29.49H5.26C5.08628 29.4913 4.91404 29.4581 4.75329 29.3922C4.59254 29.3264 4.44649 29.2292 4.32365 29.1064C4.20081 28.9835 4.10363 28.8375 4.03777 28.6767C3.9719 28.516 3.93867 28.3437 3.94 28.17V18.84C3.93868 18.6658 3.97185 18.4931 4.03759 18.3318C4.10334 18.1705 4.20036 18.0238 4.32306 17.9002C4.44577 17.7765 4.59173 17.6784 4.75254 17.6114C4.91334 17.5445 5.08581 17.51 5.26 17.51H6.73C7.08274 17.51 7.42103 17.6501 7.67045 17.8996C7.91987 18.149 8.06 18.4873 8.06 18.84V28.22C8.03695 28.5684 7.88081 28.8945 7.62392 29.1309C7.36703 29.3673 7.02907 29.4959 6.68 29.49V29.49Z" fill="#333846"/>
<path d="M31.4 29.49H29.94C29.7658 29.4914 29.5931 29.4582 29.4318 29.3925C29.2705 29.3267 29.1238 29.2297 29.0001 29.107C28.8765 28.9843 28.7784 28.8383 28.7114 28.6775C28.6445 28.5167 28.61 28.3442 28.61 28.17V18.84C28.61 18.4873 28.7501 18.149 28.9995 17.8996C29.249 17.6502 29.5873 17.51 29.94 17.51H31.4C31.575 17.5087 31.7486 17.5422 31.9105 17.6086C32.0725 17.6749 32.2197 17.7729 32.3434 17.8966C32.4672 18.0204 32.5651 18.1675 32.6315 18.3295C32.6978 18.4915 32.7313 18.665 32.73 18.84V28.22C32.7288 28.3916 32.6931 28.5611 32.6251 28.7186C32.5571 28.8761 32.4581 29.0183 32.334 29.1368C32.2099 29.2552 32.0633 29.3476 31.9029 29.4082C31.7424 29.4689 31.5714 29.4968 31.4 29.49V29.49Z" fill="#333846"/>
<path d="M8.12 13.7499L9.83 9.12991C9.98223 8.76497 10.2392 8.45335 10.5685 8.23442C10.8978 8.01549 11.2846 7.89908 11.68 7.89991H25C25.3954 7.89908 25.7822 8.01549 26.1115 8.23442C26.4408 8.45335 26.6978 8.76497 26.85 9.12991L28.5 13.7999L8.12 13.7499Z" fill="#D7EBFF"/>
<path d="M28.89 26.27H7.77C6.77084 26.2622 5.81498 25.8611 5.10939 25.1536C4.40379 24.4461 4.00523 23.4892 4 22.49V17.32C4.00525 16.3165 4.40624 15.3555 5.11587 14.6459C5.8255 13.9363 6.78645 13.5353 7.79 13.53H28.94C29.9444 13.5327 30.9068 13.9328 31.617 14.643C32.3272 15.3532 32.7274 16.3157 32.73 17.32V22.49C32.7142 23.498 32.3027 24.4594 31.5843 25.1666C30.8659 25.8738 29.8981 26.2702 28.89 26.27V26.27Z" fill="#007FFF"/>
<path d="M32.68 17.13V18.93C23.1172 19.7194 13.5066 19.7428 3.94 19V17.13C3.94 16.1752 4.31928 15.2596 4.99441 14.5844C5.66955 13.9093 6.58522 13.53 7.54 13.53H29.08C30.0348 13.53 30.9505 13.9093 31.6256 14.5844C32.3007 15.2596 32.68 16.1752 32.68 17.13Z" fill="#3399FF"/>
<path d="M7.25 18.46C7.66421 18.462 8.06966 18.3408 8.41489 18.1119C8.76012 17.8831 9.02954 17.5567 9.18897 17.1744C9.34839 16.7921 9.39063 16.3711 9.3103 15.9647C9.22998 15.5584 9.03072 15.1851 8.73783 14.8922C8.44494 14.5993 8.07162 14.4 7.66527 14.3197C7.25892 14.2394 6.83786 14.2816 6.45556 14.441C6.07326 14.6005 5.74695 14.8699 5.51806 15.2151C5.28917 15.5603 5.16802 15.9658 5.17 16.38C5.17263 16.9308 5.39261 17.4584 5.78212 17.8479C6.17163 18.2374 6.69916 18.4574 7.25 18.46V18.46Z" fill="#FDCA40"/>
<path d="M29.42 18.46C29.8338 18.46 30.2383 18.3372 30.5822 18.1071C30.9261 17.877 31.194 17.55 31.3518 17.1675C31.5097 16.785 31.5505 16.3643 31.4691 15.9586C31.3876 15.5529 31.1876 15.1805 30.8943 14.8886C30.601 14.5967 30.2277 14.3985 29.8216 14.319C29.4155 14.2395 28.995 14.2823 28.6132 14.442C28.2315 14.6017 27.9058 14.8712 27.6774 15.2162C27.4489 15.5612 27.328 15.9662 27.33 16.38C27.33 16.654 27.3841 16.9253 27.4893 17.1783C27.5944 17.4313 27.7485 17.6611 27.9427 17.8544C28.137 18.0476 28.3674 18.2006 28.6209 18.3046C28.8745 18.4085 29.146 18.4613 29.42 18.46V18.46Z" fill="#FDCA40"/>
<path d="M26 22.8599H10.71C10.2129 22.86 9.73564 22.6653 9.38044 22.3176C9.02525 21.9699 8.82047 21.4968 8.81 20.9999C8.81527 20.1087 9.17233 19.2556 9.80347 18.6263C10.4346 17.997 11.2888 17.6425 12.18 17.6399H24.49C25.3803 17.6425 26.2334 17.9974 26.863 18.6269C27.4925 19.2565 27.8474 20.1096 27.85 20.9999C27.8423 21.4891 27.6453 21.9563 27.3003 22.3031C26.9552 22.65 26.4891 22.8496 26 22.8599V22.8599Z" fill="#004C98"/>
</svg>
