<svg width="24" height="24" viewBox="0 0 24 24" fill="none" xmlns="http://www.w3.org/2000/svg">
<path fill-rule="evenodd" clip-rule="evenodd" d="M12 2C17.5229 2 22 6.47715 22 12C22 16.9912 18.3432 21.1283 13.5625 21.8785V14.8906H15.8926L16.3359 12H13.5625V10.125C13.5625 9.34963 13.9343 8.59413 15.1168 8.56347C15.1416 8.56283 15.1667 8.5625 15.1922 8.5625H16.4531V6.10156C16.4531 6.10156 15.5767 5.95203 14.6249 5.91464C14.4889 5.9093 14.3514 5.90625 14.2146 5.90625C11.9305 5.90625 10.4375 7.29063 10.4375 9.79688V12H7.89844V14.8906H10.4375V21.8785C5.65684 21.1283 2 16.9912 2 12C2 6.47715 6.47715 2 12 2Z" fill="#333846"/>
</svg>
