<svg width="36" height="36" viewBox="0 0 36 36" fill="none" xmlns="http://www.w3.org/2000/svg">
<path d="M25.22 25.1601C25.22 29.4801 20.3 30.5101 14.22 30.5101C8.14 30.5101 3.22 29.5101 3.22 25.1601C3.22 20.8101 8.14 17.3301 14.22 17.3301C20.3 17.3301 25.22 20.8401 25.22 25.1601Z" fill="#0066CC"/>
<path d="M14.24 15.5699C16.9075 15.5699 19.07 13.4074 19.07 10.7399C19.07 8.07238 16.9075 5.90991 14.24 5.90991C11.5725 5.90991 9.41 8.07238 9.41 10.7399C9.41 13.4074 11.5725 15.5699 14.24 15.5699Z" fill="#FDCA40"/>
<path d="M22.09 19.6899C17.75 20.3799 14.51 23.1299 14.51 26.4199C14.51 28.4799 15.77 29.6799 17.77 30.3599C22.1 29.9499 25.22 28.5999 25.22 25.1599C25.171 24.0649 24.8614 22.9974 24.3171 22.0461C23.7727 21.0947 23.0092 20.287 22.09 19.6899Z" fill="#004C98"/>
<path d="M32.81 26.3099C32.81 29.6999 28.95 30.5099 24.18 30.5099C19.41 30.5099 15.55 29.6999 15.55 26.3099C15.55 22.9199 19.42 20.1599 24.18 20.1599C28.94 20.1599 32.81 22.9099 32.81 26.3099Z" fill="#007FFF"/>
<path d="M24.18 18.7799C26.2787 18.7799 27.98 17.0786 27.98 14.9799C27.98 12.8812 26.2787 11.1799 24.18 11.1799C22.0813 11.1799 20.38 12.8812 20.38 14.9799C20.38 17.0786 22.0813 18.7799 24.18 18.7799Z" fill="#FDCA40"/>
</svg>
