<svg width="36" height="36" viewBox="0 0 36 36" fill="none" xmlns="http://www.w3.org/2000/svg">
<path d="M17.7202 34.3158C26.5568 34.3158 33.7202 27.1524 33.7202 18.3158C33.7202 9.47924 26.5568 2.3158 17.7202 2.3158C8.88366 2.3158 1.72021 9.47924 1.72021 18.3158C1.72021 27.1524 8.88366 34.3158 17.7202 34.3158Z" fill="url(#paint0_linear_1312_149)"/>
<path d="M17.7202 34.3158C26.5568 34.3158 33.7202 27.1524 33.7202 18.3158C33.7202 9.47924 26.5568 2.3158 17.7202 2.3158C8.88366 2.3158 1.72021 9.47924 1.72021 18.3158C1.72021 27.1524 8.88366 34.3158 17.7202 34.3158Z" fill="url(#paint1_linear_1312_149)"/>
<path d="M25 9.20292V26.7973C24.9999 27.1163 24.8664 27.4222 24.6287 27.6478C24.3911 27.8734 24.0688 28 23.7327 28H11.2673C10.9313 28 10.6089 27.8734 10.3713 27.6478C10.1336 27.4222 10.0001 27.1163 10 26.7973V12.5919L14.8372 8H23.7327C24.0688 8 24.3912 8.12674 24.6289 8.35233C24.8665 8.57793 25 8.88386 25 9.20292Z" fill="#F4BD98"/>
<path d="M25 8.26285V26.7371C24.9999 27.0722 24.8664 27.3934 24.6287 27.6302C24.3911 27.8669 24.0687 28 23.7327 28H11.2673C10.9311 28 10.6089 27.8669 10.3713 27.6302C10.1336 27.3934 10.0001 27.0722 10 26.7371V11.8212L14.8374 7H23.7327C24.0687 7 24.3911 7.13304 24.6287 7.36986C24.8664 7.60668 24.9999 7.92789 25 8.26285Z" fill="white"/>
<path d="M25 8.26373V26.7365C25 27.4343 24.4323 28 23.7322 28H11.2661C11.0216 27.9996 10.7824 27.9288 10.5774 27.7961C10.3722 27.6632 10.21 27.4743 10.1102 27.2519C10.2673 27.3201 10.4397 27.3579 10.6223 27.3579H20.3601C22.5668 27.3579 24.3562 25.5749 24.3562 23.3756V7.62184C24.3568 7.44508 24.3196 7.27022 24.2472 7.10891C24.4713 7.20818 24.6617 7.37012 24.7954 7.5751C24.9289 7.78006 25 8.01926 25 8.26373ZM15.1511 7V10.7888C15.1511 11.1454 15.0089 11.4874 14.7559 11.7396C14.5029 11.9918 14.1597 12.1336 13.802 12.1336H10V11.821L14.8376 7H15.1511Z" fill="#EDEDED"/>
<path d="M15 7V10.6903C15 11.0377 14.862 11.3708 14.6163 11.6165C14.3706 11.8621 14.0376 12 13.6901 12H10L15 7Z" fill="#BCBCBD"/>
<path d="M22 14.5071C22 14.6416 21.9493 14.7706 21.8591 14.8657C21.7689 14.9608 21.6465 15.0143 21.5189 15.0143H12.4918C12.3661 15.0114 12.2463 14.9567 12.1585 14.8619C12.0705 14.7671 12.0213 14.6398 12.0213 14.5072C12.0213 14.3746 12.0705 14.2473 12.1585 14.1525C12.2463 14.0576 12.3661 14.003 12.4918 14H21.5189C21.7846 14 22 14.227 22 14.5071ZM22 16.9999C22 17.1344 21.9492 17.2634 21.859 17.3585C21.7688 17.4535 21.6464 17.5069 21.5189 17.5069H12.4918C12.3661 17.5041 12.2463 17.4493 12.1585 17.3545C12.0705 17.2598 12.0213 17.1324 12.0213 16.9998C12.0213 16.8672 12.0705 16.7398 12.1585 16.6451C12.2463 16.5504 12.3661 16.4956 12.4918 16.4927H21.5189C21.7846 16.4927 22 16.7198 22 16.9999ZM18.2428 19.4925C18.2428 19.6271 18.1921 19.7561 18.1019 19.8512C18.0117 19.9463 17.8892 19.9999 17.7617 19.9999H12.4918C12.4277 20.0014 12.364 19.9893 12.3045 19.9645C12.2448 19.9396 12.1905 19.9025 12.1448 19.8553C12.099 19.808 12.0625 19.7516 12.0377 19.6894C12.0129 19.6271 12 19.5603 12 19.4926C12 19.4252 12.0129 19.3583 12.0377 19.2961C12.0625 19.2337 12.099 19.1773 12.1448 19.1301C12.1905 19.0829 12.2448 19.0457 12.3045 19.0209C12.364 18.9961 12.4277 18.984 12.4918 18.9855H17.7617C18.0274 18.9855 18.2428 19.2125 18.2428 19.4925Z" fill="#E1DFDF"/>
<path d="M14.2391 23.3555C14.2413 23.3343 14.2516 23.3148 14.2676 23.3013C14.282 23.2896 14.2997 23.2833 14.3179 23.2832H14.5375C14.5573 23.2832 14.5749 23.2902 14.5906 23.304C14.6056 23.3179 14.6125 23.3359 14.6109 23.3584C14.6047 23.4369 14.5859 23.5137 14.5553 23.5859C14.5218 23.6644 14.4722 23.7346 14.41 23.7918C14.3451 23.8526 14.2629 23.9028 14.1632 23.9417C14.0637 23.9806 13.9435 24 13.8025 24C13.678 24 13.5674 23.9808 13.4718 23.9429C13.3758 23.9049 13.2944 23.8521 13.2277 23.7845C13.161 23.7169 13.1086 23.636 13.0718 23.5416C13.0338 23.4431 13.0113 23.3391 13.0051 23.2335C13.0017 23.1628 13 23.0854 13 22.9999C13 22.915 13.0017 22.8372 13.0051 22.7666C13.0123 22.6555 13.0345 22.553 13.0716 22.4583C13.1086 22.3637 13.1608 22.2831 13.2275 22.2153C13.2942 22.1475 13.3758 22.095 13.4716 22.057C13.5674 22.0191 13.678 22 13.8025 22C13.9435 22 14.0639 22.0195 14.1632 22.0584C14.2627 22.0972 14.3451 22.1475 14.41 22.2083C14.4751 22.2695 14.5234 22.3384 14.5553 22.4153C14.5869 22.4921 14.6052 22.5678 14.6109 22.6416C14.612 22.6517 14.6108 22.6618 14.6072 22.6713C14.6037 22.6808 14.598 22.6892 14.5906 22.6958C14.5761 22.7093 14.5571 22.7168 14.5375 22.7166H14.3179C14.2993 22.7165 14.2812 22.7101 14.2662 22.6986C14.2579 22.6921 14.2509 22.6841 14.2457 22.6748C14.2406 22.6656 14.2374 22.6553 14.2364 22.6446C14.2306 22.6064 14.2176 22.5695 14.1985 22.5361C14.1774 22.4997 14.1498 22.4677 14.117 22.4419C14.078 22.4115 14.034 22.3885 13.9872 22.3738C13.9273 22.3551 13.865 22.3461 13.8025 22.3472C13.732 22.3472 13.6704 22.3583 13.618 22.3805C13.5688 22.4007 13.524 22.431 13.4866 22.4694C13.4515 22.5065 13.4244 22.5512 13.4051 22.6028C13.3864 22.6546 13.3749 22.7092 13.3713 22.7666C13.3679 22.8372 13.3661 22.9147 13.3661 22.9999C13.3661 23.0852 13.3679 23.1628 13.3713 23.2332C13.3743 23.2897 13.3857 23.3455 13.4051 23.3985C13.4244 23.4494 13.4515 23.4934 13.4866 23.5305C13.5217 23.5674 13.5656 23.597 13.618 23.6193C13.6704 23.6415 13.732 23.6528 13.8025 23.6528C13.8729 23.6528 13.9345 23.6438 13.9872 23.6263C14.0394 23.6088 14.0833 23.5859 14.1182 23.5582C14.1537 23.5305 14.1814 23.4989 14.2011 23.464C14.2208 23.4291 14.2339 23.3924 14.2391 23.3555ZM16.189 23.6249C16.2089 23.6249 16.226 23.6325 16.2407 23.6473C16.255 23.6621 16.2622 23.6797 16.2622 23.7001V23.8971C16.2623 23.9069 16.2605 23.9166 16.2567 23.9257C16.2531 23.9347 16.2476 23.9429 16.2407 23.9498C16.2341 23.957 16.226 23.9626 16.2171 23.9664C16.2082 23.9703 16.1986 23.9722 16.189 23.972H15.0012C14.9916 23.9722 14.9821 23.9703 14.9733 23.9664C14.9644 23.9626 14.9565 23.957 14.9499 23.9498C14.9428 23.943 14.9373 23.9348 14.9336 23.9257C14.9298 23.9167 14.9278 23.9069 14.928 23.8971V22.1028C14.928 22.0825 14.9351 22.065 14.9499 22.0501C14.9565 22.0429 14.9644 22.0373 14.9733 22.0335C14.9821 22.0297 14.9916 22.0277 15.0012 22.0278H15.221C15.2409 22.0278 15.2579 22.0352 15.2723 22.0501C15.2793 22.0568 15.2849 22.065 15.2885 22.0742C15.2923 22.0832 15.2941 22.093 15.294 22.1028V23.6249H16.189ZM17.4148 22.0278C17.4438 22.0278 17.4652 22.0359 17.4799 22.0517C17.4946 22.0674 17.507 22.091 17.5179 22.1222L18.1823 23.8776C18.1858 23.8903 18.1859 23.9037 18.1826 23.9164C18.1792 23.9291 18.1726 23.9407 18.1633 23.9498C18.1567 23.957 18.1487 23.9626 18.1398 23.9664C18.1309 23.9702 18.1214 23.9722 18.1118 23.972H17.9165C17.8804 23.972 17.8551 23.9642 17.8406 23.9484C17.8279 23.9353 17.8177 23.9199 17.8107 23.9028L17.6941 23.5946H16.8372L16.7206 23.9028C16.7137 23.92 16.7035 23.9354 16.6908 23.9484C16.6762 23.9642 16.6509 23.972 16.6148 23.972H16.4197C16.4101 23.9722 16.4005 23.9703 16.3916 23.9664C16.3827 23.9627 16.3746 23.957 16.368 23.9498C16.3586 23.9407 16.3519 23.9292 16.3486 23.9165C16.3453 23.9037 16.3454 23.8903 16.349 23.8776L17.0134 22.1222C17.0213 22.0963 17.0342 22.0723 17.0514 22.0517C17.0658 22.0359 17.0875 22.0278 17.1168 22.0278H17.4148ZM17.5639 23.2474L17.2656 22.4557L16.9674 23.2474H17.5639ZM18.5051 23.972C18.4955 23.9722 18.486 23.9703 18.4771 23.9664C18.4683 23.9626 18.4603 23.957 18.4537 23.9498C18.4467 23.943 18.4412 23.9348 18.4373 23.9257C18.4336 23.9167 18.4317 23.9069 18.4318 23.8971V22.1028C18.4318 22.0825 18.439 22.065 18.4537 22.0501C18.4603 22.0429 18.4683 22.0373 18.4771 22.0335C18.486 22.0297 18.4955 22.0277 18.5051 22.0278H18.7249C18.7448 22.0278 18.7617 22.0352 18.7762 22.0501C18.7832 22.0568 18.7887 22.065 18.7924 22.0742C18.7962 22.0832 18.798 22.093 18.7979 22.1028V23.8971C18.798 23.9069 18.7962 23.9167 18.7924 23.9257C18.7887 23.9348 18.7832 23.943 18.7762 23.9498C18.7696 23.957 18.7616 23.9626 18.7528 23.9663C18.744 23.9702 18.7345 23.9722 18.7249 23.972H18.5051ZM20.1107 23.0194L20.626 22.1028C20.633 22.0936 20.6455 22.079 20.6626 22.0584C20.6796 22.038 20.7062 22.0278 20.7424 22.0278H20.927C20.9469 22.0278 20.9639 22.0352 20.9783 22.0501C20.9852 22.0568 20.9908 22.065 20.9945 22.0742C20.9983 22.0832 21.0001 22.093 21 22.1028V23.8971C21.0002 23.9069 20.9983 23.9167 20.9946 23.9257C20.9908 23.9348 20.9854 23.943 20.9783 23.9498C20.9718 23.957 20.9638 23.9626 20.955 23.9663C20.9461 23.9702 20.9366 23.9722 20.927 23.972H20.7071C20.6975 23.9722 20.6881 23.9703 20.6793 23.9664C20.6704 23.9626 20.6625 23.957 20.6559 23.9498C20.6489 23.943 20.6433 23.9348 20.6396 23.9257C20.6359 23.9167 20.634 23.9069 20.6341 23.8971V22.8111L20.2816 23.436C20.2725 23.4508 20.2599 23.466 20.2434 23.4818C20.2265 23.4978 20.204 23.5064 20.1811 23.5054H20.04C20.017 23.5063 19.9947 23.4978 19.9779 23.4818C19.9634 23.4682 19.9506 23.4528 19.9398 23.436L19.5874 22.8111V23.8971C19.5874 23.9069 19.5855 23.9167 19.5818 23.9257C19.578 23.9348 19.5724 23.943 19.5654 23.9498C19.5588 23.957 19.5508 23.9626 19.542 23.9663C19.5332 23.9702 19.5236 23.9722 19.5142 23.972H19.2942C19.2846 23.9722 19.2751 23.9703 19.2663 23.9664C19.2575 23.9626 19.2495 23.957 19.2429 23.9498C19.2359 23.943 19.2303 23.9348 19.2266 23.9257C19.2228 23.9167 19.2209 23.9069 19.221 23.8971V22.1028C19.221 22.0825 19.2282 22.065 19.2429 22.0501C19.2495 22.0429 19.2575 22.0373 19.2663 22.0335C19.2751 22.0297 19.2846 22.0277 19.2942 22.0278H19.4789C19.515 22.0278 19.5415 22.038 19.5586 22.0584L19.5952 22.1028L20.1107 23.0194Z" fill="#F34B50"/>
<path d="M22.2273 8.65637V9.257H23V9.82263H22.2045C22.144 10.2416 21.952 10.5581 21.6288 10.7724C21.3107 10.9865 20.8232 11.0935 20.1667 11.0935V11.5335C20.1667 12.0178 20.3839 12.2597 20.8181 12.2597C21.0303 12.2597 21.1869 12.1992 21.2879 12.0782C21.394 11.9571 21.4469 11.7756 21.4469 11.5335H22.4395C22.4192 11.9944 22.2753 12.3553 22.0076 12.6159C21.7399 12.872 21.3585 13 20.8636 13C20.3132 13 19.8915 12.8672 19.5985 12.602C19.3107 12.3319 19.1667 11.9293 19.1667 11.3939V10.4511C19.7172 10.4511 20.1288 10.4371 20.4015 10.4092C20.6743 10.3766 20.8687 10.3161 20.9849 10.2276C21.1061 10.1392 21.1819 10.0043 21.2121 9.82263H19V9.257H21.2273V8.65637H19V8H23V8.65637H22.2273Z" fill="#F34B50"/>
<defs>
<linearGradient id="paint0_linear_1312_149" x1="25.232" y1="34.3158" x2="10.0825" y2="1.99685" gradientUnits="userSpaceOnUse">
<stop stop-color="#F5BC92"/>
<stop offset="0.231273" stop-color="#FFCEAB"/>
<stop offset="1" stop-color="#FFDFC8"/>
</linearGradient>
<linearGradient id="paint1_linear_1312_149" x1="25.232" y1="34.3158" x2="10.0825" y2="1.99685" gradientUnits="userSpaceOnUse">
<stop stop-color="#E23340"/>
<stop offset="0.260417" stop-color="#F34653"/>
<stop offset="1" stop-color="#FF7E88"/>
</linearGradient>
</defs>
</svg>
