<svg width="112" height="112" viewBox="0 0 112 112" fill="none" xmlns="http://www.w3.org/2000/svg">
<rect y="0.000366211" width="112" height="112" rx="4" fill="white"/>
<path d="M98.4875 49.5032C97.4956 54.3654 96.2979 59.1562 93.9061 63.5468C90.9567 68.9666 86.6222 72.3279 80.2816 73.0728C77.3433 73.4171 72.384 72.8031 70.0147 72.4588C69.18 72.3391 68.3603 72.1632 67.5518 71.9274L50.3079 66.8743C50.0047 66.7844 49.7091 66.6872 49.4171 66.5749C47.5905 65.8788 40.3142 63.1538 36.7021 62.5624C33.8351 62.0908 30.9342 61.8475 28.1082 61.1026C24.8482 60.2455 23.0701 57.996 23.0065 54.5749C22.8793 47.6727 24.631 41.0777 26.2929 34.4788C27.2024 30.8706 28.3853 27.3523 30.429 24.1857C33.2811 19.7653 37.4919 17.5644 42.53 16.6736C47.6915 15.7565 52.9129 15.9025 58.0932 16.1345C66.5224 16.5125 74.8243 17.8675 82.5087 21.5805C89.4332 24.9304 95.2797 29.467 97.8288 37.1401C99.1501 41.1226 99.3297 45.3972 98.4875 49.5032Z" fill="#E5F2FF"/>
<path d="M77.8043 26.7715H30.9936C29.8925 26.7715 29 27.664 29 28.7651V91.5571C29 92.658 29.8925 93.5507 30.9936 93.5507H77.8043C78.9054 93.5507 79.7979 92.658 79.7979 91.5571V28.7651C79.7979 27.664 78.9054 26.7715 77.8043 26.7715Z" fill="white"/>
<path d="M33.9841 29.762C32.8831 29.762 31.9905 30.6545 31.9905 31.7556V93.5508H77.8044C78.9055 93.5508 79.798 92.6581 79.798 91.5572V29.762H33.9841Z" fill="#F2F9FF"/>
<path d="M79.7979 91.5571V28.7651C79.7979 27.6641 78.9054 26.7715 77.8043 26.7715H30.9936C29.8925 26.7715 29 27.6641 29 28.7651V91.5571C29 92.6582 29.8925 93.5507 30.9936 93.5507H77.8043C78.9054 93.5507 79.7979 92.6582 79.7979 91.5571Z" stroke="#333846" stroke-width="1.5" stroke-linecap="round" stroke-linejoin="round"/>
<path d="M44.3816 24.5252H50.6287C51.0465 24.5252 51.3828 24.1888 51.3828 23.7711V23.0169C51.3828 21.3502 52.7328 20.0004 54.3994 20.0004C56.0662 20.0004 57.4161 21.3502 57.4161 23.0169V23.7711C57.4161 24.1888 57.7524 24.5252 58.1701 24.5252H64.4175C65.6663 24.5252 66.6798 25.5388 66.6798 26.7877C66.6798 28.0365 65.6663 29.0501 64.4175 29.0501H44.3816C43.1327 29.0501 42.1191 28.0365 42.1191 26.7877C42.1191 25.5388 43.1327 24.5252 44.3816 24.5252Z" fill="#F34653"/>
<path d="M44.3816 24.5252H50.6287C51.0465 24.5252 51.3828 24.1888 51.3828 23.7711V23.0169C51.3828 21.3502 52.7328 20.0004 54.3994 20.0004C56.0662 20.0004 57.4161 21.3502 57.4161 23.0169V23.7711C57.4161 24.1888 57.7524 24.5252 58.1701 24.5252H64.4175C65.6663 24.5252 66.6798 25.5388 66.6798 26.7877C66.6798 28.0365 65.6663 29.0501 64.4175 29.0501H44.3816C43.1327 29.0501 42.1191 28.0365 42.1191 26.7877C42.1191 25.5388 43.1327 24.5252 44.3816 24.5252Z" stroke="#333846" stroke-width="1.5" stroke-miterlimit="10"/>
<path d="M71.292 62.3668C71.292 62.5309 71.2411 62.6508 71.1944 62.7129C71.1828 62.7283 71.1737 62.7379 71.1673 62.7437L38.4275 62.7166C38.4211 62.7108 38.4119 62.7011 38.4004 62.6857C38.3537 62.6236 38.3027 62.5037 38.3027 62.3397C38.3027 62.1756 38.3537 62.0557 38.4004 61.9936C38.4119 61.9782 38.421 61.9686 38.4274 61.9628L71.1673 61.9899C71.1736 61.9957 71.1828 62.0054 71.1944 62.0207C71.2411 62.0828 71.292 62.2027 71.292 62.3668ZM71.1567 62.7515C71.1567 62.7513 71.1579 62.7505 71.1604 62.7494C71.158 62.7511 71.1568 62.7516 71.1567 62.7515ZM38.4344 62.7222C38.4369 62.7233 38.4381 62.7241 38.438 62.7243C38.438 62.7244 38.4367 62.7239 38.4344 62.7222ZM38.438 61.955C38.4381 61.9552 38.4369 61.956 38.4344 61.9571C38.4367 61.9554 38.438 61.9549 38.438 61.955ZM71.1947 61.9899C71.1945 61.9899 71.1943 61.9899 71.1941 61.9899H71.1947ZM71.1604 61.9843C71.1579 61.9832 71.1567 61.9823 71.1567 61.9822C71.1568 61.982 71.158 61.9826 71.1604 61.9843Z" fill="#CCD2DA" stroke="#CCD2DA" stroke-width="1.5"/>
<path d="M72.042 62.3668C72.042 62.9891 71.6626 63.4937 71.1947 63.4937L38.4 63.4665C37.9321 63.4665 37.5527 62.962 37.5527 62.3397C37.5527 61.7173 37.9321 61.2128 38.4 61.2128L71.1947 61.2399C71.6626 61.2399 72.042 61.7445 72.042 62.3668Z" fill="#CCD2DA" stroke="#CCD2DA" stroke-width="1.5"/>
<path d="M71.292 69.7428C71.292 69.9069 71.2411 70.0268 71.1944 70.0889C71.1828 70.1042 71.1737 70.1139 71.1673 70.1197L38.4275 70.0925C38.4211 70.0867 38.4119 70.0771 38.4004 70.0617C38.3537 69.9996 38.3027 69.8797 38.3027 69.7156C38.3027 69.5515 38.3537 69.4316 38.4004 69.3695C38.4119 69.3542 38.421 69.3446 38.4274 69.3388L71.1673 69.3659C71.1736 69.3717 71.1828 69.3813 71.1944 69.3967C71.2411 69.4588 71.292 69.5787 71.292 69.7428ZM71.1567 70.1274C71.1567 70.1273 71.1579 70.1264 71.1604 70.1254C71.158 70.1271 71.1568 70.1276 71.1567 70.1274ZM38.4344 70.0982C38.4369 70.0993 38.4381 70.1001 38.438 70.1003C38.438 70.1004 38.4367 70.0999 38.4344 70.0982ZM38.438 69.331C38.4381 69.3311 38.4369 69.332 38.4344 69.3331C38.4367 69.3314 38.438 69.3308 38.438 69.331ZM71.1947 69.3659C71.1945 69.3659 71.1943 69.3659 71.1941 69.3659H71.1947ZM71.1604 69.3603C71.1579 69.3592 71.1567 69.3583 71.1567 69.3582C71.1568 69.358 71.158 69.3586 71.1604 69.3603Z" fill="#CCD2DA" stroke="#CCD2DA" stroke-width="1.5"/>
<path d="M72.042 69.7428C72.042 70.3651 71.6626 70.8697 71.1947 70.8697L38.4 70.8425C37.9321 70.8425 37.5527 70.3379 37.5527 69.7156C37.5527 69.0933 37.9321 68.5887 38.4 68.5887L71.1947 68.6159C71.6626 68.6159 72.042 69.1205 72.042 69.7428Z" fill="#CCD2DA" stroke="#CCD2DA" stroke-width="1.5"/>
<path d="M38.438 77.4767C38.438 77.4769 38.4367 77.4763 38.4344 77.4746C38.4369 77.4757 38.4381 77.4766 38.438 77.4767ZM38.4276 77.4691C38.4212 77.4633 38.412 77.4537 38.4004 77.4382C38.3537 77.3761 38.3027 77.2562 38.3027 77.0921C38.3027 76.928 38.3537 76.8081 38.4004 76.746C38.4118 76.7308 38.4209 76.7212 38.4273 76.7154L66.6262 76.86C66.6326 76.8658 66.6418 76.8754 66.6535 76.8909C66.7001 76.953 66.7511 77.0729 66.7511 77.237C66.7511 77.4011 66.7001 77.521 66.6535 77.5831C66.642 77.5983 66.6329 77.6079 66.6265 77.6137L38.4276 77.4691ZM66.6158 77.6216C66.6158 77.6215 66.617 77.6206 66.6195 77.6195C66.6171 77.6212 66.6158 77.6218 66.6158 77.6216ZM66.6158 76.8524C66.6158 76.8522 66.6171 76.8527 66.6195 76.8544C66.617 76.8534 66.6158 76.8525 66.6158 76.8524ZM38.438 76.7075C38.4381 76.7076 38.4369 76.7085 38.4344 76.7095C38.4367 76.7078 38.438 76.7073 38.438 76.7075Z" fill="#CCD2DA" stroke="#CCD2DA" stroke-width="1.5"/>
<path d="M67.5011 77.237C67.5011 77.8593 67.1217 78.3639 66.6538 78.3639L38.4 78.219C37.9321 78.219 37.5527 77.7144 37.5527 77.0921C37.5527 76.4698 37.9321 75.9652 38.4 75.9652L66.6538 76.1101C67.1217 76.1101 67.5011 76.6147 67.5011 77.237Z" fill="#CCD2DA" stroke="#CCD2DA" stroke-width="1.5"/>
<path d="M61.9221 84.4915C61.9221 84.6556 61.8711 84.7755 61.8245 84.8376C61.8129 84.8529 61.8038 84.8625 61.7974 84.8683L38.4275 84.8455C38.4211 84.8397 38.4119 84.83 38.4004 84.8146C38.3537 84.7525 38.3027 84.6327 38.3027 84.4686C38.3027 84.3045 38.3537 84.1846 38.4004 84.1225C38.4119 84.1071 38.421 84.0975 38.4274 84.0917L61.7973 84.1146C61.8037 84.1204 61.8129 84.13 61.8245 84.1454C61.8711 84.2075 61.9221 84.3274 61.9221 84.4915ZM61.7868 84.8761C61.7868 84.876 61.788 84.8751 61.7905 84.874C61.7881 84.8757 61.7868 84.8763 61.7868 84.8761ZM38.4344 84.8511C38.4369 84.8522 38.4381 84.853 38.438 84.8532C38.438 84.8534 38.4367 84.8528 38.4344 84.8511ZM38.438 84.0839C38.4381 84.0841 38.4369 84.0849 38.4344 84.086C38.4367 84.0843 38.438 84.0838 38.438 84.0839ZM61.8248 84.1146C61.8246 84.1146 61.8243 84.1146 61.8241 84.1146H61.8248ZM61.7905 84.1089C61.788 84.1079 61.7868 84.107 61.7868 84.1069C61.7868 84.1067 61.7881 84.1072 61.7905 84.1089Z" fill="#CCD2DA" stroke="#CCD2DA" stroke-width="1.5"/>
<path d="M62.6721 84.4915C62.6721 85.1138 62.2927 85.6184 61.8248 85.6184L38.4 85.5954C37.9321 85.5954 37.5527 85.0909 37.5527 84.4686C37.5527 83.8463 37.9321 83.3417 38.4 83.3417L61.8248 83.3646C62.2927 83.3646 62.6721 83.8692 62.6721 84.4915Z" fill="#CCD2DA" stroke="#CCD2DA" stroke-width="1.5"/>
<path d="M76.6322 70.0004C70.0591 70.0004 64.7305 75.329 64.7305 81.9022C64.7305 88.4753 70.0591 93.8039 76.6322 93.8039C83.2054 93.8039 88.5339 88.4753 88.5339 81.9022C88.5339 75.329 83.2054 70.0004 76.6322 70.0004Z" fill="#F9DFC0"/>
<path d="M68.2197 84.2283C68.2197 87.6043 69.6257 90.6517 71.8836 92.8178C73.3384 93.4516 74.944 93.8037 76.6321 93.8037C83.2053 93.8037 88.5339 88.4751 88.5339 81.902C88.5339 78.526 87.128 75.4786 84.8699 73.3125C83.4152 72.6787 81.8096 72.3265 80.1216 72.3265C73.5484 72.3265 68.2197 77.6552 68.2197 84.2283Z" fill="#F39930"/>
<path d="M88.5341 81.9022C88.5341 88.4753 83.2054 93.8039 76.6322 93.8039C70.0591 93.8039 64.7305 88.4753 64.7305 81.9022C64.7305 75.329 70.0591 70.0004 76.6322 70.0004C83.2054 70.0004 88.5341 75.329 88.5341 81.9022Z" stroke="#333846" stroke-width="1.5" stroke-miterlimit="10"/>
<path d="M80.7185 86.5878C80.1761 87.1303 79.1197 87.9289 76.8232 88.0139L76.8469 88.0218H76.4167L76.4403 88.0139C74.1437 87.9289 73.0875 87.1303 72.5449 86.5878" stroke="#333846" stroke-width="1.5" stroke-linecap="round" stroke-linejoin="round"/>
<path d="M74.1585 80.4789C74.1585 81.3897 73.4201 82.1281 72.5093 82.1281C71.5987 82.1281 70.8604 81.3897 70.8604 80.4789C70.8604 79.5683 71.5987 78.83 72.5093 78.83C73.4201 78.83 74.1585 79.5683 74.1585 80.4789Z" fill="#333846"/>
<path d="M82.6184 80.4789C82.6184 81.3897 81.8801 82.1281 80.9694 82.1281C80.0586 82.1281 79.3203 81.3897 79.3203 80.4789C79.3203 79.5683 80.0586 78.83 80.9694 78.83C81.8801 78.83 82.6184 79.5683 82.6184 80.4789Z" fill="#333846"/>
<path d="M68.2743 40.8323L69.6789 43.6782C69.682 43.6845 69.6882 43.689 69.6951 43.69L72.8359 44.1465C72.8536 44.149 72.8608 44.1709 72.8479 44.1834L70.5752 46.3986C70.5701 46.4037 70.5678 46.4108 70.569 46.4179L71.1055 49.5458C71.1086 49.5636 71.09 49.577 71.074 49.5688L68.2649 48.0919C68.2587 48.0886 68.2511 48.0886 68.2447 48.0919L65.4356 49.5688C65.4197 49.577 65.4011 49.5636 65.4041 49.5458L65.9407 46.4179C65.9419 46.4108 65.9395 46.4037 65.9344 46.3986L63.6619 44.1834C63.649 44.1709 63.656 44.149 63.6739 44.1465L66.8145 43.69C66.8216 43.689 66.8277 43.6845 66.8309 43.6782L68.2353 40.8323C68.2433 40.8162 68.2663 40.8162 68.2743 40.8323Z" fill="#F39930"/>
<path d="M68.2743 40.8323L69.6789 43.6782C69.682 43.6845 69.6882 43.689 69.6951 43.69L72.8359 44.1465C72.8536 44.149 72.8608 44.1709 72.8479 44.1834L70.5752 46.3986C70.5701 46.4037 70.5678 46.4108 70.569 46.4179L71.1055 49.5458C71.1086 49.5636 71.09 49.577 71.074 49.5688L68.2649 48.0919C68.2587 48.0886 68.2511 48.0886 68.2447 48.0919L65.4356 49.5688C65.4197 49.577 65.4011 49.5636 65.4041 49.5458L65.9407 46.4179C65.9419 46.4108 65.9395 46.4037 65.9344 46.3986L63.6619 44.1834C63.649 44.1709 63.656 44.149 63.6739 44.1465L66.8145 43.69C66.8216 43.689 66.8277 43.6845 66.8309 43.6782L68.2353 40.8323C68.2433 40.8162 68.2663 40.8162 68.2743 40.8323Z" stroke="#333846" stroke-width="1.5" stroke-miterlimit="10"/>
<path d="M54.1757 35.8203L56.0013 39.5195C56.0054 39.5278 56.0134 39.5334 56.0224 39.5348L60.1046 40.1279C60.1279 40.1313 60.1371 40.1598 60.1204 40.1762L57.1666 43.0555C57.1599 43.062 57.1567 43.0714 57.1583 43.0805L57.8558 47.1461C57.8596 47.1691 57.8354 47.1867 57.8147 47.1758L54.1635 45.2563C54.1552 45.252 54.1455 45.252 54.1373 45.2563L50.486 47.1758C50.4653 47.1867 50.4412 47.1691 50.445 47.1461L51.1424 43.0805C51.144 43.0714 51.1409 43.062 51.1343 43.0555L48.1804 40.1762C48.1637 40.1598 48.1729 40.1313 48.1961 40.1279L52.2783 39.5348C52.2874 39.5334 52.2954 39.5278 52.2995 39.5195L54.1251 35.8203C54.1354 35.7993 54.1653 35.7993 54.1757 35.8203Z" fill="#F39930"/>
<path d="M54.1757 35.8203L56.0013 39.5195C56.0054 39.5278 56.0134 39.5334 56.0224 39.5348L60.1046 40.1279C60.1279 40.1313 60.1371 40.1598 60.1204 40.1762L57.1666 43.0555C57.1599 43.062 57.1567 43.0714 57.1583 43.0805L57.8558 47.1461C57.8596 47.1691 57.8354 47.1867 57.8147 47.1758L54.1635 45.2563C54.1552 45.252 54.1455 45.252 54.1373 45.2563L50.486 47.1758C50.4653 47.1867 50.4412 47.1691 50.445 47.1461L51.1424 43.0805C51.144 43.0714 51.1409 43.062 51.1343 43.0555L48.1804 40.1762C48.1637 40.1598 48.1729 40.1313 48.1961 40.1279L52.2783 39.5348C52.2874 39.5334 52.2954 39.5278 52.2995 39.5195L54.1251 35.8203C54.1354 35.7993 54.1653 35.7993 54.1757 35.8203Z" stroke="#333846" stroke-width="1.5" stroke-miterlimit="10"/>
<path d="M40.0653 40.8323L41.4698 43.6782C41.473 43.6845 41.4792 43.689 41.4862 43.69L44.6269 44.1465C44.6446 44.149 44.6518 44.1709 44.6389 44.1834L42.3663 46.3986C42.3612 46.4037 42.3589 46.4108 42.3601 46.4179L42.8966 49.5458C42.8997 49.5636 42.881 49.577 42.8651 49.5688L40.056 48.0919C40.0497 48.0886 40.0421 48.0886 40.0358 48.0919L37.2267 49.5688C37.2108 49.577 37.1922 49.5636 37.1953 49.5458L37.7316 46.4179C37.7329 46.4108 37.7305 46.4037 37.7255 46.3986L35.4529 44.1834C35.44 44.1709 35.4471 44.149 35.4649 44.1465L38.6055 43.69C38.6126 43.689 38.6187 43.6845 38.6219 43.6782L40.0264 40.8323C40.0343 40.8162 40.0574 40.8162 40.0653 40.8323Z" fill="#F39930"/>
<path d="M40.0653 40.8323L41.4698 43.6782C41.473 43.6845 41.4792 43.689 41.4862 43.69L44.6269 44.1465C44.6446 44.149 44.6518 44.1709 44.6389 44.1834L42.3663 46.3986C42.3612 46.4037 42.3589 46.4108 42.3601 46.4179L42.8966 49.5458C42.8997 49.5636 42.881 49.577 42.8651 49.5688L40.056 48.0919C40.0497 48.0886 40.0421 48.0886 40.0358 48.0919L37.2267 49.5688C37.2108 49.577 37.1922 49.5636 37.1953 49.5458L37.7316 46.4179C37.7329 46.4108 37.7305 46.4037 37.7255 46.3986L35.4529 44.1834C35.44 44.1709 35.4471 44.149 35.4649 44.1465L38.6055 43.69C38.6126 43.689 38.6187 43.6845 38.6219 43.6782L40.0264 40.8323C40.0343 40.8162 40.0574 40.8162 40.0653 40.8323Z" stroke="#333846" stroke-width="1.5" stroke-miterlimit="10"/>
<path d="M23 95.0004L87 95.0004" stroke="#333846" stroke-width="1.5" stroke-linecap="round"/>
<path d="M89 95.0004L93 95.0004" stroke="#333846" stroke-width="1.5" stroke-linecap="round"/>
</svg>
