<svg width="112" height="112" viewBox="0 0 112 112" fill="none" xmlns="http://www.w3.org/2000/svg">
<g clip-path="url(#clip0_950_2742)">
<rect width="112" height="112" transform="translate(0 0.000366211)" fill="white"/>
<mask id="mask0_950_2742" style="mask-type:luminance" maskUnits="userSpaceOnUse" x="0" y="0" width="112" height="113">
<path d="M112 0.000366211H0V112H112V0.000366211Z" fill="white"/>
</mask>
<g mask="url(#mask0_950_2742)">
<path d="M93.8133 46.6159C93.5493 47.3202 92.4454 49.2774 92.2422 49.6159C90.1532 53.0661 87.0651 55.5072 83.9162 57.8808C83.6894 58.0534 83.4423 58.2363 83.1781 58.4294C78.7426 61.6731 73.3963 63.4371 67.901 63.4676L40.3329 63.6301C35.5282 63.6605 30.7881 62.3976 26.6911 59.8853C26.1154 59.5297 25.5907 59.1777 25.1573 58.8357C21.1213 55.6461 17.8606 51.881 16.9701 46.6566C16.2929 42.6916 16.9768 38.9402 19.5942 35.6491C21.514 33.2382 23.9214 31.5521 26.6302 30.1909C32.7655 27.103 38.8465 23.9101 45.0157 20.9C48.1882 19.3492 51.4794 18.0253 54.9702 17.3144C59.6969 16.3494 64.4 16.5999 69.0319 17.8527C75.3535 19.566 81.5462 21.6652 87.0381 25.3456C91.9814 28.6571 94.7444 33.3669 95.2388 39.2991C95.4521 41.8318 94.6902 44.256 93.8133 46.6159Z" fill="#E5F2FF"/>
<path d="M86.5444 74.05H83.6678V54.4291C83.6678 39.2495 71.3184 26.8999 56.1388 26.8999C40.9592 26.8999 28.6096 39.2495 28.6096 54.4291V74.05H25.7332V54.4291C25.7332 37.6632 39.3729 24.0234 56.1388 24.0234C72.9047 24.0234 86.5444 37.6632 86.5444 54.4291V74.05Z" fill="white"/>
<path d="M86.5444 74.05H83.6678V54.4291C83.6678 39.2495 71.3184 26.8999 56.1388 26.8999C40.9592 26.8999 28.6096 39.2495 28.6096 54.4291V74.05H25.7332V54.4291C25.7332 37.6632 39.3729 24.0234 56.1388 24.0234C72.9047 24.0234 86.5444 37.6632 86.5444 54.4291V74.05Z" stroke="#333846" stroke-width="1.5" stroke-linecap="round" stroke-linejoin="round"/>
<path d="M78.4378 31.6958C78.4378 32.2765 78.3203 32.8641 78.0852 33.4103C77.857 33.9496 77.5183 34.4543 77.062 34.8761C76.7785 35.1388 76.4744 35.3601 76.1426 35.5329C71.1233 30.2163 64.0093 26.8979 56.1416 26.8979C48.2671 26.8979 41.1599 30.2163 36.1338 35.5329C35.8019 35.3601 35.4977 35.1388 35.2142 34.8761C34.7579 34.4543 34.4191 33.9496 34.191 33.4103C33.4581 31.7026 33.866 29.6288 35.4146 28.3981C41.2704 23.7452 48.5989 21.1458 56.1416 21.1458C63.6774 21.1458 71.0058 23.7452 76.8616 28.3981C77.9124 29.2346 78.4378 30.4582 78.4378 31.6958Z" fill="#F34653"/>
<path d="M78.4378 31.6958C78.4378 32.2765 78.3203 32.8641 78.0852 33.4103C77.857 33.9496 77.5183 34.4543 77.062 34.8761C76.7785 35.1388 76.4744 35.3601 76.1426 35.5329C71.1233 30.2163 64.0093 26.8979 56.1416 26.8979C48.2671 26.8979 41.1599 30.2163 36.1338 35.5329C35.8019 35.3601 35.4977 35.1388 35.2142 34.8761C34.7579 34.4543 34.4191 33.9496 34.191 33.4103C33.4581 31.7026 33.866 29.6288 35.4146 28.3981C41.2704 23.7452 48.5989 21.1458 56.1416 21.1458C63.6774 21.1458 71.0058 23.7452 76.8616 28.3981C77.9124 29.2346 78.4378 30.4582 78.4378 31.6958Z" stroke="#333846" stroke-width="1.5" stroke-linecap="round" stroke-linejoin="round"/>
<path d="M80.3829 57.5188L80.0381 84.7007L80.6646 84.7086C81.5525 84.7198 82.4283 84.5028 83.2081 84.0779L88.6225 81.1279C89.6911 80.5458 90.3623 79.4321 90.3777 78.2151L90.5548 64.2592C90.5702 63.0415 89.9268 61.9106 88.8722 61.3017L83.5351 58.2203C82.767 57.7769 81.8981 57.5379 81.0113 57.5267L80.3829 57.5188Z" fill="#F2BF82"/>
<path d="M80.3829 57.5188L80.0381 84.7007L80.6646 84.7086C81.5525 84.7198 82.4283 84.5028 83.2081 84.0779L88.6225 81.1279C89.6911 80.5458 90.3623 79.4321 90.3777 78.2151L90.5548 64.2592C90.5702 63.0415 89.9268 61.9106 88.8722 61.3017L83.5351 58.2203C82.767 57.7769 81.8981 57.5379 81.0113 57.5267L80.3829 57.5188Z" fill="#F2BF82" stroke="#333846" stroke-width="1.5" stroke-linecap="round" stroke-linejoin="round"/>
<path d="M90.4686 71.0476L90.5548 64.2592C90.5702 63.0415 89.9268 61.9106 88.8722 61.3017L83.5351 58.2203C82.767 57.7769 81.8981 57.5379 81.0113 57.5267L80.3829 57.5188L80.0381 84.7007L80.6646 84.7086C81.5525 84.7198 82.4283 84.5028 83.2081 84.0779L88.6225 81.1279C89.6911 80.5458 90.3623 79.4321 90.3777 78.2151L90.4186 74.9972" fill="#F2BF82"/>
<path d="M90.4686 71.0476L90.5548 64.2592C90.5702 63.0415 89.9268 61.9106 88.8722 61.3017L83.5351 58.2203C82.767 57.7769 81.8981 57.5379 81.0113 57.5267L80.3829 57.5188L80.0381 84.7007L80.6646 84.7086C81.5525 84.7198 82.4283 84.5028 83.2081 84.0779L88.6225 81.1279C89.6911 80.5458 90.3623 79.4321 90.3777 78.2151L90.4186 74.9972" stroke="#333846" stroke-width="1.5" stroke-linecap="round" stroke-linejoin="round"/>
<path d="M75.6525 56.967L75.2951 85.1274C75.2785 86.4352 76.3265 87.5103 77.6363 87.5269C78.9442 87.5434 80.0192 86.4954 80.0358 85.1876L80.3932 57.0272C80.4098 55.7174 79.3617 54.6443 78.0538 54.6278C77.3998 54.6194 76.8037 54.8769 76.3685 55.2994C75.9333 55.7237 75.6609 56.313 75.6525 56.967Z" fill="#F9DFC0"/>
<path d="M75.6525 56.967L75.2951 85.1274C75.2785 86.4352 76.3265 87.5103 77.6363 87.5269C78.9442 87.5434 80.0192 86.4954 80.0358 85.1876L80.3932 57.0272C80.4098 55.7174 79.3617 54.6443 78.0538 54.6278C77.3998 54.6194 76.8037 54.8769 76.3685 55.2994C75.9333 55.7237 75.6609 56.313 75.6525 56.967Z" stroke="#333846" stroke-width="1.5" stroke-linecap="round" stroke-linejoin="round"/>
<path d="M68.8306 59.8302L68.5481 82.0919C68.5309 83.4498 69.619 84.5661 70.9787 84.5834L75.301 84.6382L75.646 57.4561L71.3237 57.4013C69.9641 57.384 68.8479 58.4705 68.8306 59.8302Z" fill="#E5E5E4"/>
<path d="M68.8306 59.8302L68.5481 82.0919C68.5309 83.4498 69.619 84.5661 70.9787 84.5834L75.301 84.6382L75.646 57.4561L71.3237 57.4013C69.9641 57.384 68.8479 58.4705 68.8306 59.8302Z" stroke="#333846" stroke-width="1.5" stroke-linecap="round" stroke-linejoin="round"/>
<path d="M31.6177 57.5553L31.9625 84.7372L31.336 84.7451C30.4481 84.7563 29.5723 84.5393 28.7926 84.1144L23.3781 81.1644C22.3095 80.5823 21.6383 79.4686 21.623 78.2516L21.4458 64.2957C21.4304 63.078 22.0738 61.9471 23.1284 61.3382L28.4655 58.2568C29.2336 57.8134 30.1025 57.5744 30.9894 57.5632L31.6177 57.5553Z" fill="#F2BF82"/>
<path d="M31.6177 57.5553L31.9625 84.7372L31.336 84.7451C30.4481 84.7563 29.5723 84.5393 28.7926 84.1144L23.3781 81.1644C22.3095 80.5823 21.6383 79.4686 21.623 78.2516L21.4458 64.2957C21.4304 63.078 22.0738 61.9471 23.1284 61.3382L28.4655 58.2568C29.2336 57.8134 30.1025 57.5744 30.9894 57.5632L31.6177 57.5553Z" fill="#F2BF82" stroke="#333846" stroke-width="1.5" stroke-linecap="round" stroke-linejoin="round"/>
<path d="M21.532 71.0841L21.4458 64.2957C21.4304 63.078 22.0738 61.9471 23.1284 61.3382L28.4655 58.2568C29.2336 57.8134 30.1025 57.5744 30.9894 57.5632L31.6177 57.5553L31.9625 84.7372L31.336 84.7451C30.4481 84.7563 29.5723 84.5393 28.7926 84.1144L23.3781 81.1644C22.3095 80.5823 21.6383 79.4686 21.623 78.2516L21.582 75.0337" fill="#F2BF82"/>
<path d="M21.532 71.0841L21.4458 64.2957C21.4304 63.078 22.0738 61.9471 23.1284 61.3382L28.4655 58.2568C29.2336 57.8134 30.1025 57.5744 30.9894 57.5632L31.6177 57.5553L31.9625 84.7372L31.336 84.7451C30.4481 84.7563 29.5723 84.5393 28.7926 84.1144L23.3781 81.1644C22.3095 80.5823 21.6383 79.4686 21.623 78.2516L21.582 75.0337" stroke="#333846" stroke-width="1.5" stroke-linecap="round" stroke-linejoin="round"/>
<path d="M36.3486 57.0037L36.706 85.164C36.7225 86.4719 35.6745 87.5469 34.3647 87.5635C33.0569 87.5801 31.9818 86.5321 31.9653 85.2242L31.6079 57.0639C31.5913 55.754 32.6394 54.681 33.9473 54.6644C34.6013 54.656 35.1974 54.9135 35.6326 55.336C36.0678 55.7603 36.3402 56.3497 36.3486 57.0037Z" fill="#F9DFC0"/>
<path d="M36.3486 57.0037L36.706 85.164C36.7225 86.4719 35.6745 87.5469 34.3647 87.5635C33.0569 87.5801 31.9818 86.5321 31.9653 85.2242L31.6079 57.0639C31.5913 55.754 32.6394 54.681 33.9473 54.6644C34.6013 54.656 35.1974 54.9135 35.6326 55.336C36.0678 55.7603 36.3402 56.3497 36.3486 57.0037Z" stroke="#333846" stroke-width="1.5" stroke-linecap="round" stroke-linejoin="round"/>
<path d="M43.1696 59.8668L43.4522 82.1285C43.4693 83.4865 42.3812 84.6027 41.0215 84.62L36.6992 84.6748L36.3542 57.4928L40.6765 57.4379C42.0362 57.4206 43.1523 58.5072 43.1696 59.8668Z" fill="#E5E5E4"/>
<path d="M43.1696 59.8668L43.4522 82.1285C43.4693 83.4865 42.3812 84.6027 41.0215 84.62L36.6992 84.6748L36.3542 57.4928L40.6765 57.4379C42.0362 57.4206 43.1523 58.5072 43.1696 59.8668Z" stroke="#333846" stroke-width="1.5" stroke-linecap="round" stroke-linejoin="round"/>
<path d="M85.2951 82.9358V87.4046C85.2951 89.9621 83.2219 92.0353 80.6644 92.0353H59.4792" stroke="#333846" stroke-width="1.5" stroke-linecap="round" stroke-linejoin="round"/>
<path d="M59.6182 92.0352C59.6182 93.4865 57.9527 94.6629 55.8984 94.6629C53.8441 94.6629 52.1787 93.4865 52.1787 92.0352C52.1787 90.5839 53.8441 89.4075 55.8984 89.4075C57.9527 89.4075 59.6182 90.5839 59.6182 92.0352Z" fill="#F2BF82"/>
<path d="M59.6182 92.0352C59.6182 93.4865 57.9527 94.6629 55.8984 94.6629C53.8441 94.6629 52.1787 93.4865 52.1787 92.0352C52.1787 90.5839 53.8441 89.4075 55.8984 89.4075C57.9527 89.4075 59.6182 90.5839 59.6182 92.0352Z" stroke="#333846" stroke-width="1.5" stroke-linecap="round" stroke-linejoin="round"/>
<path d="M16.7256 95.275H86.7538" stroke="#333846" stroke-width="1.5" stroke-linecap="round" stroke-linejoin="round"/>
<path d="M89.6975 95.275H95.275" stroke="#333846" stroke-width="1.5" stroke-linecap="round" stroke-linejoin="round"/>
<path d="M67.0808 44.9252C67.0808 50.1272 62.1235 54.344 56.0116 54.344C54.4554 54.344 52.9745 54.0741 51.6379 53.5784L46.6368 55.279L47.4148 50.8551C45.8711 49.2361 44.9424 47.1779 44.9424 44.9252C44.9424 39.7294 49.8998 35.5127 56.0116 35.5127C62.1235 35.5127 67.0808 39.7294 67.0808 44.9252Z" fill="#3A9F59"/>
<path d="M67.0798 44.9225C67.0798 50.1234 62.1246 54.3415 56.0147 54.3415C54.4585 54.3415 52.9761 54.0712 51.641 53.5798L46.6367 55.2752L47.169 52.2612L49.6262 51.4257C50.9612 51.9253 52.4436 52.1956 53.9999 52.1956C60.1099 52.1956 65.0731 47.9776 65.0731 42.7767C65.0731 41.0568 64.5326 39.4515 63.5907 38.0756C65.7365 39.7873 67.0798 42.2198 67.0798 44.9225Z" fill="#88C29A"/>
<path d="M67.0808 44.9252C67.0808 50.1272 62.1235 54.344 56.0116 54.344C54.4554 54.344 52.9745 54.0741 51.6379 53.5784L46.6368 55.279L47.4148 50.8551C45.8711 49.2361 44.9424 47.1779 44.9424 44.9252C44.9424 39.7294 49.8998 35.5127 56.0116 35.5127C62.1235 35.5127 67.0808 39.7294 67.0808 44.9252Z" stroke="#333846" stroke-width="1.5" stroke-linecap="round" stroke-linejoin="round"/>
<path d="M52.1544 45.3958C52.1544 46.3961 51.3436 47.2069 50.3433 47.2069C49.3431 47.2069 48.5322 46.3961 48.5322 45.3958C48.5322 44.3955 49.3431 43.5848 50.3433 43.5848C51.3436 43.5848 52.1544 44.3955 52.1544 45.3958Z" fill="white"/>
<path d="M57.8224 45.3958C57.8224 46.3961 57.0116 47.2069 56.0113 47.2069C55.011 47.2069 54.2002 46.3961 54.2002 45.3958C54.2002 44.3955 55.011 43.5848 56.0113 43.5848C57.0116 43.5848 57.8224 44.3955 57.8224 45.3958Z" fill="white"/>
<path d="M63.489 45.3958C63.489 46.3951 62.679 47.2052 61.6797 47.2052C60.6804 47.2052 59.8704 46.3951 59.8704 45.3958C59.8704 44.3966 60.6804 43.5867 61.6797 43.5867C62.679 43.5867 63.489 44.3966 63.489 45.3958Z" fill="white"/>
</g>
</g>
<defs>
<clipPath id="clip0_950_2742">
<rect width="112" height="112" fill="white" transform="translate(0 0.000366211)"/>
</clipPath>
</defs>
</svg>
