<svg width="112" height="112" viewBox="0 0 112 112" fill="none" xmlns="http://www.w3.org/2000/svg">
<g clip-path="url(#clip0_950_2598)">
<rect y="0.000366211" width="112" height="112" rx="4" fill="white"/>
<mask id="mask0_950_2598" style="mask-type:luminance" maskUnits="userSpaceOnUse" x="0" y="0" width="112" height="113">
<path d="M112 0.000366211H0V112H112V0.000366211Z" fill="white"/>
</mask>
<g mask="url(#mask0_950_2598)">
<path d="M94.7453 51.3943C93.7201 56.4195 92.4823 61.3711 90.0102 65.9089C86.9619 71.5106 82.482 74.9847 75.9287 75.7545C72.8918 76.1103 67.7661 75.4758 65.3174 75.12C64.4547 74.9962 63.6075 74.8144 62.7718 74.5707L44.9495 69.3481C44.6362 69.2552 44.3306 69.1547 44.0288 69.0387C42.141 68.3192 34.6205 65.5027 30.8874 64.8915C27.9241 64.4041 24.926 64.1526 22.0052 63.3828C18.6358 62.497 16.7981 60.172 16.7324 56.6361C16.6008 49.5024 18.4113 42.6861 20.1289 35.8659C21.069 32.1366 22.2916 28.5003 24.4038 25.2275C27.3516 20.6588 31.7036 18.384 36.9107 17.4634C42.2453 16.5156 47.642 16.6664 52.996 16.9062C61.708 17.2969 70.2884 18.6973 78.2305 22.5349C85.3873 25.9972 91.4299 30.686 94.0645 38.6165C95.4301 42.7325 95.6157 47.1506 94.7453 51.3943Z" fill="#E5F2FF"/>
<path d="M38.6483 32.1466C38.6353 30.9171 37.6356 29.9244 36.4032 29.9244C36.1104 29.9244 35.8292 29.9822 35.571 30.0862C35.1625 28.5875 33.7948 27.4816 32.165 27.4816C30.4157 27.4816 28.9633 28.7531 28.6858 30.4176C28.3044 30.1094 27.815 29.9244 27.2833 29.9244C26.0508 29.9244 25.0513 30.9171 25.0383 32.1466H38.6483Z" fill="white"/>
<path d="M74.9003 26.6058C74.8851 25.1761 73.723 24.0216 72.2897 24.0216C71.9492 24.0216 71.622 24.0888 71.3219 24.2097C70.847 22.4667 69.2563 21.1808 67.3609 21.1808C65.3267 21.1808 63.6375 22.6595 63.3149 24.5951C62.8714 24.2367 62.3023 24.0216 61.6839 24.0216C60.2506 24.0216 59.0885 25.1761 59.0732 26.6058H74.9003Z" fill="white"/>
<path d="M16.7256 95.275H89.1309" stroke="#333846" stroke-width="1.5" stroke-linecap="round" stroke-linejoin="round"/>
<path d="M92.2842 95.275H95.2752" stroke="#333846" stroke-width="1.5" stroke-linecap="round" stroke-linejoin="round"/>
<path d="M75.6891 35.4012V91.6215C75.6891 93.6367 74.0535 95.2723 72.0383 95.2723H24.7766C22.7616 95.2723 21.126 93.6367 21.126 91.6215L21.1333 35.4012C21.1333 33.3859 22.7616 31.7505 24.784 31.7505H72.0383C74.0535 31.7505 75.6891 33.3859 75.6891 35.4012Z" fill="#F9DFC0"/>
<path d="M71.3083 36.1313V90.8914H25.5068L25.5142 36.1313H71.3083Z" fill="#F2F9FF"/>
<path d="M71.3083 36.1304V90.889H67.9697V36.1304H71.3083Z" fill="#F4F5F5"/>
<path d="M75.6862 35.402V91.6255C75.6862 93.6385 74.0497 95.275 72.0367 95.275H68.96C70.9729 95.275 72.6094 93.6385 72.6094 91.6255V35.402C72.6094 33.3891 70.9729 31.7526 68.96 31.7526H72.0367C74.0497 31.7526 75.6862 33.3891 75.6862 35.402Z" fill="#F2BF82"/>
<path d="M20.8945 35.4023V91.6258C20.8945 93.6388 22.531 95.2753 24.544 95.2753H27.6208C25.6078 95.2753 23.9713 93.6388 23.9713 91.6258V35.4023C23.9713 33.3893 25.6078 31.7528 27.6208 31.7528H24.544C22.531 31.7528 20.8945 33.3893 20.8945 35.4023Z" fill="#F2BF82"/>
<path d="M75.6891 35.4012V91.6215C75.6891 93.6367 74.0535 95.2723 72.0383 95.2723H24.7766C22.7616 95.2723 21.126 93.6367 21.126 91.6215L21.1333 35.4012C21.1333 33.3859 22.7616 31.7505 24.784 31.7505H72.0383C74.0535 31.7505 75.6891 33.3859 75.6891 35.4012Z" stroke="#333846" stroke-width="1.5" stroke-linecap="round" stroke-linejoin="round"/>
<path d="M71.3083 36.1313V90.8914H25.5068L25.5142 36.1313H71.3083Z" stroke="#333846" stroke-width="1.5" stroke-linecap="round" stroke-linejoin="round"/>
<path d="M60.766 37.8014H36.0564V29.6964C36.0564 27.4367 37.8882 25.6047 40.1479 25.6047H56.6743C58.934 25.6047 60.766 27.4367 60.766 29.6964V37.8014Z" fill="#F34653"/>
<path d="M40.5073 31.7031C40.5073 30.7934 41.2448 30.056 42.1545 30.056H54.6678C55.5775 30.056 56.3148 30.7934 56.3148 31.7031C56.3148 32.6128 55.5775 33.3501 54.6678 33.3501H42.1545C41.2448 33.3501 40.5073 32.6128 40.5073 31.7031Z" fill="white"/>
<path d="M60.766 37.8014H36.0564V29.6964C36.0564 27.4367 37.8882 25.6047 40.1479 25.6047H56.6743C58.934 25.6047 60.766 27.4367 60.766 29.6964V37.8014Z" stroke="#333846" stroke-width="1.5" stroke-linecap="round" stroke-linejoin="round"/>
<path d="M57.788 46.3693H39.0285C38.1247 46.3693 37.3918 45.6367 37.3918 44.7328C37.3918 43.829 38.1247 43.0962 39.0285 43.0962H57.788C58.6918 43.0962 59.4245 43.829 59.4245 44.7328C59.4245 45.6367 58.6918 46.3693 57.788 46.3693Z" fill="#FAB5BA"/>
<path d="M65.8723 53.0004H30.8182C30.3659 53.0004 30 52.3294 30 51.5002C30 50.671 30.3659 50.0004 30.8182 50.0004H65.8723C66.3246 50.0004 66.6905 50.671 66.6905 51.5002C66.6905 52.3294 66.3246 53.0004 65.8723 53.0004Z" fill="#333846" fill-opacity="0.2"/>
<path d="M65.8723 61.0004H30.8182C30.3659 61.0004 30 60.3296 30 59.5004C30 58.6711 30.3659 58.0004 30.8182 58.0004H65.8723C66.3246 58.0004 66.6905 58.6711 66.6905 59.5004C66.6905 60.3296 66.3246 61.0004 65.8723 61.0004Z" fill="#333846" fill-opacity="0.2"/>
<path d="M65.8723 68.9713H30.8182C30.3659 68.9713 30 68.3071 30 67.4858C30 66.6646 30.3659 66.0004 30.8182 66.0004H65.8723C66.3246 66.0004 66.6905 66.6646 66.6905 67.4858C66.6905 68.3071 66.3246 68.9713 65.8723 68.9713Z" fill="#333846" fill-opacity="0.2"/>
<path d="M65.8723 77.3702H30.8182C30.3659 77.3702 30 76.6167 30 75.6853C30 74.7538 30.3659 74.0004 30.8182 74.0004H65.8723C66.3246 74.0004 66.6905 74.7538 66.6905 75.6853C66.6905 76.6167 66.3246 77.3702 65.8723 77.3702Z" fill="#333846" fill-opacity="0.2"/>
<path d="M48.3484 85.0754H30.8182C30.3659 85.0754 30 84.3878 30 83.5379C30 82.6879 30.3659 82.0004 30.8182 82.0004H48.3484C48.8008 82.0004 49.1666 82.6879 49.1666 83.5379C49.1666 84.3878 48.8008 85.0754 48.3484 85.0754Z" fill="#333846" fill-opacity="0.2"/>
<path d="M91.1013 83.6051C91.1013 90.0494 85.8773 95.2734 79.433 95.2734C72.9886 95.2734 67.7646 90.0494 67.7646 83.6051C67.7646 77.1608 72.9886 71.9366 79.433 71.9366C85.8773 71.9366 91.1013 77.1608 91.1013 83.6051Z" fill="#3A9F59"/>
<path d="M91.1035 83.602C91.1035 90.0508 85.8792 95.2751 79.4304 95.2751C75.6433 95.2751 72.2747 93.4652 70.1377 90.6592C72.0922 92.1345 74.5332 93.009 77.1643 93.009C83.6129 93.009 88.8374 87.7845 88.8374 81.3359C88.8374 78.7048 87.9627 76.2636 86.4875 74.3094C89.2936 76.4463 91.1035 79.8149 91.1035 83.602Z" fill="#296F3E"/>
<path d="M91.1013 83.6051C91.1013 90.0494 85.8773 95.2734 79.433 95.2734C72.9886 95.2734 67.7646 90.0494 67.7646 83.6051C67.7646 77.1608 72.9886 71.9366 79.433 71.9366C85.8773 71.9366 91.1013 77.1608 91.1013 83.6051Z" stroke="#333846" stroke-width="1.5" stroke-linecap="round" stroke-linejoin="round"/>
<path d="M76.4229 88.7067C76.2209 88.7067 76.0279 88.6265 75.8853 88.4839L73.2237 85.8223C72.9267 85.5253 72.9267 85.044 73.2237 84.747C73.5208 84.4499 74.0021 84.4499 74.2991 84.747L76.4229 86.8708L84.5667 78.7264C84.8637 78.4294 85.345 78.4294 85.642 78.7264C85.939 79.0235 85.939 79.5046 85.642 79.8016L76.9607 88.4839C76.818 88.6265 76.625 88.7067 76.4229 88.7067Z" fill="white"/>
</g>
</g>
<defs>
<clipPath id="clip0_950_2598">
<rect y="0.000366211" width="112" height="112" rx="4" fill="white"/>
</clipPath>
</defs>
</svg>
