<svg width="60" height="60" viewBox="0 0 60 60" fill="none" xmlns="http://www.w3.org/2000/svg">
<path fill-rule="evenodd" clip-rule="evenodd" d="M46.9223 31.3867C43.3466 22.0944 30.6154 21.5934 33.69 8.08777C33.9177 7.08567 32.8473 6.31132 31.9819 6.83515C23.7145 11.709 17.7702 21.4795 22.758 34.2791C23.1679 35.3268 21.9381 36.3061 21.0498 35.6228C16.9275 32.5026 16.4948 28.016 16.8592 24.8047C16.9959 23.6204 15.4472 23.051 14.7867 24.0303C13.238 26.3989 11.6665 30.2251 11.6665 35.9872C12.532 48.7413 23.3046 52.6586 27.1763 53.1596C32.7107 53.8657 38.7005 52.8408 43.005 48.9007C47.7422 44.5051 49.4731 37.4904 46.9223 31.3867Z" fill="#007FFF"/>
<path fill-rule="evenodd" clip-rule="evenodd" d="M25.7876 42.8426C29.0672 42.0454 30.7526 39.6768 31.2081 37.5815C31.9596 34.3247 29.0217 31.1362 31.0031 25.989C31.7547 30.248 38.4505 32.9126 38.4505 37.5588C38.6327 43.3208 32.3924 48.263 25.7876 42.8426Z" fill="#0055AC"/>
</svg>
