<svg width="36" height="36" viewBox="0 0 36 36" fill="none" xmlns="http://www.w3.org/2000/svg">
<g clip-path="url(#clip0_1297_5879)">
<path d="M33.5252 14.899H32.2498V14.8333H17.9998V21.1667H26.948C25.6426 24.8535 22.1347 27.5 17.9998 27.5C12.7535 27.5 8.49984 23.2464 8.49984 18C8.49984 12.7536 12.7535 8.5 17.9998 8.5C20.4215 8.5 22.6248 9.41359 24.3023 10.9059L28.7808 6.42742C25.9529 3.79196 22.1703 2.16667 17.9998 2.16667C9.25588 2.16667 2.1665 9.25605 2.1665 18C2.1665 26.744 9.25588 33.8333 17.9998 33.8333C26.7438 33.8333 33.8332 26.744 33.8332 18C33.8332 16.9384 33.7239 15.9021 33.5252 14.899Z" fill="#FBB438"/>
<path d="M3.99219 10.6304L9.19423 14.4454C10.6018 10.9605 14.0107 8.50001 17.9999 8.50001C20.4216 8.50001 22.6249 9.41359 24.3024 10.9059L28.7809 6.42742C25.953 3.79196 22.1704 2.16667 17.9999 2.16667C11.9184 2.16667 6.64427 5.60013 3.99219 10.6304Z" fill="#F1553F"/>
<path d="M17.9999 33.8333C22.0897 33.8333 25.8058 32.2682 28.6154 29.723L23.715 25.5762C22.1253 26.7804 20.1493 27.5 17.9999 27.5C13.8817 27.5 10.3849 24.874 9.06755 21.2094L3.9043 25.1875C6.52471 30.3152 11.8463 33.8333 17.9999 33.8333Z" fill="#24B768"/>
<path d="M33.5254 14.899H32.25V14.8333H18V21.1667H26.9482C26.3212 22.9376 25.182 24.4647 23.7127 25.577C23.7135 25.5762 23.7142 25.5762 23.715 25.5755L28.6155 29.7222C28.2687 30.0373 33.8333 25.9167 33.8333 18C33.8333 16.9384 33.7241 15.9021 33.5254 14.899Z" fill="#198CCA"/>
</g>
<defs>
<clipPath id="clip0_1297_5879">
<rect width="36" height="36" fill="white"/>
</clipPath>
</defs>
</svg>
