<svg width="36" height="36" viewBox="0 0 36 36" fill="none" xmlns="http://www.w3.org/2000/svg">
<path d="M22.59 9H15C10 12.3 6.36 20.37 6.36 25.51C6.36 31.99 11.5 32.51 18.77 32.51C26.04 32.51 31.18 32.01 31.18 25.51C31.18 20.37 27.52 12.3 22.59 9Z" fill="#007FFF"/>
<path d="M22.59 9H20.89C25.94 12.88 29.61 21.2 29.61 26.59C29.6902 28.1601 29.2776 29.716 28.43 31.04C30.18 30.04 31.18 28.34 31.18 25.48C31.18 20.37 27.52 12.3 22.59 9Z" fill="#0066CC"/>
<path d="M15.35 7.86006H21.78C24.04 7.86006 26.09 4.74006 25.33 3.75006C24.57 2.76006 22.59 3.82006 21.53 3.42006C20.66 3.10006 19.53 2.06006 18.53 2.06006C17.53 2.06006 16.43 3.06006 15.53 3.42006C14.47 3.82006 12.53 2.69006 11.73 3.75006C10.93 4.81006 13.09 7.86006 15.35 7.86006Z" fill="#0066CC"/>
<path d="M19 27.47C20.106 27.47 21.1872 27.1419 22.1067 26.5273C23.0262 25.9126 23.7426 25.0389 24.1654 24.0169C24.5882 22.9949 24.6984 21.8704 24.4818 20.7858C24.2653 19.7012 23.732 18.7052 22.9492 17.9238C22.1664 17.1424 21.1694 16.6108 20.0844 16.3962C18.9994 16.1817 17.8751 16.2938 16.8539 16.7184C15.8326 17.1431 14.9603 17.8611 14.3472 18.7817C13.7342 19.7023 13.408 20.784 13.41 21.89C13.41 22.6237 13.5547 23.3501 13.8357 24.0277C14.1168 24.7054 14.5287 25.321 15.0479 25.8392C15.5671 26.3575 16.1834 26.7683 16.8616 27.0482C17.5397 27.328 18.2664 27.4714 19 27.47Z" fill="#004C98"/>
</svg>
