<svg width="36" height="36" viewBox="0 0 36 36" fill="none" xmlns="http://www.w3.org/2000/svg">
<path d="M24.692 6.0142C19.988 6.0142 18 9.37988 18 9.37988C18 9.37988 16.012 6 11.308 6C7.332 6.0142 4 9.37988 4 13.3988C4 21.1757 13.9678 27.6483 17.0819 29.4806C17.6509 29.8154 18.3491 29.8154 18.9181 29.4806C22.0322 27.6483 32 21.1757 32 13.3988C32 9.37988 28.668 6.0142 24.692 6.0142Z" fill="#007FFF"/>
<path fill-rule="evenodd" clip-rule="evenodd" d="M18 29.7317C18.3168 29.7317 18.6336 29.648 18.9181 29.4806C22.0322 27.6482 32 21.1757 32 13.3988C32 9.37984 28.668 6.01416 24.692 6.01416C19.988 6.01416 18 9.37984 18 9.37984V29.7317Z" fill="#0066CC"/>
<path d="M22 18.1065C21.9978 18.4078 21.8767 18.696 21.6633 18.9083C21.4499 19.1205 21.1615 19.2396 20.8608 19.2396H19.288V20.8669C19.2857 21.1682 19.1647 21.4564 18.9513 21.6686C18.7379 21.8809 18.4494 22 18.1488 22H17.8427C17.542 22 17.2536 21.8809 17.0402 21.6686C16.8268 21.4564 16.7058 21.1682 16.7035 20.8669V19.2396H15.1392C14.8385 19.2396 14.5501 19.1205 14.3367 18.9083C14.1233 18.696 14.0022 18.4078 14 18.1065V17.9191C14 17.6163 14.12 17.3259 14.3337 17.1118C14.5473 16.8977 14.8371 16.7774 15.1392 16.7774H16.7035V15.1416C16.7035 14.8389 16.8235 14.5485 17.0372 14.3344C17.2508 14.1203 17.5406 14 17.8427 14H18.1488C18.4509 14 18.7407 14.1203 18.9543 14.3344C19.168 14.5485 19.288 14.8389 19.288 15.1416V16.7774H20.8608C21.1629 16.7774 21.4527 16.8977 21.6663 17.1118C21.88 17.3259 22 17.6163 22 17.9191V18.1065Z" fill="white"/>
</svg>
