<svg width="24" height="24" viewBox="0 0 24 24" fill="none" xmlns="http://www.w3.org/2000/svg">
<path fill-rule="evenodd" clip-rule="evenodd" d="M12 3.72656C14.6719 3.72656 14.9883 3.73828 16.0391 3.78516C17.0156 3.82812 17.543 3.99219 17.8945 4.12891C18.3594 4.30859 18.6953 4.52734 19.043 4.875C19.3945 5.22656 19.6094 5.55859 19.7891 6.02344C19.9258 6.375 20.0898 6.90625 20.1328 7.87891C20.1797 8.93359 20.1914 9.25 20.1914 11.918C20.1914 14.5898 20.1797 14.9062 20.1328 15.957C20.0898 16.9336 19.9258 17.4609 19.7891 17.8125C19.6094 18.2773 19.3906 18.6133 19.043 18.9609C18.6914 19.3125 18.3594 19.5273 17.8945 19.707C17.543 19.8438 17.0117 20.0078 16.0391 20.0508C14.9844 20.0977 14.668 20.1094 12 20.1094C9.32812 20.1094 9.01172 20.0977 7.96094 20.0508C6.98438 20.0078 6.45703 19.8438 6.10547 19.707C5.64062 19.5273 5.30469 19.3086 4.95703 18.9609C4.60547 18.6094 4.39062 18.2773 4.21094 17.8125C4.07422 17.4609 3.91016 16.9297 3.86719 15.957C3.82031 14.9023 3.80859 14.5859 3.80859 11.918C3.80859 9.24609 3.82031 8.92969 3.86719 7.87891C3.91016 6.90234 4.07422 6.375 4.21094 6.02344C4.39062 5.55859 4.60937 5.22266 4.95703 4.875C5.30859 4.52344 5.64062 4.30859 6.10547 4.12891C6.45703 3.99219 6.98828 3.82812 7.96094 3.78516C9.01172 3.73828 9.32812 3.72656 12 3.72656ZM12 1.92578C9.28516 1.92578 8.94531 1.9375 7.87891 1.98437C6.81641 2.03125 6.08594 2.20312 5.45312 2.44922C4.79297 2.70703 4.23438 3.04687 3.67969 3.60547C3.12109 4.16016 2.78125 4.71875 2.52344 5.375C2.27734 6.01172 2.10547 6.73828 2.05859 7.80078C2.01172 8.87109 2 9.21094 2 11.9258C2 14.6406 2.01172 14.9805 2.05859 16.0469C2.10547 17.1094 2.27734 17.8398 2.52344 18.4727C2.78125 19.1328 3.12109 19.6914 3.67969 20.2461C4.23438 20.8008 4.79297 21.1445 5.44922 21.3984C6.08594 21.6445 6.8125 21.8164 7.875 21.8633C8.94141 21.9102 9.28125 21.9219 11.9961 21.9219C14.7109 21.9219 15.0508 21.9102 16.1172 21.8633C17.1797 21.8164 17.9102 21.6445 18.543 21.3984C19.1992 21.1445 19.7578 20.8008 20.3125 20.2461C20.8672 19.6914 21.2109 19.1328 21.4648 18.4766C21.7109 17.8398 21.8828 17.1133 21.9297 16.0508C21.9766 14.9844 21.9883 14.6445 21.9883 11.9297C21.9883 9.21484 21.9766 8.875 21.9297 7.80859C21.8828 6.74609 21.7109 6.01562 21.4648 5.38281C21.2187 4.71875 20.8789 4.16016 20.3203 3.60547C19.7656 3.05078 19.207 2.70703 18.5508 2.45312C17.9141 2.20703 17.1875 2.03516 16.125 1.98828C15.0547 1.9375 14.7148 1.92578 12 1.92578ZM12 6.78906C9.16406 6.78906 6.86328 9.08984 6.86328 11.9258C6.86328 14.7617 9.16406 17.0625 12 17.0625C14.8359 17.0625 17.1367 14.7617 17.1367 11.9258C17.1367 9.08984 14.8359 6.78906 12 6.78906ZM12 15.2578C10.1602 15.2578 8.66797 13.7656 8.66797 11.9258C8.66797 10.0859 10.1602 8.59375 12 8.59375C13.8398 8.59375 15.332 10.0859 15.332 11.9258C15.332 13.7656 13.8398 15.2578 12 15.2578ZM17.3398 7.78517C18 7.78517 18.5391 7.25001 18.5391 6.58595C18.5391 5.92579 18 5.38673 17.3398 5.38673C16.6797 5.38673 16.1406 5.92189 16.1406 6.58595C16.1406 7.24611 16.6758 7.78517 17.3398 7.78517Z" fill="#333846"/>
</svg>
