<svg width="36" height="36" viewBox="0 0 36 36" fill="none" xmlns="http://www.w3.org/2000/svg">
<path d="M18.35 30.77C19.9592 30.7388 21.5464 30.3906 23.0209 29.7452C24.4953 29.0998 25.828 28.17 26.9426 27.0089C28.0572 25.8478 28.9319 24.4783 29.5166 22.9788C30.1013 21.4793 30.3845 19.8791 30.35 18.27C30.3858 16.6606 30.1035 15.0598 29.5193 13.5597C28.9351 12.0596 28.0605 10.6896 26.9456 9.52825C25.8307 8.36691 24.4975 7.43711 23.0225 6.79219C21.5475 6.14726 19.9596 5.7999 18.35 5.77002C16.7404 5.7999 15.1526 6.14726 13.6775 6.79219C12.2025 7.43711 10.8693 8.36691 9.75442 9.52825C8.63954 10.6896 7.7649 12.0596 7.1807 13.5597C6.59649 15.0598 6.31419 16.6606 6.35001 18.27C6.31552 19.8791 6.59873 21.4793 7.18342 22.9788C7.7681 24.4783 8.6428 25.8478 9.75742 27.0089C10.872 28.17 12.2047 29.0998 13.6791 29.7452C15.1536 30.3906 16.7408 30.7388 18.35 30.77Z" fill="#007FFF"/>
<path fill-rule="evenodd" clip-rule="evenodd" d="M16.2065 13C15.8163 13 15.5 13.3163 15.5 13.7065C15.5 14.0967 15.8163 14.413 16.2065 14.413H16.5H17.6195C18.5423 14.413 19.3274 15.0028 19.6184 15.826H16.2065C15.8163 15.826 15.5 16.1423 15.5 16.5325C15.5 16.9227 15.8163 17.239 16.2065 17.239H19.6184C19.3274 18.0622 18.5423 18.652 17.6195 18.652H16.7342C16.723 18.6507 16.7116 18.65 16.7 18.65H16.25C15.8843 18.65 15.5797 18.9118 15.5134 19.2582C15.349 19.5299 15.3841 19.8884 15.6187 20.1231L19.9961 24.5004C20.272 24.7763 20.7193 24.7763 20.9952 24.5004C21.2711 24.2245 21.2711 23.7772 20.9952 23.5013L17.5589 20.0649H17.6195C19.3285 20.0649 20.754 18.8514 21.0813 17.239H21.8584C22.2486 17.239 22.5649 16.9227 22.5649 16.5325C22.5649 16.1423 22.2486 15.826 21.8584 15.826H21.0813C20.9753 15.304 20.7543 14.8238 20.4457 14.413H21.8584C22.2486 14.413 22.5649 14.0967 22.5649 13.7065C22.5649 13.3163 22.2486 13 21.8584 13H17.6195H16.5H16.2065Z" fill="white"/>
<path d="M20 5.77002C19.72 5.77002 19.44 5.77002 19.16 5.77002C22.2538 6.0577 25.1235 7.50744 27.1907 9.82705C29.2579 12.1467 30.369 15.1637 30.3 18.27C30.3594 21.3622 29.2489 24.3627 27.1908 26.6711C25.1327 28.9796 22.2787 30.4257 19.2 30.72C19.48 30.72 19.76 30.77 20.04 30.77C21.6492 30.7388 23.2364 30.3906 24.7109 29.7452C26.1853 29.0998 27.518 28.17 28.6326 27.0089C29.7472 25.8478 30.6219 24.4783 31.2066 22.9788C31.7913 21.4793 32.0745 19.8791 32.04 18.27C32.0758 16.6572 31.7922 15.0533 31.2055 13.5506C30.6188 12.0479 29.7406 10.6761 28.6215 9.51427C27.5024 8.35241 26.1645 7.42342 24.6848 6.78082C23.2052 6.13821 21.613 5.79468 20 5.77002Z" fill="#0066CC"/>
<path d="M5.39999 30.77C5.79556 30.77 6.18224 30.6527 6.51113 30.433C6.84003 30.2132 7.09638 29.9008 7.24775 29.5354C7.39913 29.1699 7.43873 28.7678 7.36156 28.3798C7.28439 27.9919 7.09391 27.6355 6.81421 27.3558C6.5345 27.0761 6.17814 26.8856 5.79017 26.8084C5.40221 26.7313 5.00008 26.7709 4.63463 26.9223C4.26917 27.0736 3.95682 27.33 3.73705 27.6589C3.51729 27.9878 3.39999 28.3745 3.39999 28.77C3.39999 29.3005 3.61071 29.8092 3.98578 30.1842C4.36085 30.5593 4.86956 30.77 5.39999 30.77Z" fill="#FDCA40"/>
<path d="M25.8 5.19995C25.9978 5.19995 26.1911 5.1413 26.3556 5.03142C26.52 4.92154 26.6482 4.76536 26.7239 4.58264C26.7996 4.39991 26.8194 4.19884 26.7808 4.00486C26.7422 3.81088 26.6469 3.6327 26.5071 3.49284C26.3672 3.35299 26.1891 3.25775 25.9951 3.21917C25.8011 3.18058 25.6 3.20038 25.4173 3.27607C25.2346 3.35176 25.0784 3.47993 24.9685 3.64438C24.8586 3.80883 24.8 4.00217 24.8 4.19995C24.8 4.46517 24.9053 4.71952 25.0929 4.90706C25.2804 5.09459 25.5348 5.19995 25.8 5.19995Z" fill="#FDCA40"/>
<path d="M30.3 22.2C30.5967 22.2 30.8867 22.112 31.1333 21.9472C31.38 21.7823 31.5723 21.5481 31.6858 21.274C31.7993 20.9999 31.829 20.6983 31.7712 20.4073C31.7133 20.1163 31.5704 19.8491 31.3606 19.6393C31.1509 19.4295 30.8836 19.2867 30.5926 19.2288C30.3017 19.1709 30.0001 19.2006 29.726 19.3141C29.4519 19.4277 29.2176 19.6199 29.0528 19.8666C28.888 20.1133 28.8 20.4033 28.8 20.7C28.8 21.0978 28.958 21.4793 29.2393 21.7606C29.5206 22.0419 29.9022 22.2 30.3 22.2Z" fill="#FDCA40"/>
</svg>
