<svg width="24" height="24" viewBox="0 0 24 24" fill="none" xmlns="http://www.w3.org/2000/svg">
<path d="M16.9722 2H7.0119C4.25218 2 2 4.25397 2 7.01587V17C2 19.746 4.25218 22 7.0119 22H16.9881C19.7478 22 22 19.746 22 16.9841V7.01587C21.9841 4.25397 19.732 2 16.9722 2ZM8.66138 18.1905H5.8065V9.93651H8.66138V18.1905ZM7.21808 8.66667C6.4092 8.66667 5.75892 8.01587 5.75892 7.20635C5.75892 6.39683 6.4092 5.74603 7.21808 5.74603C8.02696 5.74603 8.67724 6.39683 8.67724 7.20635C8.66138 8.01587 8.0111 8.66667 7.21808 8.66667ZM18.1935 18.1905H18.1776H15.7986V14.1905C15.7986 13.2222 15.6717 11.9841 14.3553 11.9841C13.0071 11.9841 12.7851 13.0317 12.7851 14.127V18.1905H10.406V9.93651H12.6265V11.0476H12.6899C13.0389 10.4127 13.8477 9.92064 15.1166 9.92064C17.7335 9.92064 18.1935 11.4286 18.1935 13.6667V18.1905Z" fill="#333846"/>
</svg>
