<?xml version="1.0" encoding="utf-8"?>
<!-- Generator: Adobe Illustrator 27.7.0, SVG Export Plug-In . SVG Version: 6.00 Build 0)  -->
<svg version="1.1" id="Layer_1" xmlns="http://www.w3.org/2000/svg" xmlns:xlink="http://www.w3.org/1999/xlink" x="0px" y="0px"
	 viewBox="0 0 46 46" style="enable-background:new 0 0 46 46;" xml:space="preserve">
<style type="text/css">
	.st0{fill:#007FFF;}
	.st1{fill:#FFFFFF;}
	.st2{fill:#333846;}
	.st3{fill:#F2B02B;}
	.st4{fill:#0055AC;}
	.st5{fill:#F9F9FD;}
	.st6{fill:#252524;}
	.st7{fill:#373636;}
	.st8{fill:#FDFDFD;}
	.st9{fill:#BFC0C1;}
	.st10{fill:none;}
</style>
<g>
	<path class="st2" d="M23.81,25.23c0,1.87,0,3.74,0,5.6c0,0.31,0.15,0.42,0.45,0.33c0.08-0.02,0.1-0.07,0.1-0.14
		c0-0.08,0-0.16,0-0.24c0-3.66,0-7.33,0-10.99c0-0.06,0-0.13,0-0.19c0-0.33,0.01-0.33,0.33-0.22c0.75,0.26,1.51,0.52,2.26,0.78
		c2.55,0.89,5.11,1.78,7.66,2.67c0.46,0.16,0.42,0.12,0.26,0.54c-0.69,1.89-1.62,3.65-2.9,5.21c-0.54,0.65-1.13,1.25-1.79,1.79
		c-0.21,0.17-0.21,0.18,0.03,0.3c1.97,1.01,4.41,0.45,5.74-1.32c0.05-0.06,0.09-0.13,0.14-0.19c0.16-0.2,0.33-0.24,0.5-0.13
		c0.17,0.12,0.2,0.31,0.06,0.51c-0.35,0.53-0.79,0.98-1.31,1.34c-2.21,1.54-5.05,1.24-6.94-0.75c-0.22-0.23-0.22-0.23-0.43,0
		c-1.06,1.13-2.37,1.72-3.91,1.71c-1.52-0.01-2.82-0.58-3.86-1.71c-0.23-0.25-0.23-0.24-0.45-0.01c-0.97,1.02-2.14,1.61-3.55,1.69
		c-1.9,0.11-3.41-0.63-4.58-2.12c-0.06-0.08-0.12-0.17-0.17-0.26c-0.08-0.17-0.04-0.32,0.12-0.42c0.16-0.11,0.31-0.08,0.43,0.06
		c0.11,0.12,0.19,0.26,0.29,0.38c1.34,1.68,3.72,2.19,5.63,1.21c0.26-0.13,0.26-0.13,0.03-0.32c-1.68-1.38-2.9-3.11-3.86-5.05
		c-0.33-0.67-0.61-1.37-0.88-2.07c-0.08-0.21-0.04-0.3,0.17-0.37c2.7-0.93,5.4-1.87,8.1-2.81c0.67-0.23,1.34-0.47,2.01-0.7
		c0.28-0.1,0.3-0.08,0.3,0.22C23.81,21.46,23.81,23.35,23.81,25.23z"/>
	<path class="st0" d="M20.9,40.32c-2.93,0-5.86,0-8.79,0c-0.41,0-0.41,0-0.41-0.41c0-1.07,0-2.14,0-3.21c0-0.33,0-0.33,0.34-0.33
		c0.45,0,0.9,0,1.35,0c0.89,0.01,1.54-0.41,1.97-1.17c0.53-0.93,1.25-1.65,2.29-2.01c0.82-0.28,1.64-0.18,2.45,0.04
		c0.67,0.18,1.29,0.5,1.87,0.88c0.75,0.48,1.55,0.72,2.44,0.71c1.92-0.02,3.83,0,5.75-0.01c0.21,0,0.42,0.01,0.62,0.06
		c0.74,0.19,1.17,0.83,1.09,1.58c-0.08,0.66-0.67,1.18-1.39,1.21c-0.18,0.01-0.37,0-0.56,0c-2.45,0-4.9,0-7.34,0
		c-0.34,0-0.47,0.08-0.47,0.28c0.01,0.2,0.14,0.28,0.48,0.28c2.58,0,5.17,0,7.75,0c1.06,0,1.86-0.62,2.06-1.59
		c0.02-0.09,0.04-0.18,0.03-0.26c-0.05-0.32,0.1-0.46,0.37-0.6c2.2-1.13,4.39-2.27,6.58-3.41c0.53-0.27,1.05-0.25,1.53,0.08
		c0.87,0.59,0.78,1.88-0.15,2.39c-1.2,0.65-2.41,1.3-3.61,1.95c-1.85,1-3.7,2-5.54,3.01c-0.65,0.36-1.32,0.53-2.05,0.53
		C26.68,40.31,23.79,40.32,20.9,40.32z"/>
	<path class="st3" d="M24.08,10.74c3.09,0,6.18,0,9.28,0c0.1,0,0.21,0,0.31,0.01c0.2,0.01,0.31,0.12,0.32,0.32
		c0,0.11-0.01,0.23,0.01,0.34c0.03,0.22-0.08,0.33-0.27,0.42c-0.99,0.44-1.98,0.9-2.97,1.33c-0.24,0.1-0.32,0.25-0.32,0.5
		c0.01,0.77,0,1.55,0.01,2.32c0,0.16-0.01,0.28-0.22,0.28c-0.22,0-0.24-0.12-0.24-0.29c0.01-0.52,0-1.05,0-1.57
		c0-0.33-0.09-0.42-0.41-0.42c-0.82,0-1.64,0-2.46,0c-0.32,0-0.38,0.07-0.39,0.39c0,0.54-0.01,1.08,0,1.62
		c0,0.19-0.06,0.28-0.26,0.27c-0.87-0.02-0.71,0.12-0.72-0.7c-0.01-0.4,0-0.81,0-1.21c0-0.28-0.09-0.37-0.36-0.37
		c-0.85,0-1.69,0-2.54,0c-0.3,0-0.36,0.07-0.36,0.38c0,0.54-0.01,1.08,0,1.62c0,0.21-0.08,0.29-0.28,0.28
		c-0.14-0.01-0.29-0.01-0.43,0c-0.22,0.02-0.28-0.08-0.27-0.28c0.01-0.53,0.01-1.06,0-1.59c0-0.32-0.08-0.4-0.4-0.4
		c-0.82,0-1.64,0-2.46,0c-0.32,0-0.39,0.08-0.39,0.4c0,0.53,0,1.06,0,1.59c0,0.16-0.02,0.28-0.23,0.28c-0.21,0-0.26-0.1-0.26-0.28
		c0-0.77-0.01-1.53,0.01-2.29c0.01-0.3-0.11-0.45-0.37-0.56c-0.98-0.43-1.95-0.88-2.93-1.31c-0.18-0.08-0.25-0.19-0.25-0.39
		c0.01-0.68,0.01-0.69,0.69-0.69C17.93,10.74,21.01,10.74,24.08,10.74z"/>
	<path class="st0" d="M23.92,16.82c2.63,0,5.26,0,7.9,0c0.34,0,0.35,0,0.35,0.35c0,1.3,0,2.59,0,3.89c0,0.32,0,0.32-0.31,0.22
		c-0.73-0.25-1.46-0.52-2.19-0.76c-0.21-0.07-0.28-0.18-0.28-0.4c0.02-0.49,0-0.98,0-1.47c0-0.16-0.05-0.29-0.22-0.34
		c-0.18-0.05-0.33,0.08-0.34,0.31c-0.01,0.43,0,0.85,0,1.28c0,0.33,0,0.33-0.3,0.23c-1.4-0.49-2.8-0.97-4.19-1.46
		c-0.18-0.06-0.34-0.06-0.51,0c-1.39,0.49-2.78,0.97-4.17,1.46c-0.32,0.11-0.32,0.11-0.32-0.23c0-0.37,0-0.74,0-1.11
		c0-0.08,0-0.16-0.02-0.24c-0.04-0.15-0.13-0.25-0.29-0.23c-0.16,0.02-0.24,0.13-0.24,0.28c-0.01,0.23,0,0.45,0,0.68
		c0,0.31,0,0.63,0,0.94c0,0.15-0.06,0.24-0.2,0.29c-0.91,0.31-1.83,0.63-2.74,0.95c-0.16,0.05-0.22,0.02-0.22-0.15
		c0-1.42,0-2.83,0-4.25c0-0.16,0.07-0.22,0.22-0.21c0.4,0,0.8,0,1.21,0C19.33,16.82,21.63,16.82,23.92,16.82z"/>
	<path class="st2" d="M11.14,37.33c0,0.9-0.01,1.81,0,2.71c0,0.2-0.07,0.28-0.32,0.28c-1.08-0.01-2.16,0-3.24,0
		c-0.5,0-0.66-0.15-0.66-0.58c0-1.7,0-3.4,0-5.1c0-0.44,0.17-0.59,0.68-0.59c0.97,0,1.93,0,2.9,0c0.45,0,0.63,0.15,0.63,0.54
		C11.15,35.5,11.14,36.41,11.14,37.33z"/>
	<path class="st4" d="M24.07,10.21c-0.72,0-1.43-0.01-2.15,0c-0.23,0-0.33-0.07-0.32-0.32c0.01-0.93,0-1.87,0.01-2.8
		c0-0.32,0.08-0.41,0.39-0.41c1.39,0,2.78,0,4.17,0c0.29,0,0.38,0.1,0.38,0.38c0,0.96,0,1.91,0,2.87c0,0.22-0.1,0.27-0.29,0.27
		C25.54,10.21,24.81,10.21,24.07,10.21z"/>
	<path class="st4" d="M19.83,14.55c0.28,0,0.56,0,0.85,0c0.16,0,0.24,0.05,0.24,0.22c-0.01,0.43,0,0.85,0,1.28
		c0,0.15-0.06,0.22-0.22,0.22c-0.57,0-1.14,0-1.71,0c-0.17,0-0.23-0.07-0.22-0.23c0.01-0.42,0.01-0.84,0-1.26
		c0-0.17,0.06-0.23,0.23-0.23C19.27,14.55,19.55,14.55,19.83,14.55C19.83,14.55,19.83,14.55,19.83,14.55z"/>
	<path class="st4" d="M24.08,14.55c0.28,0,0.56,0,0.84,0c0.16,0,0.24,0.05,0.24,0.22c0,0.43,0,0.85,0,1.28
		c0,0.15-0.06,0.22-0.22,0.22c-0.57,0-1.14,0-1.71,0c-0.17,0-0.22-0.08-0.22-0.24c0.01-0.42,0.01-0.84,0-1.26
		c0-0.17,0.06-0.23,0.23-0.23C23.52,14.55,23.8,14.55,24.08,14.55z"/>
	<path class="st4" d="M28.33,14.55c0.28,0,0.56,0.01,0.84,0c0.16,0,0.24,0.05,0.24,0.22c0,0.43,0,0.85,0,1.28
		c0,0.17-0.08,0.22-0.24,0.22c-0.55,0-1.11,0-1.66,0c-0.17,0-0.25-0.05-0.25-0.24c0.01-0.42,0.01-0.84,0-1.25
		c0-0.19,0.08-0.24,0.25-0.23C27.78,14.55,28.05,14.55,28.33,14.55z"/>
</g>
</svg>
