<svg width="54" height="54" viewBox="0 0 54 54" fill="none" xmlns="http://www.w3.org/2000/svg">
<g clip-path="url(#clip0_612_6106)">
<path d="M15.8035 16.9999V8.9999C15.8061 8.11734 16.5209 7.40254 17.4035 7.3999H36.6035C37.486 7.40254 38.2008 8.11734 38.2035 8.9999V16.9999" fill="#007FFF"/>
<path d="M12.6042 29.9755V18.5995C12.6069 17.717 13.3217 17.0021 14.2042 16.9995H39.8042C40.6868 17.0021 41.4016 17.717 41.4042 18.5995V29.9755H12.6042Z" fill="#FFC247"/>
<path d="M45.1409 33.2078L34.9489 48.7358C33.573 48.7199 32.2018 48.9003 30.8769 49.2718C28.349 49.9759 25.6768 49.9759 23.1489 49.2718H23.1409C21.8134 48.8998 20.4395 48.7193 19.0609 48.7358L8.86891 33.2078C8.58883 32.7841 8.52796 32.2522 8.70507 31.7761C8.88219 31.3001 9.276 30.9374 9.76491 30.7998L27.0049 25.7998L44.2449 30.7998C44.7338 30.9374 45.1276 31.3001 45.3048 31.7761C45.4819 32.2522 45.421 32.7841 45.1409 33.2078Z" fill="#0055AC"/>
<path d="M30.2042 23.4C31.0879 23.4 31.8042 22.6836 31.8042 21.8C31.8042 20.9163 31.0879 20.2 30.2042 20.2C29.3206 20.2 28.6042 20.9163 28.6042 21.8C28.6042 22.6836 29.3206 23.4 30.2042 23.4Z" fill="#007FFF"/>
<path d="M23.8058 23.4C24.6895 23.4 25.4058 22.6836 25.4058 21.8C25.4058 20.9163 24.6895 20.2 23.8058 20.2C22.9222 20.2 22.2058 20.9163 22.2058 21.8C22.2058 22.6836 22.9222 23.4 23.8058 23.4Z" fill="#007FFF"/>
<path d="M17.4035 23.4C18.2871 23.4 19.0035 22.6836 19.0035 21.8C19.0035 20.9163 18.2871 20.2 17.4035 20.2C16.5198 20.2 15.8035 20.9163 15.8035 21.8C15.8035 22.6836 16.5198 23.4 17.4035 23.4Z" fill="#007FFF"/>
<path d="M33.4027 13.7996C34.2864 13.7996 35.0027 13.0833 35.0027 12.1996C35.0027 11.316 34.2864 10.5996 33.4027 10.5996C32.5191 10.5996 31.8027 11.316 31.8027 12.1996C31.8027 13.0833 32.5191 13.7996 33.4027 13.7996Z" fill="#B0D3F0"/>
<path d="M27.0021 13.7999C27.8858 13.7999 28.6021 13.0835 28.6021 12.1999C28.6021 11.3162 27.8858 10.5999 27.0021 10.5999C26.1184 10.5999 25.4021 11.3162 25.4021 12.1999C25.4021 13.0835 26.1184 13.7999 27.0021 13.7999Z" fill="#B0D3F0"/>
<path d="M20.6027 13.7996C21.4863 13.7996 22.2027 13.0833 22.2027 12.1996C22.2027 11.316 21.4863 10.5996 20.6027 10.5996C19.719 10.5996 19.0027 11.316 19.0027 12.1996C19.0027 13.0833 19.719 13.7996 20.6027 13.7996Z" fill="#B0D3F0"/>
<path d="M36.6037 23.4C37.4873 23.4 38.2037 22.6836 38.2037 21.8C38.2037 20.9163 37.4873 20.2 36.6037 20.2C35.72 20.2 35.0037 20.9163 35.0037 21.8C35.0037 22.6836 35.72 23.4 36.6037 23.4Z" fill="#007FFF"/>
<path d="M24.6047 3.39966H29.4047C29.8465 3.39966 30.2047 3.75783 30.2047 4.19966V7.39966H23.8047V4.19966C23.8047 3.75783 24.1629 3.39966 24.6047 3.39966Z" fill="#285680"/>
<path d="M45.1399 33.2078L40.1959 40.7358L27.0039 36.1998V25.7998L44.2439 30.7998C44.7328 30.9374 45.1266 31.3001 45.3037 31.7761C45.4809 32.2522 45.42 32.7841 45.1399 33.2078Z" fill="#007FFF"/>
<path d="M38.1079 43.92L34.9479 48.736C33.572 48.72 32.2008 48.9005 30.8759 49.272C29.6174 49.6204 28.3178 49.798 27.0119 49.8H27.0039V40.2L38.1079 43.92Z" fill="#007FFF"/>
<path d="M27.0035 36.1997V40.1997L15.8995 43.9197L13.8115 40.7357L27.0035 36.1997Z" fill="#99CCFF"/>
<path d="M40.1959 40.7359L38.1079 43.92L27.0039 40.2V36.2L40.1959 40.7359Z" fill="white"/>
<path d="M11.5365 50.5999C10.1601 50.5982 8.79031 50.4098 7.46454 50.0399L3.58934 48.9711C3.31381 48.8948 3.09993 48.6773 3.02826 48.4005C2.95659 48.1238 3.03801 47.8298 3.24186 47.6293C3.44571 47.4289 3.74101 47.3524 4.01654 47.4287L7.89094 48.4999C10.2774 49.1695 12.8021 49.1695 15.1885 48.4999C17.8586 47.7507 20.6833 47.7507 23.3533 48.4999C25.7424 49.1703 28.2699 49.1703 30.6589 48.4999C33.3274 47.7509 36.1505 47.7509 38.8189 48.4999C41.2082 49.1711 43.7361 49.1711 46.1253 48.4999L49.9885 47.4303C50.2641 47.354 50.5594 47.4305 50.7632 47.6309C50.9671 47.8314 51.0485 48.1254 50.9768 48.4021C50.9051 48.6789 50.6913 48.8964 50.4157 48.9727L46.5525 50.0399C43.8842 50.7896 41.0609 50.7896 38.3925 50.0399C36.004 49.3695 33.4771 49.3695 31.0885 50.0399C28.4201 50.7891 25.5969 50.7891 22.9285 50.0399C20.5397 49.3697 18.0125 49.3697 15.6237 50.0399C14.2929 50.4104 12.918 50.5988 11.5365 50.5999Z" fill="#007FFF"/>
</g>
<defs>
<clipPath id="clip0_612_6106">
<rect width="48" height="48" fill="white" transform="translate(3.00098 3)"/>
</clipPath>
</defs>
</svg>
