<svg width="54" height="54" viewBox="0 0 54 54" fill="none" xmlns="http://www.w3.org/2000/svg">
<path d="M44.7126 7.48932C46.1469 7.74165 47.1928 8.98763 47.1928 10.4439V24.4106C47.1928 36.2691 39.8095 46.7306 28.667 50.9002C28.0505 51.1309 27.3702 51.1291 26.7547 50.8959C15.4522 46.6126 8.25 36.0972 8.25 24.4106V10.4439C8.25 8.98763 9.2959 7.74165 10.7302 7.48932L27.2016 4.59152C27.5455 4.53102 27.8973 4.53102 28.2412 4.59152L44.7126 7.48932Z" fill="#007FFF"/>
<path fill-rule="evenodd" clip-rule="evenodd" d="M28.3844 8.4264C28.0405 8.36591 27.6887 8.36591 27.3449 8.4264L14.5673 10.6743C13.133 10.9266 12.0871 12.1745 12.0868 13.6308C12.0843 25.7253 12.0671 25.2392 12.1609 26.4657C12.9019 35.6223 18.7877 43.8069 27.8587 47.4C27.86 47.4005 27.8616 47.4009 27.8627 47.3999C27.8638 47.3988 27.8654 47.3986 27.8667 47.3981C36.7213 43.9232 42.7976 35.7918 43.5664 26.4657C43.6621 25.2654 43.6449 25.7349 43.6425 13.6309C43.6422 12.1746 42.5963 10.9266 41.162 10.6743L28.3844 8.4264Z" fill="white"/>
<mask id="mask0_420_6330" style="mask-type:luminance" maskUnits="userSpaceOnUse" x="12" y="8" width="32" height="40">
<path fill-rule="evenodd" clip-rule="evenodd" d="M27.8646 8.33496L12.087 11.1106C12.087 25.7956 12.061 25.1595 12.1609 26.4657C12.902 35.623 18.7886 43.8082 27.8608 47.4008C27.8627 47.4008 27.8627 47.3989 27.8646 47.3989C36.7204 43.9245 42.7976 35.7925 43.5664 26.4657C43.6683 25.1875 43.6422 25.8029 43.6422 11.1106L27.8646 8.33496Z" fill="white"/>
</mask>
<g mask="url(#mask0_420_6330)">
<path d="M34.499 16.6597C34.4957 17.1117 34.3141 17.544 33.994 17.8624C33.6739 18.1808 33.2412 18.3594 32.7902 18.3594H30.431V20.8003C30.4276 21.2523 30.2461 21.6846 29.926 22.003C29.6059 22.3213 29.1732 22.5 28.7222 22.5H28.2631C27.8121 22.5 27.3794 22.3213 27.0593 22.003C26.7392 21.6846 26.5576 21.2523 26.5543 20.8003V18.3594H24.2078C23.7568 18.3594 23.3241 18.1808 23.004 17.8624C22.6839 17.544 22.5024 17.1117 22.499 16.6597V16.3786C22.499 15.9244 22.6791 15.4889 22.9995 15.1677C23.32 14.8466 23.7546 14.6661 24.2078 14.6661H26.5543V12.2125C26.5543 11.7583 26.7343 11.3227 27.0548 11.0016C27.3753 10.6804 27.8099 10.5 28.2631 10.5H28.7222C29.1754 10.5 29.61 10.6804 29.9305 11.0016C30.251 11.3227 30.431 11.7583 30.431 12.2125V14.6661H32.7902C33.2434 14.6661 33.6781 14.8466 33.9985 15.1677C34.319 15.4889 34.499 15.9244 34.499 16.3786V16.6597Z" fill="#333846"/>
<path d="M44.4598 37.1378C43.6419 35.7582 42.4767 34.6022 41.0907 33.795C39.6612 32.9628 38.0268 32.5227 36.3642 32.5227C34.7016 32.5227 33.0673 32.9628 31.6377 33.795C30.2517 34.6022 29.0868 35.7582 28.2686 37.1378C27.559 38.3351 27.5483 39.7747 28.2403 40.9891C28.9391 42.2162 30.1979 42.9485 31.6071 42.9485H41.1213C42.5308 42.9485 43.7893 42.2159 44.4884 40.9891C45.1801 39.7747 45.1694 38.3351 44.4598 37.1378Z" fill="#0055AC"/>
<path d="M39.4006 25.0984C38.6923 24.3901 37.7507 24 36.7489 24C35.7472 24 34.8056 24.3901 34.0974 25.0984C33.3891 25.8067 32.999 26.7484 32.999 27.7499C32.999 28.7516 33.3891 29.6933 34.0974 30.4016C34.8056 31.1099 35.7472 31.5 36.7489 31.5C37.7507 31.5 38.6923 31.1099 39.4006 30.4016C40.1089 29.6933 40.499 28.7516 40.499 27.7499C40.499 26.7484 40.1089 25.8067 39.4006 25.0984Z" fill="#F8B68F"/>
<path d="M28.3112 37.1376C27.4932 35.758 26.328 34.602 24.9421 33.7947C23.5127 32.9625 21.8782 32.5225 20.2155 32.5225C18.5529 32.5225 16.9186 32.9625 15.489 33.7947C14.103 34.602 12.9381 35.758 12.1199 37.1376C11.4103 38.3346 11.3996 39.7744 12.0916 40.9888C12.7905 42.2157 14.0492 42.9482 15.4584 42.9482H24.9729C26.3821 42.9482 27.6406 42.216 28.3397 40.9888C29.0314 39.7747 29.0207 38.3349 28.3112 37.1376Z" fill="#27488F"/>
<path d="M22.9006 25.0984C22.1923 24.3901 21.2507 24 20.2489 24C19.2474 24 18.3056 24.3901 17.5974 25.0984C16.8891 25.8067 16.499 26.7484 16.499 27.7499C16.499 28.7516 16.8891 29.6933 17.5974 30.4016C18.3056 31.1099 19.2474 31.5 20.2489 31.5C21.2507 31.5 22.1923 31.1099 22.9006 30.4016C23.6089 29.6933 23.999 28.7516 23.999 27.7499C23.999 26.7484 23.6089 25.8067 22.9006 25.0984Z" fill="#F8B68F"/>
<path d="M36.8894 41.312C35.9659 39.7238 34.6506 38.3932 33.0857 37.4644C31.4716 36.5062 29.6263 36 27.7491 36C25.8719 36 24.0263 36.5062 22.4125 37.4644C20.8476 38.3932 19.532 39.7238 18.6085 41.312C17.8074 42.6898 17.7953 44.347 18.5766 45.7447C19.3656 47.1569 20.7866 48 22.3779 48H33.1202C34.7113 48 36.1326 47.1569 36.9216 45.7447C37.7026 44.347 37.6908 42.6898 36.8894 41.312Z" fill="#007FFF"/>
<path d="M31.6826 26.8165C29.927 25.0612 27.071 25.0612 25.3155 26.8165C23.5602 28.5718 23.5602 31.4281 25.3155 33.1834C26.1933 34.0612 27.3461 34.5 28.499 34.5C29.6519 34.5 30.8048 34.0612 31.6826 33.1834C33.4378 31.4281 33.4378 28.5718 31.6826 26.8165Z" fill="#FFCFB3"/>
</g>
</svg>
