<svg width="60" height="60" viewBox="0 0 60 60" fill="none" xmlns="http://www.w3.org/2000/svg">
<path d="M40.0458 34.0105H35.0328H25.0068L17.3382 34.4277C13.8589 35.5514 11.335 38.8209 11.335 42.6693V51.9662C11.335 52.7212 11.9471 53.3334 12.7021 53.3334H33.9587L48.7047 48.4474V42.6693C48.7047 37.8948 44.8203 34.0105 40.0458 34.0105Z" fill="#007FFF"/>
<path d="M25.0068 29.1353V36.2884C25.0068 39.057 27.2512 41.3014 30.0198 41.3014C32.7885 41.3014 35.0329 39.057 35.0329 36.2884V29.1353L25.0068 29.1353Z" fill="#F8B68F"/>
<path d="M40.0459 44.7257C39.2908 44.7257 38.6787 44.1136 38.6787 43.3585V41.0027C38.6787 40.2476 39.2908 39.6355 40.0459 39.6355C40.8009 39.6355 41.4131 40.2476 41.4131 41.0027V43.3585C41.4131 44.1136 40.8009 44.7257 40.0459 44.7257Z" fill="#FFC247"/>
<path d="M34.577 53.3332H24.551C22.2894 53.3332 20.4495 51.4933 20.4495 49.2317C20.4495 46.9701 22.2894 45.1301 24.551 45.1301H34.577C35.3321 45.1301 35.9442 45.7423 35.9442 46.4973V51.966C35.9442 52.7211 35.3321 53.3332 34.577 53.3332Z" fill="#F8B68F"/>
<path d="M25.007 34.0105H19.994C19.068 34.0105 18.1756 34.1572 17.3384 34.4277L33.9589 53.3334H47.3377C48.0927 53.3334 48.7049 52.7212 48.7049 51.9662V48.4474L25.007 34.0105Z" fill="white"/>
<path d="M31.8255 13.5027L20.4495 17.5272V23.5287C20.4495 28.8058 24.7427 33.099 30.0198 33.099C35.2968 33.099 39.59 28.8058 39.59 23.5287V17.5156L31.8255 13.5027Z" fill="#F8B68F"/>
<path d="M21.3608 6.66675H33.6655C36.9374 6.66675 39.5899 9.31918 39.5899 12.5912V17.5155C36.7379 17.885 33.9766 17.0887 31.8254 15.3413C29.9525 16.8086 27.658 17.6042 25.2413 17.6042H21.3608C18.3405 17.6042 15.8921 15.1558 15.8921 12.1355C15.8921 9.11519 18.3405 6.66675 21.3608 6.66675Z" fill="#333846"/>
</svg>
