<svg width="54" height="54" viewBox="0 0 54 54" fill="none" xmlns="http://www.w3.org/2000/svg">
<path d="M28.8672 20.4392C28.8672 20.4392 33.4103 47.6012 34.5938 50.8143H51.4688C52.0462 50.8142 52.4529 50.2472 52.2681 49.7002C52.2681 49.7002 48.0938 37.3065 48.0938 23.9823V21.283C48.0938 20.817 47.716 20.4392 47.2501 20.4392H28.8672Z" fill="#0055AC"/>
<path d="M28.8672 20.4392C28.8672 20.4392 29.3747 23.4293 30.024 27.1925H48.1795C48.1291 26.1312 48.0938 25.062 48.0938 23.9823V21.283C48.0938 20.817 47.716 20.4392 47.2501 20.4392H28.8672Z" fill="#003D7B"/>
<path d="M8.43449 12.0005C8.32365 12.0009 8.21398 12.0231 8.11174 12.0659C8.00949 12.1087 7.91667 12.1712 7.83859 12.2498C7.76051 12.3285 7.69869 12.4217 7.65666 12.5243C7.61463 12.6268 7.59322 12.7367 7.59365 12.8476V16.2234C7.59364 32.9015 1.73266 49.689 1.73266 49.689C1.68716 49.8165 1.67302 49.953 1.69143 50.0872C1.70985 50.2213 1.76028 50.3491 1.83846 50.4596C1.91665 50.5702 2.02029 50.6603 2.14063 50.7224C2.26098 50.7845 2.39449 50.8167 2.5299 50.8163H36.282C36.4174 50.8167 36.5509 50.7845 36.6712 50.7224C36.7916 50.6603 36.8952 50.5702 36.9734 50.4596C37.0516 50.3491 37.102 50.2213 37.1204 50.0872C37.1389 49.953 37.1247 49.8165 37.0792 49.689C37.0792 49.689 31.2182 32.9015 31.2182 16.2234V12.8476C31.2187 12.7367 31.1972 12.6268 31.1552 12.5243C31.1132 12.4217 31.0514 12.3285 30.9733 12.2498C30.8952 12.1712 30.8024 12.1087 30.7001 12.0659C30.5979 12.0231 30.4882 12.0009 30.3774 12.0005H8.43449Z" fill="#007FFF"/>
<path d="M19.4024 32.9055C20.3444 32.9055 21.0903 33.6515 21.0903 34.5934C21.0903 35.5353 20.3444 36.2813 19.4024 36.2813C18.4604 36.2813 17.7207 35.5353 17.7207 34.5934C17.7207 33.6515 18.4604 32.9055 19.4024 32.9055Z" fill="#FFC247"/>
<path d="M19.4013 26.1538C17.9214 26.157 16.471 26.5516 15.1908 27.2942C14.9968 27.4057 14.855 27.5896 14.7965 27.8056C14.7381 28.0216 14.7679 28.252 14.8793 28.4461L17.0431 32.1918C17.6521 31.5912 18.4844 31.2179 19.4013 31.2179C20.3191 31.2179 21.1538 31.5919 21.7645 32.1935L23.9299 28.4461C24.0413 28.252 24.0711 28.0216 24.0127 27.8056C23.9543 27.5896 23.8124 27.4057 23.6184 27.2942C22.3375 26.5519 20.8883 26.1565 19.4079 26.1538C19.4057 26.1538 19.4035 26.1538 19.4012 26.1538H19.4013ZM11.8092 33.7458C11.6983 33.7463 11.5885 33.7686 11.4862 33.8115C11.3839 33.8544 11.2911 33.9171 11.213 33.9959C11.1349 34.0748 11.0732 34.1683 11.0313 34.271C10.9894 34.3737 10.9681 34.4836 10.9688 34.5946C10.9723 37.606 12.5822 40.3889 15.1908 41.8934C15.3841 42.0053 15.6138 42.0361 15.8298 41.979C16.0457 41.9218 16.2302 41.7814 16.3427 41.5884L18.5098 37.8328C17.0881 37.4362 16.0329 36.1381 16.0329 34.5946C16.0329 34.3005 16.0817 34.0184 16.1532 33.7458H11.8092ZM22.656 33.7458C22.7278 34.0185 22.778 34.3006 22.778 34.5946C22.778 36.1359 21.7195 37.4325 20.2995 37.8311L22.4665 41.5818C22.578 41.7759 22.7619 41.9177 22.9779 41.9762C23.194 42.0346 23.4244 42.0049 23.6184 41.8934C26.2272 40.3898 27.8362 37.6058 27.8405 34.5947C27.8411 34.4837 27.8199 34.3738 27.778 34.2711C27.736 34.1683 27.6743 34.0749 27.5962 33.996C27.5182 33.9172 27.4253 33.8545 27.323 33.8116C27.2207 33.7687 27.1109 33.7464 27 33.7459L22.656 33.7458Z" fill="#FFC247"/>
<path d="M8.43421 12C8.21044 12.0009 7.9962 12.0906 7.83859 12.2494C7.68098 12.4083 7.59291 12.6232 7.59376 12.847V16.2237C7.59376 17.067 7.56953 17.9098 7.54102 18.7516H31.2715C31.2431 17.9098 31.2187 17.067 31.2187 16.2237V12.847C31.2196 12.6232 31.1315 12.4083 30.9739 12.2494C30.8163 12.0906 30.6021 12.0009 30.3783 12H8.43421Z" fill="#0055AC"/>
<path d="M21.9375 0C19.8772 0 18.1558 1.49131 17.7929 3.44921C15.835 3.81211 14.3438 5.53347 14.3438 7.59377V9.28129C14.3438 10.4066 16.0329 10.4066 16.0329 9.28129V7.59377C16.0329 6.17684 17.1439 5.05765 18.5609 5.05761C18.9813 5.05443 19.4013 4.76933 19.4013 4.21716C19.4013 2.80023 20.5206 1.68918 21.9375 1.68918C23.0628 1.68918 23.0628 0 21.9375 0Z" fill="#EEE7E2"/>
<path d="M27.8426 5.07045C27.8426 5.55243 27.4836 5.914 26.9955 5.91091L25.3014 5.90458C23.9138 5.90484 22.7647 7.05205 22.7735 8.4457L22.7802 9.28615C22.7623 10.4367 24.5011 10.4248 24.4677 9.2734L24.461 8.43295C24.4574 7.9467 24.8171 7.59355 25.2965 7.59084L26.9906 7.59717C28.3842 7.60673 29.5317 6.45681 29.5317 5.06909C29.5378 4.59275 29.1478 4.20615 28.6715 4.2155C28.2075 4.22506 27.8371 4.60513 27.8426 5.06919V5.07045Z" fill="#EEE7E2"/>
<path d="M42.1875 8.4292C40.1272 8.4292 38.4058 9.9205 38.0429 11.8784C36.085 12.2413 34.5938 13.9627 34.5938 16.023V17.7105C34.5938 18.8358 36.2829 18.8358 36.2829 17.7105V16.023C36.2829 14.606 37.3939 13.4868 38.8109 13.4868C39.2313 13.4836 39.6513 13.1985 39.6513 12.6464C39.6513 11.2295 40.7706 10.1184 42.1875 10.1184C43.3128 10.1184 43.3128 8.4292 42.1875 8.4292Z" fill="#EEE7E2"/>
<path d="M46.4051 13.5C46.4051 13.9821 46.0461 14.3436 45.558 14.3405L43.8639 14.3342C42.4763 14.3344 41.3272 15.4816 41.336 16.8753L41.3427 17.7157C41.3248 18.8663 43.0637 18.8543 43.0302 17.703L43.0235 16.8625C43.02 16.3763 43.3796 16.0231 43.859 16.0204L45.5531 16.0268C46.9467 16.0363 48.0942 14.8866 48.0942 13.4989C48.1003 13.0225 47.7103 12.6359 47.234 12.6452C46.77 12.6547 46.3996 13.0347 46.4051 13.4988V13.5Z" fill="#EEE7E2"/>
</svg>
