<svg width="36" height="36" viewBox="0 0 36 36" fill="none" xmlns="http://www.w3.org/2000/svg">
<path d="M18.42 9C11.94 9.12 5 11.26 1.31 15.73C4.00523 15.7848 6.63519 16.5693 8.92 18C12.0551 17.1007 15.4018 17.2839 18.42 18.52C21.4419 17.2847 24.7914 17.1015 27.93 18C30.2148 16.5693 32.8448 15.7848 35.54 15.73C31.86 11.26 24.89 9.12 18.42 9Z" fill="#FDCA40"/>
<path fill-rule="evenodd" clip-rule="evenodd" d="M18.82 11.6001C19.2066 11.6001 19.52 11.9135 19.52 12.3001V28.8901C19.52 29.2349 19.657 29.5655 19.9008 29.8093C20.1446 30.0531 20.4752 30.1901 20.82 30.1901C21.1648 30.1901 21.4955 30.0531 21.7392 29.8093C21.983 29.5655 22.12 29.2349 22.12 28.8901C22.12 28.5035 22.4334 28.1901 22.82 28.1901C23.2066 28.1901 23.52 28.5035 23.52 28.8901C23.52 29.6062 23.2355 30.2929 22.7292 30.7993C22.2228 31.3056 21.5361 31.5901 20.82 31.5901C20.1039 31.5901 19.4172 31.3056 18.9108 30.7993C18.4045 30.2929 18.12 29.6062 18.12 28.8901V12.3001C18.12 11.9135 18.4334 11.6001 18.82 11.6001Z" fill="#333846"/>
<path d="M18.42 4.6499C10.13 4.6699 2.8 9.2899 1.31 15.7099C2.31773 15.1936 3.40708 14.8553 4.53 14.7099C6.53 14.4299 10.43 14.7099 11.53 15.3299C12.83 14.0999 15.42 13.1699 18.42 13.1699C21.42 13.1699 24.04 14.0999 25.32 15.3299C26.42 14.7499 30.32 14.4499 32.32 14.7099C33.4429 14.8553 34.5323 15.1936 35.54 15.7099C34.05 9.2899 26.7 4.6699 18.42 4.6499Z" fill="#ED7176"/>
<path d="M18.42 4.6499C10.13 4.6699 2.8 9.2899 1.31 15.7099C2.31773 15.1936 3.40708 14.8553 4.53 14.7099C6.53 14.4299 10.43 14.7099 11.53 15.3299C12.83 14.0999 15.42 13.1699 18.42 13.1699C21.42 13.1699 24.04 14.0999 25.32 15.3299C26.42 14.7499 30.32 14.4499 32.32 14.7099C33.4429 14.8553 34.5323 15.1936 35.54 15.7099C34.05 9.2899 26.7 4.6699 18.42 4.6499Z" fill="#3399FF"/>
<path d="M18.42 4.6499V13.1799C21.42 13.1799 24.04 14.1099 25.32 15.3399C26.42 14.7599 30.32 14.4599 32.32 14.7199C33.4429 14.8653 34.5323 15.2036 35.54 15.7199C34.05 9.2899 26.7 4.6699 18.42 4.6499Z" fill="#0066CC"/>
<path d="M23.35 8.99991C22.1526 7.11402 20.4425 5.60852 18.42 4.65991C16.4015 5.61057 14.6951 7.11581 13.5 8.99991C12.3195 10.9191 11.6324 13.1006 11.5 15.3499C12.8 14.1199 15.39 13.1899 18.39 13.1899C21.39 13.1899 24.01 14.1199 25.29 15.3499C25.1726 13.1064 24.5064 10.926 23.35 8.99991Z" fill="#007FFF"/>
</svg>
