<svg width="99" height="88" viewBox="0 0 99 88" fill="none" xmlns="http://www.w3.org/2000/svg">
<path d="M90.4996 44.6672C90.4072 67.0347 72.2 85.0921 49.8328 84.9996C27.4653 84.9074 9.4079 66.7 9.50035 44.3328C9.59264 21.9653 27.8 3.9079 50.1674 4.00035C72.5347 4.09264 90.5921 22.3 90.4996 44.6672Z" fill="#CCD7FF"/>
<path d="M25.3429 58.6006H46.5487C47.5262 58.6006 48.1416 57.7183 48.1416 56.8743V29.9762C48.1416 29.1322 47.5261 28.25 46.5488 28.25H25.3428C24.3653 28.25 23.75 29.1323 23.75 29.9762V56.8743C23.75 57.7181 24.3653 58.6006 25.3429 58.6006Z" fill="#FEFEFE" stroke="#333846" stroke-width="1.5"/>
<path d="M28.5 37C29.6046 37 30.5 36.1046 30.5 35C30.5 33.8954 29.6046 33 28.5 33C27.3954 33 26.5 33.8954 26.5 35C26.5 36.1046 27.3954 37 28.5 37Z" fill="#CCE5FF"/>
<path d="M29.8862 36.4613C29.8862 36.3288 29.7965 36.1964 29.6169 36.1081L29.1681 35.8432C29.1232 35.7991 29.0783 35.7991 28.9885 35.7549V35.5342C29.1232 35.4017 29.213 35.2251 29.213 35.0485C29.213 34.6953 28.8988 34.3863 28.5397 34.3863C28.1806 34.3863 27.8664 34.6953 27.8664 35.0485C27.8664 35.2251 27.9562 35.4017 28.0908 35.5342V35.7549C28.0459 35.7549 27.9562 35.7991 27.9113 35.8432L27.4624 36.1081C27.3278 36.1964 27.238 36.3288 27.1931 36.4613C27.5073 36.8145 28.0011 37.0794 28.5397 37.0794C29.0783 37.0794 29.5721 36.8586 29.8862 36.4613Z" fill="#1B6FAB"/>
<path d="M34.5 34.3863H44.5993" stroke="#CCE5FF" stroke-width="2" stroke-linecap="round"/>
<path d="M34.5 39.0992H44.5993" stroke="#CCE5FF" stroke-width="2" stroke-linecap="round"/>
<path d="M27.375 38.2148H30.2813" stroke="#CCE5FF" stroke-linecap="round"/>
<path d="M27.375 39.5613H29.1188" stroke="#CCE5FF" stroke-linecap="round"/>
<path d="M34.5 43.8123H44.5993" stroke="#CCE5FF" stroke-width="2" stroke-linecap="round"/>
<path d="M34.7471 48.9873H41.1409" stroke="#3A9F59" stroke-width="3" stroke-linecap="round"/>
<path d="M52.3429 58.6006H73.5487C74.5262 58.6006 75.1416 57.7183 75.1416 56.8743V29.9762C75.1416 29.1322 74.5261 28.25 73.5488 28.25H52.3428C51.3653 28.25 50.75 29.1323 50.75 29.9762V56.8743C50.75 57.7181 51.3653 58.6006 52.3429 58.6006Z" fill="#FEFEFE" stroke="#333846" stroke-width="1.5"/>
<path d="M55.5 37C56.6046 37 57.5 36.1046 57.5 35C57.5 33.8954 56.6046 33 55.5 33C54.3954 33 53.5 33.8954 53.5 35C53.5 36.1046 54.3954 37 55.5 37Z" fill="#CCE5FF"/>
<path d="M56.8862 36.4613C56.8862 36.3288 56.7965 36.1964 56.6169 36.1081L56.1681 35.8432C56.1232 35.7991 56.0783 35.7991 55.9885 35.7549V35.5342C56.1232 35.4017 56.213 35.2251 56.213 35.0485C56.213 34.6953 55.8988 34.3863 55.5397 34.3863C55.1806 34.3863 54.8664 34.6953 54.8664 35.0485C54.8664 35.2251 54.9562 35.4017 55.0908 35.5342V35.7549C55.0459 35.7549 54.9562 35.7991 54.9113 35.8432L54.4624 36.1081C54.3278 36.1964 54.238 36.3288 54.1931 36.4613C54.5073 36.8145 55.0011 37.0794 55.5397 37.0794C56.0783 37.0794 56.5721 36.8586 56.8862 36.4613Z" fill="#1B6FAB"/>
<path d="M61.5 34.3863H71.5993" stroke="#CCE5FF" stroke-width="2" stroke-linecap="round"/>
<path d="M61.5 39.0992H71.5993" stroke="#CCE5FF" stroke-width="2" stroke-linecap="round"/>
<path d="M54.375 38.2148H57.2813" stroke="#CCE5FF" stroke-linecap="round"/>
<path d="M54.375 39.5613H56.1188" stroke="#CCE5FF" stroke-linecap="round"/>
<path d="M61.5 43.8123H71.5993" stroke="#CCE5FF" stroke-width="2" stroke-linecap="round"/>
<path d="M61.7471 48.9873H68.1409" stroke="#3A9F59" stroke-width="3" stroke-linecap="round"/>
<path d="M33 63V63C42.4738 67.7369 53.5944 67.8776 63.185 63.382L64 63" stroke="#333846" stroke-width="1.5" stroke-linecap="round"/>
<path d="M64 24.5V24.5C54.5262 19.7631 43.4056 19.6224 33.815 24.118L33 24.5" stroke="#333846" stroke-width="1.5" stroke-linecap="round"/>
<path d="M71.5 66C75.366 66 78.5 62.866 78.5 59C78.5 55.134 75.366 52 71.5 52C67.634 52 64.5 55.134 64.5 59C64.5 62.866 67.634 66 71.5 66Z" fill="#3A9F59"/>
<path d="M72.1657 63C71.8459 63 71.5637 62.8559 71.3944 62.6317L67.5 57.7642L69.0615 56.8515L72.1657 60.7263L78.9197 52L80.5 52.8806L72.9747 62.6317C72.7865 62.8399 72.4855 63 72.1657 63Z" fill="#F39930"/>
</svg>
