<svg width="54" height="54" viewBox="0 0 54 54" fill="none" xmlns="http://www.w3.org/2000/svg">
<path d="M9 46.5H45V40.5C45 34.701 40.299 30 34.5 30H19.5C13.701 30 9 34.701 9 40.5V46.5Z" fill="#007FFF"/>
<path d="M21.9375 23.8113V29.7159C21.9375 29.9404 22.0271 30.1558 22.1863 30.3141C22.1863 30.3141 24.0954 32.2503 27.0016 32.2504C29.9079 32.2504 31.8153 30.3141 31.8153 30.3141C31.9752 30.1559 32.0653 29.9407 32.0658 29.7159V23.8113H21.9375Z" fill="#F8B68F"/>
<path d="M35.1683 18.3612C34.6718 18.3836 34.1734 18.5488 33.7461 18.8507V25.1227C33.7467 25.1227 33.7472 25.1227 33.7478 25.1227C35.8415 25.1227 37.9648 23.5022 37.9648 20.9057C37.965 20.895 37.965 20.8844 37.9648 20.8737C37.9234 19.6272 37.0014 18.7153 35.9725 18.4447C35.7153 18.3771 35.4425 18.3481 35.1683 18.3608L35.1683 18.3612Z" fill="#F8B68F"/>
<path d="M18.828 18.3616C18.5538 18.3488 18.281 18.3775 18.0238 18.4458C16.9949 18.7162 16.0728 19.6283 16.0314 20.8749C16.0312 20.8855 16.0312 20.8961 16.0314 20.9067C16.0314 23.5032 18.1531 25.1239 20.2469 25.1239C20.2474 25.1239 20.2479 25.1239 20.2485 25.1239V18.8452C19.8221 18.5445 19.3234 18.3849 18.828 18.3623V18.3616Z" fill="#F8B68F"/>
<path d="M19.4062 17.5308V22.5932C19.4062 26.7856 22.806 30.187 26.9984 30.187C31.1907 30.187 34.5905 26.7856 34.5905 22.5932V17.5308H19.4062Z" fill="#F8B68F"/>
<path d="M26.9992 4.87354C21.8719 4.87354 17.7188 9.02672 17.7188 14.154C17.7175 14.154 36.2796 14.154 36.2796 14.154C36.2796 9.02672 32.1264 4.87354 26.9992 4.87354Z" fill="#FFC247"/>
<path d="M18.56 18.3707C17.1723 18.3707 16.0312 17.2297 16.0312 15.842C16.0312 14.4543 17.1723 13.3132 18.56 13.3132H35.4392C36.8269 13.3132 37.9679 14.4543 37.9679 15.842C37.9679 17.2297 36.8269 18.3707 35.4392 18.3707H18.56Z" fill="#F2B02B"/>
<path d="M26.1514 3.18579C25.4537 3.18579 24.8068 3.45429 24.3202 3.91452C23.8337 4.37463 23.5078 5.09411 23.6351 5.8578L24.4759 10.9153C24.5078 11.1136 24.6093 11.2942 24.7623 11.4243C24.9153 11.5545 25.1097 11.6257 25.3106 11.6254H28.6864C28.8862 11.6242 29.0791 11.5523 29.2308 11.4223C29.3825 11.2922 29.4831 11.1126 29.5148 10.9153L30.3556 5.88272C30.5103 5.10901 30.1745 4.37517 29.6829 3.91452C29.1913 3.45387 28.5386 3.18579 27.8393 3.18579H26.1514Z" fill="#F2B02B"/>
<path d="M9 46.5H45C45 49.8137 42.3137 52.5 39 52.5H15C11.6863 52.5 9 49.8137 9 46.5Z" fill="#F8B68F"/>
<path d="M21.4083 30V30.0017H19.8134C18.2578 30.0017 16.7772 30.368 15.4656 31.0226C15.1817 31.1632 14.9994 31.4703 14.999 31.8085L15.0177 52.5H38.9881L38.999 31.8085C38.9998 31.4723 38.8211 31.1657 38.5402 31.0225C37.2288 30.3679 35.748 30.0017 34.1925 30.0017H32.5944V30H31.7954V30.649L27.0029 40.2932L22.2072 30.6422V30H21.4083Z" fill="#FFC247"/>
<rect x="13.5" y="43.5" width="27" height="6" rx="3" fill="#EEE7E2"/>
<path d="M26.1523 38.8362V52.3115H27.8398V38.8477L26.9994 40.4099L26.1523 38.8362Z" fill="#E8AB3C"/>
</svg>
