<svg width="99" height="88" viewBox="0 0 99 88" fill="none" xmlns="http://www.w3.org/2000/svg">
<path d="M90.4996 44.6672C90.4072 67.0347 72.2 85.0921 49.8328 84.9996C27.4653 84.9074 9.4079 66.7 9.50035 44.3328C9.59264 21.9653 27.8 3.9079 50.1674 4.00035C72.5347 4.09264 90.5921 22.3 90.4996 44.6672Z" fill="#F9DFC0"/>
<path d="M33.7519 67.1006H65.248C66.793 67.1006 67.75 65.7097 67.75 64.4005V24.4499C67.75 23.1406 66.7929 21.75 65.2481 21.75H33.7518C32.2068 21.75 31.25 23.1408 31.25 24.4499V64.4005C31.25 65.7095 32.2067 67.1006 33.7519 67.1006Z" fill="#FEFEFE" stroke="#333846" stroke-width="2.5"/>
<path d="M37.5 29H60.5" stroke="#CCE5FF" stroke-width="3" stroke-linecap="round"/>
<path d="M37.5 36H60.5" stroke="#CCE5FF" stroke-width="3" stroke-linecap="round"/>
<path d="M37.5 43H60.5" stroke="#CCE5FF" stroke-width="3" stroke-linecap="round"/>
<path d="M37.5 50H60.5" stroke="#CCE5FF" stroke-width="3" stroke-linecap="round"/>
<path d="M37.5 57H60.5" stroke="#CCE5FF" stroke-width="3" stroke-linecap="round"/>
<path d="M49.5 39.4967L55.9336 45.4667L68.9702 33" stroke="#3A9F59" stroke-width="5" stroke-linecap="round"/>
<path d="M54.1908 61.7228L53.5013 51.577C53.4742 51.178 53.8753 50.8891 54.2452 51.0413L64.1655 55.121C64.5567 55.2818 64.6192 55.8097 64.2764 56.0576L61.3179 58.1967C61.0778 58.3703 61.0226 58.7051 61.1942 58.9467L63.8338 62.662C64.0064 62.9049 63.9495 63.2417 63.7068 63.4145L62.1144 64.5476C61.8636 64.7262 61.5145 64.659 61.3477 64.4002L58.7442 60.359C58.582 60.1074 58.2461 60.0358 57.9954 60.1993L55.0243 62.1383C54.679 62.3636 54.2188 62.1342 54.1908 61.7228Z" fill="#333846"/>
</svg>
