<svg width="99" height="88" viewBox="0 0 99 88" fill="none" xmlns="http://www.w3.org/2000/svg">
<path d="M90.4996 44.6672C90.4072 67.0347 72.2 85.0921 49.8328 84.9996C27.4653 84.9074 9.4079 66.7 9.50035 44.3328C9.59264 21.9653 27.8 3.9079 50.1674 4.00035C72.5347 4.09264 90.5921 22.3 90.4996 44.6672Z" fill="#CCE5FF"/>
<path d="M33.7519 67.1006H65.248C66.793 67.1006 67.75 65.7097 67.75 64.4005V24.4499C67.75 23.1406 66.7929 21.75 65.2481 21.75H33.7518C32.2068 21.75 31.25 23.1408 31.25 24.4499V64.4005C31.25 65.7095 32.2067 67.1006 33.7519 67.1006Z" fill="#FEFEFE" stroke="#333846" stroke-width="2.5"/>
<path d="M38.5 35C40.1569 35 41.5 33.6569 41.5 32C41.5 30.3431 40.1569 29 38.5 29C36.8431 29 35.5 30.3431 35.5 32C35.5 33.6569 36.8431 35 38.5 35Z" fill="#CCE5FF"/>
<path d="M40.5 34.082C40.5 33.8852 40.3667 33.6885 40.1 33.5574L39.4333 33.1639C39.3667 33.0984 39.3 33.0984 39.1667 33.0328V32.7049C39.3667 32.5082 39.5 32.2459 39.5 31.9836C39.5 31.459 39.0333 31 38.5 31C37.9667 31 37.5 31.459 37.5 31.9836C37.5 32.2459 37.6333 32.5082 37.8333 32.7049V33.0328C37.7667 33.0328 37.6333 33.0984 37.5667 33.1639L36.9 33.5574C36.7 33.6885 36.5667 33.8852 36.5 34.082C36.9667 34.6066 37.7 35 38.5 35C39.3 35 40.0333 34.6721 40.5 34.082Z" fill="#1B6FAB"/>
<path d="M45.5 31H60.5" stroke="#CCE5FF" stroke-width="3" stroke-linecap="round"/>
<path d="M45.5 38H60.5" stroke="#CCE5FF" stroke-width="3" stroke-linecap="round"/>
<path d="M35.5 36.6863H39.8166" stroke="#CCE5FF" stroke-linecap="round"/>
<path d="M35.5 38.6863H38.0899" stroke="#CCE5FF" stroke-linecap="round"/>
<path d="M45.5 45H60.5" stroke="#CCE5FF" stroke-width="3" stroke-linecap="round"/>
<path d="M45.5 52.6863H54.9964" stroke="#3A9F59" stroke-width="4" stroke-linecap="round"/>
</svg>
