<svg width="24" height="24" viewBox="0 0 24 24" fill="none" xmlns="http://www.w3.org/2000/svg">
<path fill-rule="evenodd" clip-rule="evenodd" d="M20.9554 5.95425C21.2657 6.26655 21.4885 6.65488 21.6016 7.08037C22.0198 8.65083 22.0198 11.9258 22.0198 11.9258C22.0198 11.9258 22.0198 15.2008 21.6016 16.7713C21.4885 17.1968 21.2657 17.5851 20.9554 17.8974C20.6451 18.2097 20.2582 18.435 19.8334 18.5508C18.2698 18.9713 12.0198 18.9713 12.0198 18.9713C12.0198 18.9713 5.76978 18.9713 4.20614 18.5508C3.78138 18.435 3.39449 18.2097 3.08418 17.8974C2.77387 17.5851 2.55103 17.1968 2.43796 16.7713C2.01978 15.2008 2.01978 11.9258 2.01978 11.9258C2.01978 11.9258 2.01978 8.65083 2.43796 7.08037C2.55103 6.65488 2.77387 6.26655 3.08418 5.95425C3.39449 5.64195 3.78138 5.41662 4.20614 5.30083C5.76978 4.88037 12.0198 4.88037 12.0198 4.88037C12.0198 4.88037 18.2698 4.88037 19.8334 5.30083C20.2582 5.41662 20.6451 5.64195 20.9554 5.95425ZM15.2016 11.9258L9.97433 8.95198V14.8997L15.2016 11.9258Z" fill="#333846"/>
</svg>
